<?xml version="1.0" encoding="utf-8"?>
<!-- Generator: Adobe Illustrator 26.0.2, SVG Export Plug-In . SVG Version: 6.00 Build 0)  -->
<svg version="1.1" id="圖層_1" xmlns="http://www.w3.org/2000/svg" xmlns:xlink="http://www.w3.org/1999/xlink" x="0px" y="0px"
	 viewBox="0 0 193 1945" style="enable-background:new 0 0 193 1945;" xml:space="preserve">
<style type="text/css">
	.st0{fill-rule:evenodd;clip-rule:evenodd;fill:url(#SVGID_1_);}
</style>
<linearGradient id="SVGID_1_" gradientUnits="userSpaceOnUse" x1="96.7115" y1="0.9388" x2="96.7115" y2="1948.1981">
	<stop  offset="0" style="stop-color:#FFFFFF;stop-opacity:0"/>
	<stop  offset="3.479528e-02" style="stop-color:#D9E6F5;stop-opacity:3.479528e-02"/>
	<stop  offset="7.888508e-02" style="stop-color:#B0CBEA;stop-opacity:7.888508e-02"/>
	<stop  offset="0.1284" style="stop-color:#8AB2DF;stop-opacity:0.1284"/>
	<stop  offset="0.1824" style="stop-color:#6A9CD6;stop-opacity:0.1824"/>
	<stop  offset="0.242" style="stop-color:#4E8ACF;stop-opacity:0.242"/>
	<stop  offset="0.3094" style="stop-color:#387CC9;stop-opacity:0.3094"/>
	<stop  offset="0.388" style="stop-color:#2771C5;stop-opacity:0.388"/>
	<stop  offset="0.4852" style="stop-color:#1C69C1;stop-opacity:0.4852"/>
	<stop  offset="0.6215" style="stop-color:#1564C0;stop-opacity:0.6215"/>
	<stop  offset="1" style="stop-color:#1363BF"/>
</linearGradient>
<path class="st0" d="M115.5,1900l10.4,15.8c20.2,30.6,6.8,39.8-13,11.6c-3.7-5.3-7.4-10.7-11-16c-4.6,0.4-15.7,1.8-27.4,3.2
	c-18.5,2.3-38.7,4.8-39.1,4.2c-0.2-0.5-0.4-0.9-0.6-1.4c-0.3-0.7-0.6-1.5-1.3-2.9c8.7-5.8,17.5-11.4,26.3-17c7.7-5,15.5-9.9,23.2-15
	c-5.1-7.8-32.1-74.8-34.6-81.3h0c-20.5-49.6-35.1-106.8-42.4-166.1c-13.9-112.1-2.2-232,44.1-322.9
	c83.5-164,127.5-260.9,137.5-352.4c10-91.4-14-177.4-67-319.9C80.3,531.6,54.1,398.6,45.4,279.3c-4.4-59.7-4.4-115.9,0.3-164
	C50.4,67.3,75.9,0.9,75.9,0.9S53.4,67.7,48.7,115.6C44,163.4,44,219.5,48.4,279.1c8.7,119.1,34.8,251.8,75.1,359.9
	c53,142.5,77.3,229.2,67.2,321.3c-10,92.1-54.3,189.4-137.8,353.4c-45.9,90.1-57.7,209.4-43.8,321.1c8.1,65.3,25,127.8,48.8,180.4
	c9.6,18.6,25.7,47.1,38.9,56.3c6.1-7.1,12.1-14.3,18.2-21.5c7-8.3,14-16.7,21.1-24.9c1,1.2,1.6,1.8,2.1,2.3c0.3,0.3,0.6,0.6,1,1
	c0.4,0.5-7,22.7-13.8,42.7C121.1,1883.2,117.2,1894.7,115.5,1900z"/>
</svg>
