<svg width="24" height="18" viewBox="0 0 24 18" fill="none" xmlns="http://www.w3.org/2000/svg">
<g clip-path="url(#clip0_527_8789)">
<path fill-rule="evenodd" clip-rule="evenodd" d="M0 0H27V18H0V0Z" fill="#DE2110"/>
<path fill-rule="evenodd" clip-rule="evenodd" d="M0 0H13.5594V9H0V0Z" fill="#08399C"/>
<path fill-rule="evenodd" clip-rule="evenodd" d="M9.91764 6.27722L8.25363 5.93504L8.60811 7.59653L7.33781 6.46843L6.81384 8.08457L6.27792 6.47206L5.0163 7.60996L5.35847 5.94594L3.69699 6.30007L4.82508 5.03012L3.20898 4.50615L4.82107 3.97023L3.68356 2.70847L5.34758 3.05054L4.99345 1.38899L6.2634 2.51726L6.78737 0.901123L7.32329 2.51335L8.58491 1.3757L8.24273 3.03982L9.90421 2.68544L8.77612 3.95571L10.3923 4.47929L8.78013 5.01521L9.91764 6.27722Z" fill="white"/>
<path fill-rule="evenodd" clip-rule="evenodd" d="M8.38391 6.14972L7.85885 6.42858L7.34662 6.7312L6.75185 6.7107L6.15704 6.71767L5.6522 6.40333L5.13332 6.11242L4.85373 5.58838L4.55029 5.07791L4.57047 4.48468L4.56386 3.89114L4.87904 3.3877L5.17077 2.87034L5.69583 2.59141L6.20805 2.28882L6.80286 2.30921L7.39799 2.30242L7.9029 2.61672L8.42135 2.90764L8.70095 3.4315L9.00442 3.94197L8.98424 4.5352L8.99081 5.12874L8.67564 5.63229L8.38391 6.14972Z" fill="#005387"/>
<path fill-rule="evenodd" clip-rule="evenodd" d="M8.60048 4.5099C8.60048 5.51699 7.78408 6.33335 6.77706 6.33335C5.77005 6.33335 4.95361 5.51699 4.95361 4.50994C4.95361 3.50289 5.77001 2.68652 6.77706 2.68652C7.78412 2.68652 8.60048 3.50289 8.60048 4.50994V4.5099Z" fill="white"/>
</g>
<defs>
<clipPath id="clip0_527_8789">
<rect width="24" height="18" fill="white"/>
</clipPath>
</defs>
</svg>
