<svg width="193" height="1945" viewBox="0 0 193 1945" fill="none" xmlns="http://www.w3.org/2000/svg">
<path fill-rule="evenodd" clip-rule="evenodd" d="M115.549 1900.03L125.977 1915.85C146.173 1946.47 132.827 1955.67 113.017 1927.44C109.292 1922.13 105.634 1916.78 102.015 1911.39C97.3682 1911.79 86.3588 1913.16 74.6089 1914.62C56.1562 1916.92 35.8773 1919.44 35.5486 1918.8C35.2995 1918.32 35.1264 1917.91 34.9237 1917.42C34.6369 1916.73 34.2907 1915.9 33.5862 1914.54C42.3173 1908.75 51.1062 1903.13 59.8952 1897.51C67.6425 1892.55 75.3898 1887.6 83.0977 1882.53C78.0311 1874.69 51.0029 1807.76 48.5082 1801.24L48.5095 1801.24C28.0074 1751.67 13.4436 1694.49 6.07864 1635.18C-7.83924 1523.12 3.90817 1403.17 50.164 1312.32C133.691 1148.27 177.67 1051.39 187.635 959.962C197.592 868.601 173.597 782.528 120.595 640.023C80.2646 531.588 54.1156 398.571 45.3627 279.275C40.986 219.623 40.9563 163.368 45.6889 115.306C50.4183 67.2774 59.9154 27.2937 74.6844 0.280352L77.3167 1.71949C62.8356 28.2062 53.3897 67.7151 48.6745 115.6C43.9627 163.45 43.987 219.527 48.3547 279.056C57.0906 398.12 83.1916 530.852 123.406 638.977C176.404 781.471 200.659 868.148 190.617 960.287C180.582 1052.36 136.311 1149.73 52.8375 1313.68C6.93768 1403.83 -4.81513 1523.13 9.05576 1634.82C17.1626 1700.09 34.0076 1762.65 57.822 1815.19C67.3786 1833.8 83.4836 1862.3 96.7019 1871.45C102.81 1864.34 108.836 1857.15 114.862 1849.96C121.863 1841.62 128.863 1833.27 135.992 1825.03C136.948 1826.18 137.549 1826.78 138.046 1827.29C138.395 1827.64 138.693 1827.94 139.028 1828.34C139.478 1828.88 131.998 1850.99 125.213 1871.05C121.089 1883.24 117.223 1894.66 115.549 1900.03Z" fill="#1363BF"/>
</svg>
