<svg width="22" height="29" viewBox="0 0 22 29" fill="none" xmlns="http://www.w3.org/2000/svg">
<g clip-path="url(#clip0_756_4643)">
<path fill-rule="evenodd" clip-rule="evenodd" d="M10.3986 27.6183C10.942 27.6183 20.6512 17.0559 20.6512 11.2906C20.6512 5.52527 16.0609 0.851562 10.3986 0.851562C4.73624 0.851562 0.145996 5.52527 0.145996 11.2906C0.145996 17.0559 9.85523 27.6183 10.3986 27.6183ZM10.3986 16.5118C13.2694 16.5118 15.5967 14.1422 15.5967 11.2192C15.5967 8.29618 13.2694 5.9266 10.3986 5.9266C7.5278 5.9266 5.20055 8.29618 5.20055 11.2192C5.20055 14.1422 7.5278 16.5118 10.3986 16.5118Z" fill="#828282"/>
<path fill-rule="evenodd" clip-rule="evenodd" d="M0.145996 11.2906C0.145996 17.0559 9.85522 27.6183 10.3986 27.6183V16.5118C7.52779 16.5117 5.20055 14.1422 5.20055 11.2192C5.20055 8.29619 7.52779 5.92662 10.3986 5.9266V0.851562C4.73624 0.851562 0.145996 5.52527 0.145996 11.2906Z" fill="#BDBDBD"/>
</g>
<defs>
<clipPath id="clip0_756_4643">
<rect width="22" height="28" fill="white" transform="translate(0 0.578613)"/>
</clipPath>
</defs>
</svg>
