<svg width="22" height="29" viewBox="0 0 22 29" fill="none" xmlns="http://www.w3.org/2000/svg">
<g clip-path="url(#clip0_756_3393)">
<path fill-rule="evenodd" clip-rule="evenodd" d="M10.3986 27.6024C10.942 27.6024 20.6512 17.04 20.6512 11.2747C20.6512 5.5094 16.0609 0.835693 10.3986 0.835693C4.73624 0.835693 0.145996 5.5094 0.145996 11.2747C0.145996 17.04 9.85523 27.6024 10.3986 27.6024ZM10.3986 16.496C13.2694 16.496 15.5967 14.1263 15.5967 11.2033C15.5967 8.28031 13.2694 5.91074 10.3986 5.91074C7.5278 5.91074 5.20055 8.28031 5.20055 11.2033C5.20055 14.1263 7.5278 16.496 10.3986 16.496Z" fill="#1DAEEF"/>
<path fill-rule="evenodd" clip-rule="evenodd" d="M0.145996 11.2747C0.145996 17.04 9.85522 27.6024 10.3986 27.6024V16.496C7.52779 16.4958 5.20055 14.1263 5.20055 11.2033C5.20055 8.28032 7.52779 5.91075 10.3986 5.91074V0.835693C4.73624 0.835693 0.145996 5.5094 0.145996 11.2747Z" fill="#3EC3FF"/>
</g>
<defs>
<clipPath id="clip0_756_3393">
<rect width="22" height="28" fill="white" transform="translate(0 0.562744)"/>
</clipPath>
</defs>
</svg>
