<svg width="156" height="44" viewBox="0 0 156 44" fill="none" xmlns="http://www.w3.org/2000/svg">
<path d="M45.5487 19.4412C46.4093 18.8194 47.8341 18.7 48.8718 18.7C51.8944 18.7 52.6933 21.2489 53.4345 25.9352C54.1224 29.8439 55.4556 33.6111 57.3795 37.0824C55.7776 38.2395 54.7111 38.7296 53.7928 38.7296C51.6556 38.7296 51.0626 37.2142 49.9096 33.718C49.0861 34.1229 48.1901 34.3595 47.2741 34.414C46.1746 34.414 44.3668 34.2987 43.2715 34.2987C41.6696 37.6754 40.6895 38.7749 37.7534 38.7749C36.6869 38.7749 36.2998 38.5648 36.2998 38.0336C36.2998 37.7083 36.6869 37.0536 37.9017 35.394C38.2014 35.0168 38.4765 34.6207 38.7253 34.2081C37.7164 34.031 37.214 33.6727 37.214 33.1415C37.214 32.7297 37.6587 32.042 38.4288 31.2432C39.1988 30.4443 39.5571 30.3249 41.2454 30.2919C43.3044 26.4993 43.885 25.4616 46.434 21.0431L45.5487 19.4412ZM47.6859 24.8398L45.0133 30.4731H48.9583L47.6859 24.8398Z" fill="#1363BF"/>
<path d="M64.3326 22.2574C64.0361 22.2862 62.879 22.4345 62.6113 22.4345C62.0801 22.4345 61.8989 22.2574 61.8989 21.7262C61.9337 21.2312 62.1322 20.7618 62.4631 20.392C63.1466 19.7372 65.6092 19.2925 68.3641 19.2925C72.8732 19.2925 76.4887 21.8415 76.4887 25.0164C76.5036 25.8651 76.3261 26.7061 75.9695 27.4763C75.6129 28.2465 75.0865 28.926 74.4298 29.4638C73.6122 30.1704 72.636 30.6691 71.5843 30.9174C72.8197 33.0505 74.3145 33.6723 76.8017 34.71C75.9122 38.5973 74.2239 38.9227 73.425 38.9227C72.4449 38.9227 70.9007 38.0991 70.073 37.2014C68.2323 35.1877 67.0175 31.8069 67.0175 31.0245C67.0175 30.6127 67.1657 30.4603 67.8411 30.2009C71.1025 29.0149 71.5143 25.8112 71.5143 24.8064C71.5143 23.0851 70.773 22.1668 69.0435 21.7797C67.8081 26.3094 67.3963 27.1783 66.5728 30.3203L66.2474 31.5557C65.3291 35.0271 64.6744 36.5384 64.0238 37.189C63.2825 37.9302 61.5901 38.6715 60.7294 38.6715C59.9594 38.6715 59.5435 38.1979 59.5435 37.3373C59.5435 35.6489 61.5324 29.2126 63.9043 23.3363L64.3326 22.2574Z" fill="#1363BF"/>
<path d="M87.4881 29.8814C86.4792 33.9705 86.0962 35.7494 85.5032 36.7583C84.9679 37.6766 82.806 38.8173 81.7683 38.8173C81.5363 38.8125 81.3075 38.7618 81.0952 38.6682C80.8829 38.5746 80.6912 38.4399 80.5312 38.2718C80.3712 38.1038 80.246 37.9057 80.1629 37.6891C80.0798 37.4724 80.0404 37.2415 80.047 37.0095C80.047 35.733 81.1753 30.8326 84.5231 23.4204C83.2178 23.5686 81.7971 23.688 80.8458 23.688C79.7216 23.688 79.0669 23.2145 79.0669 22.4526C79.0669 21.9503 79.4787 21.2173 80.224 20.439C81.3194 19.3107 82.003 18.9854 83.2795 18.9854C84.0784 18.9854 85.6803 19.1336 87.4304 19.1912L88.291 19.2242C90.6918 19.3107 91.9354 19.4589 91.9354 20.7025C91.9218 21.3064 91.7024 21.8875 91.3136 22.3497C90.9306 22.7327 90.453 22.8233 88.674 23.1198C88.782 23.2178 88.8693 23.3364 88.9308 23.4686C88.9923 23.6009 89.0268 23.7441 89.0323 23.8898C89.0323 24.1575 88.1428 27.1842 87.9946 27.806L87.7681 28.6625L87.6198 29.2884L87.4881 29.8814Z" fill="#1363BF"/>
<path d="M105.256 26.556C105.576 25.5393 105.973 24.5482 106.442 23.5911C107.747 20.8032 110.474 19.4114 111.305 19.4114C111.659 19.4114 111.869 19.5596 111.869 19.8561C111.869 21.0709 106.59 31.7446 104.128 35.7184C100.66 41.2899 98.5233 42.5253 96.9543 43.1924C96.0363 43.5949 95.0491 43.8158 94.0471 43.843C93.0382 43.843 92.3999 43.4601 92.3999 42.8053C92.3999 42.1506 93.2894 40.2851 94.0018 39.5439C94.2365 39.3051 94.533 39.2186 95.2742 39.2186C96.0978 39.2186 97.2344 39.2186 99.2192 37.9132C97.9201 35.7529 96.8176 33.4803 95.9249 31.1228C94.916 28.2773 94.2324 24.8388 94.2324 22.5245C94.2324 21.1903 94.5 20.5973 95.2701 20.0949C96.3984 19.3825 98.0003 18.7896 98.8609 18.7896C99.6022 18.7896 99.8081 19.2013 99.8698 20.8938C100.047 24.7482 100.759 30.3239 102.032 33.9394C103.242 31.5395 104.318 29.0746 105.256 26.556V26.556Z" fill="#1363BF"/>
<path d="M123.637 30.5019C125.98 25.3421 127.668 21.8542 128.619 20.4788C128.974 19.9476 129.686 18.9058 132.713 18.9058C133.808 18.9058 133.985 19.0252 133.985 19.7088C133.985 19.8858 133.985 20.0958 133.956 20.5323C133.899 21.8336 133.866 23.0525 133.866 24.2385C133.866 28.6241 134.401 33.0426 136.864 35.3857C137.189 35.711 137.308 35.9211 137.308 36.0981C137.308 36.7199 135.661 38.5689 133.985 38.5689C133.357 38.5486 132.739 38.4018 132.169 38.1371C131.598 37.8725 131.087 37.4955 130.666 37.0288C129.184 35.4887 128.677 33.7962 128.529 29.6453C128.522 28.7937 128.472 27.943 128.381 27.0963C126.812 30.0612 126.219 31.2472 124.942 33.7962C123.847 36.0487 123.134 37.4447 122.776 37.9141C122.626 38.1416 122.425 38.3301 122.188 38.464C121.951 38.5979 121.685 38.6734 121.413 38.6842C120.614 38.6842 119.515 37.527 118.806 35.9581C117.736 33.5862 117.159 30.7695 116.789 25.7868C115.986 27.434 115.722 27.9817 114.89 29.8471C113.35 33.2279 112.547 34.8586 111.719 36.024C111.509 36.3772 111.248 36.6977 110.945 36.9752C109.94 37.984 108.602 38.5941 107.181 38.6924C106.646 38.6924 106.292 38.4248 106.292 38.0706C106.292 37.9224 106.378 37.7453 106.675 37.42C107.022 36.9974 107.34 36.5517 107.626 36.0858L108.45 34.7804C108.981 33.9197 109.99 32.1984 110.818 30.6295L111.501 29.3241C114.384 23.8102 115.652 21.29 115.652 20.9606C115.652 20.7547 115.533 20.5488 115.207 20.2812C114.973 20.0711 114.882 19.9558 114.882 19.8035C114.882 19.3587 116.187 18.914 117.55 18.914C118.765 18.914 119.836 19.2434 120.367 19.8035C121.079 20.5776 121.582 22.5337 122.237 26.6845C122.768 30.2424 122.858 30.6007 123.332 31.1607L123.637 30.5019Z" fill="#1363BF"/>
<path d="M144.985 32.3726C144.865 34.3575 146.051 35.5146 146.941 35.5146C147.949 35.5146 150.025 34.7116 152.368 33.3486L152.87 33.0521C153.2 32.875 153.435 32.7268 153.583 32.6403C153.91 32.4046 154.269 32.2161 154.649 32.0803C154.831 32.0803 154.917 32.2285 154.917 32.5538C154.917 33.6204 154.238 35.3993 153.682 35.9347C152.347 37.1206 147.632 39.0149 145.495 39.0149C141.435 39.0149 138.408 36.4082 138.408 32.8792C138.408 30.0337 140.335 26.1175 143.094 23.272C145.586 20.723 148.818 18.9729 151.071 18.9729C153.472 18.9729 155.432 20.546 155.432 22.4731C155.432 26.3852 150.951 27.8265 149.531 27.8265C148.967 27.8265 148.67 27.6782 148.67 27.4147C148.67 27.2376 148.79 27.0276 149.144 26.6734C150.98 24.7751 151.31 21.8719 151.31 21.5425C151.31 21.2131 151.19 21.0113 151.013 21.0113C150.153 21.0113 145.94 24.1821 145.248 28.4524H152.986C153.846 28.4524 154.262 28.6583 154.262 29.1071C154.262 29.6672 152.244 32.3685 150.26 32.3685L144.985 32.3726Z" fill="#1363BF"/>
<g clip-path="url(#clip0_527_8966)">
<path d="M17.527 28.5499L14.973 27.7839C14.349 30.7319 12.791 32.7839 10.521 32.3499C9.90615 32.2088 9.33795 31.912 8.87097 31.4879V31.4679V31.4879C6.33297 39.4559 6.29297 40.0399 6.29297 41.7499C6.29297 43.1079 7.12097 43.9939 8.47897 43.9939C9.54097 43.9939 14.793 43.0499 17.037 39.0939C17.975 37.4519 18.681 35.4019 19.675 31.4359C19.703 29.2519 17.527 28.5499 17.527 28.5499Z" fill="url(#paint0_linear_527_8966)"/>
<path d="M15.0529 27.8001L14.5529 27.6001C14.3604 27.5413 14.2063 27.7039 14.1529 27.9001C13.3665 30.7911 11.8061 32.3794 8.95294 31.4001C8.9046 31.3835 8.79805 31.5595 8.95294 31.7001C9.41992 32.1242 9.94023 32.231 10.5551 32.3721C12.791 32.7841 14.4329 30.7381 15.0529 27.8001Z" fill="#11537C"/>
<path d="M22.7751 17.988C18.5751 17.928 15.9371 18.14 14.0111 18.588C13.6742 18.6621 13.3625 18.8229 13.1068 19.0544C12.8511 19.2859 12.6602 19.5801 12.5531 19.908L8.87109 31.474V31.494C9.13709 31.636 10.5651 32.324 12.0151 31.538L12.1491 31.458L12.1911 31.43L12.2811 31.366L12.3251 31.334L12.4171 31.26L12.4511 31.23C12.4911 31.196 12.5311 31.158 12.5711 31.12L12.5891 31.1C12.6231 31.068 12.6551 31.036 12.6851 31.002L12.7231 30.96C12.7491 30.932 12.7751 30.904 12.7991 30.874L12.8351 30.83L12.9191 30.726C12.9258 30.7162 12.9331 30.7068 12.9411 30.698L13.0411 30.56L13.0671 30.524L13.1391 30.416C13.1391 30.398 13.1611 30.382 13.1711 30.366L13.2351 30.264L13.2631 30.216C13.2891 30.172 13.3151 30.128 13.3391 30.084L13.3511 30.066L13.4331 29.914L13.4551 29.87L13.5131 29.76C13.5131 29.742 13.5291 29.724 13.5391 29.706C13.5491 29.688 13.5731 29.634 13.5911 29.598C13.5976 29.5823 13.605 29.5669 13.6131 29.552C13.6351 29.5 13.6591 29.45 13.6811 29.4V29.388L13.7411 29.248L13.7591 29.2C13.7751 29.164 13.7891 29.13 13.8031 29.094C13.8089 29.0777 13.8156 29.0616 13.8231 29.046L13.8651 28.934L13.8791 28.898L13.9311 28.756C13.9335 28.747 13.9369 28.7383 13.9411 28.73C13.9531 28.692 13.9671 28.654 13.9791 28.618C13.9911 28.582 13.9891 28.59 13.9951 28.574L14.0251 28.482C14.0251 28.468 14.0351 28.454 14.0391 28.44C14.0431 28.426 14.0611 28.372 14.0711 28.34C14.07 28.3327 14.07 28.3253 14.0711 28.318L14.1071 28.2C14.1071 28.19 14.1071 28.18 14.1071 28.17L14.1311 28.09L14.1411 28.056C14.1411 28.032 14.1551 28.008 14.1611 27.986V27.956V27.944C14.174 27.8967 14.1962 27.8525 14.2265 27.814C14.2567 27.7754 14.2944 27.7434 14.3373 27.7197C14.3802 27.696 14.4275 27.6811 14.4762 27.676C14.525 27.6709 14.5742 27.6757 14.6211 27.69L14.9391 27.784L17.4931 28.55C17.4931 28.55 19.6691 29.252 19.6411 31.442L21.5531 24.888L23.2691 18.646C23.2915 18.5693 23.2957 18.4885 23.2814 18.41C23.2671 18.3314 23.2347 18.2573 23.1867 18.1934C23.1388 18.1295 23.0766 18.0777 23.0052 18.0421C22.9337 18.0064 22.8549 17.9879 22.7751 17.988Z" fill="url(#paint1_linear_527_8966)"/>
<path d="M23.251 4.336C18.315 4.402 12.523 6.364 12.139 6.664C11.327 3.736 11.017 2.952 10.199 0C9.73503 0.268 9.34703 0.514 8.93903 0.718C8.81607 0.770278 8.71195 0.858746 8.6405 0.97164C8.56905 1.08453 8.53365 1.2165 8.53903 1.35C8.31303 4.128 7.95503 7.15 7.73903 9.01C7.7346 9.13548 7.69641 9.25745 7.62848 9.36304C7.56054 9.46864 7.46538 9.55395 7.35303 9.61C5.56503 10.73 3.77103 11.84 2.01903 13.01C1.38408 13.4747 0.788102 13.9904 0.237026 14.552C0.120123 14.645 0.0402026 14.7766 0.0116111 14.9233C-0.0169803 15.0699 0.00763065 15.2219 0.0810264 15.352C0.157407 15.4846 0.278004 15.5861 0.421703 15.6388C0.565403 15.6915 0.723045 15.6919 0.867027 15.64C1.37752 15.541 1.87624 15.3889 2.35503 15.186C4.26103 14.258 6.17903 13.346 8.02503 12.308C8.82503 11.856 9.31703 11.948 10.087 12.264C11.333 12.778 16.113 14.948 16.519 15.12C16.629 15.168 16.795 15.252 16.879 15.208C17.391 14.94 17.879 14.638 18.425 14.33C18.069 13.986 14.987 10.674 14.677 10.354C16.545 9.642 20.725 9.022 25.651 9.6C31.251 10.258 32.973 14.76 32.973 17.77C32.973 23.2 26.989 27.306 24.037 29.136C21.913 30.494 20.685 30.71 20.821 31.56C20.909 32.116 23.147 31.922 24.907 31.62C28.507 31.002 40.307 26.114 40.307 16.248C40.309 6.152 31.291 4.226 23.251 4.336Z" fill="url(#paint2_linear_527_8966)"/>
</g>
<defs>
<linearGradient id="paint0_linear_527_8966" x1="17.6298" y1="22.9171" x2="-1.93423" y2="34.9659" gradientUnits="userSpaceOnUse">
<stop offset="0.39" stop-color="#1159AD"/>
<stop offset="0.77" stop-color="#187EF2"/>
<stop offset="1" stop-color="#1466C5"/>
</linearGradient>
<linearGradient id="paint1_linear_527_8966" x1="-2.55331" y1="25.0188" x2="86.0483" y2="-18.9444" gradientUnits="userSpaceOnUse">
<stop offset="0.2" stop-color="#187EF2"/>
<stop offset="0.5" stop-color="#1363BF"/>
<stop offset="1" stop-color="#1466C5"/>
</linearGradient>
<linearGradient id="paint2_linear_527_8966" x1="30.1202" y1="-4.4716" x2="-0.597374" y2="21.2108" gradientUnits="userSpaceOnUse">
<stop offset="0.12" stop-color="#187EF2"/>
<stop offset="0.63" stop-color="#1363BF"/>
<stop offset="1" stop-color="#1466C5"/>
</linearGradient>
<clipPath id="clip0_527_8966">
<rect width="40.7" height="44" fill="white"/>
</clipPath>
</defs>
</svg>
