<svg width="1110" height="409" viewBox="0 0 1110 409" fill="none" xmlns="http://www.w3.org/2000/svg">
<path opacity="0.12" fill-rule="evenodd" clip-rule="evenodd" d="M518.696 119.529C515.124 122.04 511.909 125.258 511.775 129.047C511.72 130.591 512.199 131.633 512.594 132.493C513.059 133.504 513.408 134.264 512.642 135.295C511.007 137.494 506.598 137.822 502.384 138.137C498.511 138.425 494.803 138.702 493.562 140.407C491.342 143.458 497.856 149.956 503.969 150.063C506.374 150.105 507.709 149.14 510.05 147.448C511.931 146.09 514.46 144.262 518.713 142.111C523.266 139.841 528.215 137.934 533.456 136.431C534.23 136.164 535.014 135.909 535.805 135.666C538.352 137.203 541.178 138.5 544.02 139.804C547.47 141.387 550.944 142.981 553.975 145.03C558.618 148.52 564.39 151.286 570.871 153.125C575.855 154.478 578.028 149.156 573.102 147.819C567.374 146.263 563.412 143.523 559.418 140.76L559.418 140.76C556.88 139.004 554.329 137.239 551.303 135.764C549.612 134.956 547.975 134.106 546.395 133.214C548.416 132.888 550.465 132.634 552.535 132.454C560.508 131.911 568.561 132.693 575.951 134.727C581.282 136.224 584.419 137.915 586.883 139.244C589.717 140.773 591.661 141.821 595.03 141.543C600.227 141.114 603.989 137.925 609.772 133.023L609.773 133.022C612.582 130.642 613.873 129.095 614.819 127.961C615.897 126.669 616.528 125.913 618.446 125.07C625.71 121.879 638.44 123.157 646.197 127.911C653.516 132.396 656.975 140.323 653.135 142.679C650.875 144.066 646.868 143.039 642.349 141.881C637.023 140.516 630.984 138.968 626.251 140.975C623.755 142.179 621.964 143.906 621.175 145.87C620.386 147.833 620.647 149.914 621.914 151.767C623.737 153.676 626.878 153.777 630.34 153.889C633.596 153.994 637.134 154.108 640.127 155.743C644.864 158.331 644.399 162.636 643.806 168.108C643.29 172.877 642.678 178.533 645.33 184.711C648.075 190.755 653.153 196.232 660.074 200.616C665.318 203.735 672.073 205.545 679.153 205.728C691.529 205.817 699.644 200.02 705.17 196.071C710.647 192.159 717.283 185.648 714.71 183.575C713.91 182.932 712.642 183.054 710.496 183.262C708.776 183.429 706.493 183.65 703.436 183.575C696.054 183.533 688.954 181.714 683.489 178.463C679.037 175.415 675.686 170.202 678.285 168.239C681.374 165.906 691.906 168.889 695.629 169.943L695.63 169.943C700.964 171.454 703.251 172.772 705.28 173.942C707.096 174.989 708.706 175.918 712.108 176.759C718.466 178.332 723.833 177.809 728.392 177.365C732.968 176.919 736.729 176.553 739.86 178.463C741.895 179.705 742.254 181.049 742.625 182.438C743.022 183.925 743.433 185.464 745.931 186.983C748.828 188.746 751.805 188.823 754.714 188.899C757.375 188.968 759.978 189.035 762.408 190.391C765.362 192.039 765.502 194.162 765.729 197.617C765.899 200.208 766.118 203.548 767.612 208C767.792 208.539 771.935 220.649 776.284 220.496C779.116 220.396 781.187 215.012 782.354 211.977L782.355 211.976C783.619 208.689 783.694 206.86 783.753 205.398C783.811 203.98 783.855 202.907 784.956 201.184C786.779 198.33 791.664 195.873 801.434 190.96C810.515 186.393 813.125 185.952 815.31 185.847C820.007 185.824 824.582 186.823 828.318 188.687C832.396 190.372 834.287 191.91 841.925 198.124L842.195 198.344C850.36 204.986 852.568 206.763 856.07 209.136C863.136 213.924 866.753 216.311 870.814 215.952C873.494 215.47 875.867 214.437 877.584 213.005C879.302 211.574 880.272 209.819 880.353 208C880.409 205.993 879.072 204.832 876.964 203.002C875.295 201.552 873.141 199.682 870.814 196.639L870.811 196.637C868.381 193.459 864.868 188.866 867.345 186.983C868.484 186.117 870.279 186.29 873.176 186.57C874.872 186.734 876.945 186.934 879.486 186.983C887.69 187.036 895.77 185.664 902.902 183.007C909.395 180.749 915.248 178.714 917.645 174.487C920.944 168.671 915.72 162.2 914.176 160.287L914.176 160.287C912.355 158.032 910.459 156.567 908.903 155.365C906.797 153.738 905.317 152.594 905.503 150.631C905.777 149.065 906.743 147.585 908.284 146.374C909.825 145.163 911.873 144.273 914.176 143.815C916.858 143.373 918.744 143.953 920.969 144.637C923.191 145.321 925.753 146.109 929.786 146.087C933.825 146.169 937.791 145.37 941.06 143.815C942.328 143.146 943.195 142.438 943.838 141.708C944.737 144.222 945.384 146.705 946.008 149.098C947.22 153.743 948.343 158.049 951.043 161.585C953.437 164.759 957.5 155 957.5 155L954.842 132.846C955.02 132.834 955.203 132.822 955.389 132.809C957.042 132.699 959.031 132.567 961.874 131.886C966.065 130.9 969.87 129.32 973.019 127.258C976.167 125.196 978.581 122.703 980.086 119.959C980.989 118.087 981.301 116.115 981.003 114.162C980.705 112.208 979.803 110.316 978.352 108.598C975.591 105.855 971.645 104.863 968.4 104.048C965.534 103.328 963.215 102.745 962.741 101.214C961.465 97.0839 975.477 92.0274 978.351 90.9902L978.352 90.9898C983.891 88.7869 990.115 87.4281 996.564 87.0139C1004.51 86.6081 1009.97 88.0104 1014.43 89.1564C1018.8 90.2768 1022.21 91.1522 1026.05 89.8539C1029.66 88.6336 1030.95 86.4091 1032.22 84.2084C1033.58 81.8602 1034.92 79.5392 1039.06 78.4939C1043.56 77.3574 1048.17 78.5357 1054.67 80.1976L1054.67 80.1978C1060.64 81.7232 1063.6 83.2477 1066.06 84.5077C1068.18 85.5984 1069.92 86.4909 1072.88 87.0139C1083.51 88.8909 1097.31 83.7875 1104.1 76.7896C1111.22 69.4469 1112.35 58.2351 1104.97 54.6374C1102.15 53.2641 1099.39 53.6322 1094.05 54.3439C1090.61 54.8025 1086.1 55.4038 1079.82 55.7736C1068.52 56.3176 1057.15 55.9359 1046 54.6374C1037.96 53.6549 1034.15 52.5688 1030.11 51.4155C1026.11 50.2718 1021.87 49.0619 1013.04 47.8212C1002.34 45.822 991.135 45.2428 980.086 46.1173C973.603 46.7917 969.504 47.8936 966.114 48.8052C961.811 49.9618 958.649 50.812 953.202 50.0935C948.561 49.4814 946.063 48.2322 943.475 46.9379C940.61 45.5051 937.635 44.0172 931.521 43.2774C927.69 42.8139 925.251 42.9614 922.813 43.1088C920.036 43.2766 917.263 43.4442 912.441 42.7094C907.658 41.9804 905.351 41.0478 903.416 40.2656C901.521 39.5 899.984 38.8786 896.831 38.7332C890.793 38.4548 886.196 40.2621 882.383 41.7609C878.907 43.1272 876.084 44.2372 873.415 43.2774C871.884 42.4874 870.739 41.4208 870.122 40.2095C869.506 38.9982 869.445 37.6952 869.946 36.4613C871.416 32.2693 879.33 29.9015 884.234 28.4341C886.662 27.7078 888.352 27.2021 888.159 26.805C888.021 26.5226 887.083 26.6058 885.627 26.735C883.163 26.9536 879.215 27.3038 875.15 26.2369C871.698 25.331 869.901 23.8595 868.413 22.6413C867.004 21.4877 865.872 20.5612 863.876 20.5571C861.456 20.5522 860.145 21.9075 858.551 23.5552C856.86 25.3022 854.852 27.378 850.867 28.5092C847.621 29.4306 845.356 29.0744 842.814 28.6746C840.355 28.288 837.638 27.8606 833.522 28.5092C831.377 28.8472 830.619 29.1991 823.426 32.5393L823.426 32.5396C821.513 33.4277 819.146 34.5269 816.177 35.8933C806.729 40.241 805.112 40.8856 802.301 41.0052C798.24 41.1778 795.023 40.1124 792.63 39.3198C790.692 38.678 789.294 38.2151 788.426 38.7332C786.756 39.7294 788.5 43.4848 791.894 46.1173C794.721 48.3091 798.077 49.2461 800.389 49.8916C802.093 50.3673 803.23 50.6847 803.169 51.2295C803.017 52.5819 795.587 54.4398 789.293 52.9335C786.559 52.2792 785.228 51.2747 783.927 50.2931C782.65 49.3295 781.403 48.3879 778.886 47.8213C773.269 46.5569 766.049 48.2214 763.892 50.2486C763.619 49.7843 763.257 49.3407 762.81 48.9289C760.266 47.0104 755.47 47.1678 751.438 47.3001C750.426 47.3333 749.463 47.3649 748.595 47.3617C747.508 47.3865 746.477 47.6871 745.721 48.2004C744.965 48.7137 744.543 49.3995 744.543 50.1132C744.543 50.8269 744.965 51.5126 745.721 52.0259C746.477 52.5392 747.508 52.8398 748.595 52.8646L753.795 52.8834L754.2 52.8846L754.661 52.8856C755.043 52.8864 755.425 52.8871 755.807 52.889C755.825 53.2945 755.899 53.7517 755.963 54.1451C756.016 54.474 756.062 54.7582 756.062 54.9302L756.068 58.9524C756.106 59.6656 756.564 60.3414 757.347 60.8372C758.129 61.333 759.175 61.6102 760.263 61.6102C761.351 61.6102 762.397 61.333 763.179 60.8372C763.962 60.3414 764.42 59.6656 764.458 58.9524C764.457 58.3008 764.458 57.6491 764.459 56.9974V56.9809C764.46 55.6879 764.462 54.3948 764.449 53.102C764.459 53.0431 764.468 52.9841 764.476 52.9252C765.142 53.3355 766.016 53.7223 766.932 54.1273C769.175 55.119 771.665 56.2202 771.948 58.0457C772.537 61.8511 763.28 67.1654 755.47 66.5657C752.458 66.3343 750.953 65.3223 748.253 63.5077C746.223 62.1437 743.519 60.3261 738.992 58.0457L738.992 58.0452L738.991 58.0449C734.861 55.9639 725.779 51.3883 722.515 52.9335C721.218 53.5474 721.479 54.8255 721.771 56.2569C722.095 57.843 722.457 59.6175 720.78 60.8855C718.791 62.3905 715.415 62.0581 710.393 61.5634C707.695 61.2977 704.522 60.9853 700.834 60.8855C691.33 60.8045 681.896 61.9631 673.082 64.2937C665.277 66.6861 657.987 69.7418 651.401 73.3818C649.276 74.4512 647.376 75.4628 645.678 76.3672C640.366 79.1955 637.023 80.9757 634.923 80.1979C633.841 79.7969 633.744 78.9586 633.604 77.7442C633.445 76.3659 633.23 74.5032 631.454 72.2458C630.221 70.6774 628.946 69.8241 627.967 69.1687C626.928 68.4735 626.222 68.001 626.251 67.1337C626.317 65.1244 630.233 63.8324 633.888 62.6266C637.129 61.5571 640.165 60.5555 640.127 59.1816C640.068 57.0497 632.652 55.5232 625.384 54.0694L625.381 54.0688C612.769 51.5462 606.462 50.2849 598.499 51.2295C590.322 52.1996 585.242 54.9055 575.084 60.3176C567.724 64.3916 561.039 68.9608 555.137 73.9498C544.428 82.3005 539.1 86.5324 540.394 89.2859C542.917 94.6535 560.352 97.61 567.278 93.8301C569.464 92.6373 569.715 91.2584 570.076 89.2725C570.429 87.3347 570.886 84.8189 573.349 81.3339C576.425 77.1553 580.866 73.4709 586.358 70.5418C590.181 68.3491 598.258 64.3114 600.234 65.4297C601.001 65.8642 600.741 67.0166 595.898 74.5177C594.876 76.0994 593.965 77.4769 593.171 78.6776C589.86 83.6835 588.583 85.6144 589.827 86.446C590.632 86.9847 591.939 86.6905 593.843 86.2622C596.016 85.7732 598.967 85.1094 602.835 85.31C609.123 85.6362 615.849 88.1433 615.844 90.4219C615.842 91.6044 614.027 92.2154 611.086 93.2061C609.169 93.8519 606.772 94.659 604.087 95.8909C597.868 98.7433 595.271 101.5 593.077 103.829C590.905 106.135 589.129 108.022 584.623 109.166C582.193 109.784 581.022 109.663 578.226 109.376C575.617 109.108 571.593 108.694 563.809 108.598C556.536 108.184 549.209 108.568 542.128 109.734C536.12 110.902 530.522 112.832 525.651 115.414L525.649 115.415C525.534 115.476 525.416 115.539 525.295 115.603C518.097 108.349 509.541 100.34 498.786 96.8196C493.968 95.243 489.714 99.9883 494.551 101.571C505.735 105.232 512.378 112.314 518.696 119.529ZM955.408 330.52C952.383 332.172 950.33 333.292 947.131 332.961C933.374 331.54 924.614 305.992 934.122 301.721C936.009 300.874 938.121 301.086 940.535 301.329C943.414 301.619 946.725 301.952 950.6 300.585C953.563 299.54 954.674 298.27 956.128 296.609C957.234 295.346 958.538 293.856 961.007 292.065C963.644 290.153 965.314 289.562 969.338 288.138C971.794 287.269 975.125 286.091 980.086 284.113C985.219 282.067 988.874 280.45 991.599 279.244C996.843 276.925 998.643 276.128 1000.9 276.729C1003.41 277.397 1004.05 279.145 1004.86 281.354C1005.78 283.875 1006.91 286.995 1011.31 289.793C1014.2 291.638 1020.13 294.368 1024.32 293.201C1028.82 291.947 1029.75 286.625 1030.33 283.344C1030.61 281.787 1030.8 280.689 1031.25 280.705C1031.57 280.715 1031.73 281.264 1031.99 282.22C1032.39 283.633 1033.03 285.935 1034.83 288.707C1034.83 288.707 1035.48 289.71 1036.46 290.929C1040 294.906 1044.38 298.538 1049.47 301.721C1056.56 306.694 1060.85 313.108 1061.61 319.897C1061.78 321.694 1062.95 333.993 1049.47 339.209C1045.65 340.662 1041.31 341.427 1036.89 341.427C1032.47 341.427 1028.14 340.662 1024.32 339.209C1021.36 337.949 1020.16 336.616 1018.72 335.014C1017.24 333.362 1015.5 331.424 1011.31 328.985C1007.1 326.397 1002.06 324.456 996.564 323.305C988.211 321.912 979.396 322.31 971.414 324.441C963.125 326.309 958.693 328.727 955.408 330.52ZM350.832 15.2443C344.759 15.8126 339.175 16.3349 333.99 19.9889C328.998 23.5066 325.169 29.367 327.919 33.621C329.538 36.1246 332.697 36.9306 338.315 38.3638C341.697 39.2266 345.97 40.3167 351.335 42.1414C364.122 46.4909 373.474 49.672 374.75 54.6374C375.617 58.0109 372.301 60.4326 368.694 63.0667C364.915 65.8259 360.817 68.8182 360.874 73.3817C360.974 81.2968 373.488 86.9671 377.352 88.7179C387.646 93.382 404.654 96.7783 410.307 92.6941C412.973 90.7685 411.829 88.1083 410.448 84.8944C408.837 81.1464 406.903 76.6453 410.307 71.6778C414.223 67.1778 419.914 63.4502 426.785 60.8855C432.044 58.4369 435.621 57.4233 438.309 56.6614C441.258 55.8257 443.138 55.2929 444.997 53.5014C452.78 46.0003 442.675 33.3171 441.528 31.9171C438.369 28.0601 435.55 26.4973 432.37 24.7341C429.115 22.9291 425.481 20.9141 420.714 16.013C418.096 13.3208 416.557 11.2181 415.285 9.48178L415.285 9.48156C413.214 6.65307 411.855 4.79698 407.705 2.94874C404.576 1.53876 401.007 0.603222 397.256 0.210219C393.506 -0.182783 389.669 -0.0233637 386.024 0.67682C381.495 1.67338 379.736 3.25645 377.529 5.24263C375.868 6.73717 373.953 8.45995 370.414 10.3328C363.346 14.0735 356.848 14.6814 350.832 15.2443ZM12.4739 83.3861C10.9409 81.9561 9.3445 80.467 9.64102 78.4939C10.4804 72.9082 20.5279 67.4327 33.0564 66.6489C44.674 66.6302 56.1778 68.1475 66.8789 71.1098C72.8817 72.5862 76.9333 74.0689 80.2338 75.2767C85.0952 77.0557 88.327 78.2384 93.7637 77.9259C97.8208 77.6928 99.7183 76.8218 102.241 75.6637C104.421 74.6632 107.067 73.4484 111.976 72.2458C122.812 69.6257 134.609 69.2294 145.798 71.1098C151.201 72.1387 154.237 73.4495 157.322 74.7815C160.866 76.3118 164.476 77.8702 171.816 79.0619C177.533 79.7822 183.338 80.1624 189.16 80.1978C197.095 80.5748 203.392 80.9451 208.443 81.2421C223.469 82.1257 227.474 82.3612 230.788 80.1978C234.122 78.0208 234.143 75.0439 234.161 72.4462C234.178 70.0331 234.192 67.9471 236.859 67.1336C237.575 66.915 238.333 66.7741 239.119 66.7033C238.642 66.5241 238.22 66.284 237.879 65.9943C237.267 65.4739 236.958 64.8274 237.007 64.1708C237.056 63.5143 237.46 62.8907 238.146 62.412C239.733 61.324 242.896 59.5051 246.645 57.7983C250.011 54.8491 251.371 51.2799 252.738 47.6913C254.003 44.3714 255.274 41.0349 258.145 38.1571C257.804 37.9422 257.517 37.6895 257.3 37.4081C256.849 36.8228 256.73 36.1516 256.964 35.514C259.689 28.6344 265.886 24.4538 273.893 21.6483C273.642 21.4436 273.435 21.2157 273.281 20.9706C272.967 20.4737 272.879 19.9278 273.029 19.3989C273.178 18.87 273.558 18.3808 274.122 17.9906C274.296 17.8875 274.474 17.7853 274.657 17.6842C263.734 17.9482 252.838 17.7563 241.922 17.3741L241.922 17.3738C236.542 17.1854 236.526 11.6819 241.922 11.8708C253.541 12.3373 265.189 12.4213 276.822 12.1225C280.623 12.0058 285.386 11.5227 290.28 11.0262C297.636 10.28 305.29 9.50351 310.428 9.89563C311.873 10.006 313.045 10.057 314.028 10.0998C317.933 10.2697 318.863 10.3103 322.204 13.429C322.584 13.8493 322.785 14.329 322.785 14.8177C322.785 15.3065 322.584 15.7862 322.204 16.2065C317.073 22.0339 308.579 21.1587 300 20.2478C299.726 21.2048 298.794 22.0567 297.13 22.3065L296.729 22.3665C292.538 22.9952 288.247 23.6388 284.208 24.5556C283.951 24.6799 283.695 24.805 283.44 24.9311C285.369 24.6883 287.328 24.5256 289.306 24.4463C293.13 24.1937 294.546 27.5607 292.272 29.1433C289.403 31.268 285.907 32.9896 281.996 34.2045C269.111 38.8544 265.168 43.3589 259.602 52.2626C259.258 52.8122 258.93 53.3463 258.611 53.8656C263.622 53.0405 267.986 53.7581 269.658 57.7589C270.568 59.9346 269.817 61.6061 268.137 62.8515L270.43 63.2332C271.297 63.4064 272.056 63.7577 272.596 64.2354C272.61 64.2481 272.624 64.2608 272.638 64.2736C272.65 64.2843 272.661 64.2952 272.673 64.3061C273.168 64.2732 273.662 64.2368 274.156 64.1968C272.399 62.2644 275.006 59.0157 278.772 60.048L279.068 60.1289C280.47 60.5128 281.505 60.7963 282.334 61.0957L288.462 62.9413C289.24 63.099 289.933 63.3999 290.458 63.8082C290.848 64.1121 291.134 64.466 291.298 64.8455C292.247 64.5985 293.558 64.6634 295.231 65.0403L295.231 65.0407C295.48 65.0463 295.725 65.0664 295.965 65.1001L297.5 65.1139C298.406 65.1331 299.279 65.3427 299.99 65.7117C300.702 66.0807 301.213 66.5898 301.45 67.1638C301.465 67.1992 301.478 67.2347 301.491 67.2703C308.144 67.7284 314.758 68.4133 321.308 69.3227C322.262 69.515 323.082 69.9236 323.62 70.4753C324.158 71.0271 324.38 71.6862 324.246 72.3353C324.112 72.9844 323.631 73.5811 322.889 74.0192C322.146 74.4573 321.191 74.7083 320.193 74.7273L312.63 74.5453L313.947 76.1977C313.991 76.2496 314.034 76.3024 314.074 76.356C315.261 75.9411 316.74 75.8306 318.138 76.2385L325.432 78.3667C329.532 79.5632 327.192 83.1566 323.518 83.4391C323.339 83.5553 323.145 83.6613 322.936 83.7558C322.261 84.0607 321.467 84.2314 320.648 84.247C319.075 84.3723 317.498 84.4726 315.918 84.5478C315.854 84.6144 315.787 84.679 315.715 84.7412C315.573 85.1982 315.257 85.6255 314.796 85.9831C314.466 86.2381 314.071 86.4509 313.631 86.6127C315.395 88.5075 316.894 90.5087 318.106 92.5922C322.15 94.202 318.023 98.5163 313.323 97.1574C311.75 96.7025 310.414 96.2157 309.274 95.705L308.963 95.6267C308.872 95.6183 308.781 95.6091 308.691 95.5992C307.11 95.4258 305.608 95.025 304.292 94.4256C303.548 94.1205 302.971 93.6722 302.637 93.145C298.446 91.3472 295.712 88.6355 295.805 84.6674C295.821 84.0678 296.129 83.4871 296.683 83.0099C296.949 82.7802 297.266 82.5803 297.621 82.4158C297.476 81.6584 297.774 80.8297 298.442 80.1837C297.824 80.0557 297.213 79.9094 296.61 79.7449L296.608 79.7447L296.609 79.7445L296.608 79.7443C295.57 79.5305 294.7 79.0608 294.179 78.4342C293.659 77.8075 293.53 77.073 293.819 76.3851C294.108 75.6973 294.793 75.1099 295.729 74.7467C296.666 74.3834 297.78 74.2728 298.839 74.4383L298.842 74.4384L303.256 74.6492L301.953 73.013C301.896 72.9472 301.844 72.88 301.796 72.8117C298.656 72.5831 295.507 72.4086 292.351 72.2884C291.808 72.2968 291.263 72.2778 290.722 72.2312L290.716 72.231C289.629 72.206 288.599 71.9052 287.843 71.3919C287.466 71.1359 287.172 70.8371 286.972 70.5133C286.654 70.4928 286.342 70.4487 286.042 70.3826C285.203 70.348 284.396 70.1513 283.724 69.8158C283.178 69.5434 282.744 69.1902 282.453 68.7878C275.486 69.62 268.412 70.0056 261.329 69.9386C260.332 69.9191 259.377 69.6679 258.635 69.2298C257.893 68.7917 257.412 68.1952 257.279 67.5464C257.199 67.1629 257.244 66.776 257.406 66.4097C257.341 66.3712 257.278 66.3314 257.217 66.2902C257.016 66.1543 256.836 66.0058 256.682 65.8472C255.223 65.9181 253.809 65.9067 252.543 65.8238C251.635 65.7974 250.761 65.5899 250.038 65.2289C249.877 65.1483 249.725 65.061 249.583 64.9677C249.438 64.9224 249.296 64.8717 249.159 64.8157L245.578 65.8647C244.847 66.1603 244.066 66.4496 243.23 66.7334C243.115 66.7744 242.998 66.8118 242.878 66.8455C248.589 67.7065 254.659 71.2778 256.96 75.1978C257.712 75.2627 258.471 75.4675 259.176 75.8507L264.569 78.7823C268.732 81.0451 262.764 84.9173 258.637 82.6735L257.007 81.7875C256.158 83.3726 254.754 85.0089 252.927 86.7838C253.504 86.8227 254.108 86.9576 254.719 87.2112C261.033 89.8803 268.468 91.1793 275.97 90.9242C281.378 90.7717 281.349 96.2754 275.97 96.4272C266.977 96.6935 258.077 95.1345 250.484 91.9628C249.57 91.5833 249.009 91.0883 248.734 90.5548C247.726 91.4178 246.655 92.3175 245.533 93.261L245.531 93.2621C241.152 96.9425 237.248 99.566 234.244 101.585C229.807 104.566 227.333 106.229 228.186 108.03C228.902 109.541 231.339 109.841 234.966 110.288C238.426 110.713 242.968 111.272 248.133 113.142C255.348 115.755 258.76 119.108 261.677 121.975C264.624 124.872 267.066 127.273 272.416 127.911C276.414 128.304 280.5 127.856 284.084 126.631C287.669 125.406 290.568 123.467 292.362 121.094C293.602 118.733 292.306 116.752 290.891 114.588C289.378 112.273 287.728 109.749 288.893 106.326C290.203 102.481 294.747 98.439 299.3 98.3743C301.5 98.343 302.822 99.253 307.91 102.753L307.912 102.755C309.138 103.598 310.582 104.591 312.309 105.758C320.683 111.415 322.512 112.227 324.45 112.006C326.94 111.723 328.199 109.9 329.366 108.21C330.416 106.689 331.392 105.276 333.123 105.19C335.756 105.06 337.897 108.113 340.561 111.911L340.562 111.911L340.562 111.912C341.224 112.856 341.919 113.847 342.662 114.846C347.694 121.615 353.141 126.377 356.808 129.583C360.017 132.389 361.863 134.003 360.874 134.727C359.992 135.373 357.79 134.622 354.693 133.567C349.589 131.829 342.054 129.262 333.99 130.751C331.289 131.18 328.782 132.021 326.672 133.205C324.562 134.39 322.909 135.884 321.849 137.567C320.555 140.369 322.333 142.706 324.045 144.958C325.609 147.014 327.119 148.998 326.185 151.199C325.142 153.657 320.932 156.667 306.238 158.583C295.858 162.582 287.896 168.8 283.69 176.191C280.699 182.21 281.256 188.386 281.614 192.354C281.843 194.881 281.99 196.513 281.088 196.639C280.359 196.741 279.78 195.741 278.889 194.203C277.415 191.656 275.088 187.637 269.814 184.711C263.805 181.7 256.412 180.117 248.848 180.22C241.284 180.323 233.998 182.107 228.186 185.279C221.177 189.587 216.149 197.495 220.381 202.319C222.432 204.658 225.706 205.185 230.274 205.921C233.937 206.512 238.432 207.236 243.796 209.136C258.539 214.355 267.44 224.055 265.478 225.608C264.674 226.243 262.296 225.318 258.026 223.657C252.183 221.384 242.797 217.733 229.053 214.816C222.659 213.458 217.903 212.808 214.032 212.279L214.032 212.279C207.632 211.404 203.655 210.86 198.7 208C195.437 206.117 194.362 204.736 192.383 202.197C190.756 200.11 188.52 197.24 183.957 192.663C179.357 187.513 173.824 182.745 167.479 178.463C160.876 174.295 155.456 172.428 151.049 170.91C146.06 169.192 142.369 167.92 139.728 164.263C138.212 162.165 138.291 161.01 138.449 158.704C138.589 156.655 138.792 153.696 137.993 148.359C137.58 141.933 135.528 135.597 131.922 129.615C127.936 124.042 122.341 119.027 115.445 114.846C106.353 108.688 98.6313 103.457 85.9585 100.646C73.239 98.1052 59.6518 98.1052 46.9323 100.646C41.1649 101.743 37.2464 103.038 33.9558 104.125C29.2306 105.686 25.7999 106.819 20.048 106.326C8.90838 105.372 -1.12142 99.1595 0.101344 95.534C0.680632 93.8161 3.6596 93.0557 6.80987 92.2517C10.2536 91.3727 13.9021 90.4415 14.8443 88.1499C15.603 86.3049 14.0729 84.8777 12.4739 83.3861ZM922 182.5C920.5 182.5 918.5 185.507 918 187C917.165 189.492 918.072 190.964 918.686 191.96C918.807 192.157 918.917 192.336 919 192.5C919.5 193.493 921 189 921.5 187C921.5 186.364 921.68 185.548 921.849 184.782C922.078 183.74 922.288 182.788 922 182.5ZM239.208 29.8752C232.265 28.5947 226.123 25.8989 221.67 22.1778C220.908 21.6535 220.482 20.9567 220.482 20.2322C220.482 19.5076 220.908 18.8109 221.67 18.2866C222.46 17.7748 223.526 17.4878 224.636 17.4878C225.747 17.4878 226.813 17.7748 227.603 18.2866C231.057 21.3074 235.912 23.5118 241.439 24.5689C242.477 24.7823 243.349 25.2519 243.87 25.8787C244.391 26.5055 244.52 27.2404 244.231 27.9286C243.942 28.6168 243.256 29.2044 242.319 29.5675C241.382 29.9307 240.267 30.041 239.208 29.8752ZM439.243 74.4967C437.11 73.6826 435.007 72.88 432.931 72.1465C428.171 70.4646 432.412 65.7154 437.166 67.3949C439.047 68.0596 441.097 68.881 443.258 69.7469L443.258 69.747C450.86 72.7929 459.837 76.3895 467.674 75.6538C472.964 75.1573 475.228 80.4604 469.904 80.9602C458.887 81.9944 448.765 78.1312 439.243 74.4967ZM580.066 19.1856C573.094 16.102 565.027 14.2502 556.646 13.8091C551.289 13.5345 551.262 8.03021 556.646 8.30616C566.513 8.75857 576.036 10.8688 584.3 14.434C588.791 16.3791 584.584 21.1427 580.066 19.1856ZM609.405 12.0481C603.82 11.564 598.173 11.4656 592.557 11.7546C587.161 12.0082 587.203 6.50315 592.557 6.25152C598.925 5.97362 605.32 6.13797 611.635 6.74178C616.969 7.22758 614.685 12.5292 609.405 12.0481ZM720.973 38.0147C713.821 40.664 707.2 43.1166 709.383 49.7706C710.518 53.2295 702.428 54.6938 701.293 51.2335C700.052 47.9277 700.554 44.4437 702.717 41.3489C704.88 38.2541 708.576 35.7307 713.205 34.1898C719.196 32.0122 724.72 29.323 729.633 26.1925C733.567 23.7501 738.673 22.2803 744.077 22.0349C749.477 21.8085 749.439 27.3131 744.077 27.5378C738.558 27.7691 734.625 30.3819 730.718 32.978C728.359 34.5451 726.01 36.1061 723.326 37.1335C722.542 37.4334 721.755 37.7253 720.973 38.0147ZM203.812 50.4138C201.499 49.2326 198.839 48.3774 195.998 47.9019C194.959 47.6884 194.088 47.2189 193.567 46.5921C193.046 45.9653 192.916 45.2303 193.206 44.5422C193.495 43.854 194.18 43.2664 195.117 42.9032C196.054 42.5401 197.17 42.4298 198.228 42.5956C202.443 43.3628 206.366 44.7005 209.745 46.5226C210.525 47.0408 210.963 47.7398 210.963 48.4682C210.963 49.1965 210.525 49.8956 209.745 50.4138C208.942 50.9089 207.881 51.1846 206.779 51.1846C205.676 51.1846 204.615 50.9089 203.812 50.4138ZM204.036 63.4553C199.484 62.56 195.327 60.9618 191.912 58.7949C188.006 56.3379 193.947 52.4522 197.845 54.9037C200.184 56.4115 203.033 57.5353 206.16 58.1836C209.286 58.8319 212.603 58.9862 215.838 58.6341C221.128 58.04 223.379 63.344 218.068 63.9405C213.399 64.517 208.587 64.3507 204.036 63.4553ZM228.841 51.1184C228.955 49.6344 228.472 48.1569 227.439 46.8342C224.976 43.6859 232.218 40.9051 234.684 44.0568C236.444 46.2271 237.309 48.6609 237.195 51.1179C237.082 53.5749 235.992 55.9698 234.034 58.066C231.214 61.0836 223.96 58.316 226.79 55.2885C228.02 54.0407 228.727 52.6024 228.841 51.1184ZM277.134 218.914C270.153 216.964 264.04 213.883 259.371 209.96C256.085 207.199 261.985 203.28 265.303 206.069C269.213 209.46 274.405 212.123 280.364 213.796C286.324 215.468 292.846 216.092 299.285 215.605C304.661 215.247 304.605 220.753 299.285 221.108C291.737 221.618 284.115 220.863 277.134 218.914ZM676.494 298.391C676.1 299.822 675.706 301.253 675.31 302.684C674.347 306.169 666.263 304.684 667.22 301.221C667.699 299.486 668.128 297.729 668.557 295.967L668.557 295.966L668.558 295.964L668.558 295.963C669.511 292.055 670.47 288.12 672.009 284.339C672.505 282.607 673.573 280.968 675.138 279.536C676.704 278.104 678.729 276.914 681.07 276.051C685.885 274.46 690.128 279.209 685.305 280.803C680.78 282.298 679.903 285.75 679.12 288.834C679.015 289.251 678.911 289.66 678.799 290.058C678.023 292.835 677.258 295.613 676.494 298.391ZM788.35 226.595V225.418C788.387 224.705 788.846 224.029 789.628 223.533C790.411 223.038 791.457 222.761 792.545 222.761C793.633 222.761 794.678 223.038 795.461 223.533C796.244 224.029 796.702 224.705 796.74 225.418V226.595C796.702 227.308 796.244 227.984 795.461 228.48C794.678 228.975 793.633 229.253 792.545 229.253C791.457 229.253 790.411 228.975 789.628 228.48C788.846 227.984 788.387 227.308 788.35 226.595ZM867.493 243.561C855.769 237.456 853.343 227.495 851.62 218.31C850.962 214.798 859.36 214.841 860.011 218.31C861.473 226.108 863.502 234.503 873.425 239.67C877.654 241.872 871.679 245.741 867.493 243.561ZM487.012 114.42C485.963 112.025 485.731 109.509 486.333 107.049C486.635 106.348 487.346 105.753 488.312 105.393C489.278 105.034 490.421 104.938 491.494 105.128C492.545 105.343 493.433 105.812 493.977 106.441C494.521 107.069 494.68 107.81 494.424 108.512C494.156 110.008 494.387 111.525 495.102 112.957C495.355 113.651 495.187 114.383 494.633 114.997C494.079 115.612 493.183 116.061 492.134 116.251C491.085 116.441 489.964 116.356 489.009 116.014C488.053 115.673 487.337 115.101 487.012 114.42ZM977.692 170.17C973.909 171.982 970.117 173.799 966.814 176.205C963.191 178.843 957.276 174.939 960.881 172.314C964.515 169.877 968.569 167.726 972.96 165.903C979.584 162.335 985.343 158.128 990.041 153.426C1004.38 141.501 1013.2 133.36 1007.87 117.289C1006.72 113.831 1014.81 112.367 1015.96 115.826C1020.07 128.206 1018.58 138.42 1006.75 148.741L1005.84 149.54L1005.14 150.153L1005.13 150.154L1005.13 150.154C1000.05 154.59 994.892 159.097 989.572 163.356C986.075 166.155 981.889 168.16 977.692 170.17ZM929.144 210.873L927.565 204.38C927.297 203.677 927.451 202.933 927.997 202.303C928.543 201.672 929.437 201.204 930.495 200.995C931.568 200.806 932.711 200.902 933.676 201.261C934.642 201.621 935.353 202.216 935.655 202.917L937.235 209.41C937.503 210.113 937.348 210.856 936.803 211.487C936.257 212.117 935.362 212.585 934.305 212.794C933.232 212.983 932.089 212.887 931.123 212.528C930.157 212.168 929.447 211.573 929.144 210.873ZM900.971 244.005C898.924 244.548 896.698 244.734 894.509 244.546C889.185 243.972 891.457 238.67 896.739 239.239C897.986 239.374 899.859 237.991 901.154 237.035L901.155 237.034C901.582 236.719 901.946 236.45 902.204 236.297C903.525 235.514 904.932 234.795 906.414 234.147C909.912 232.661 913.81 231.626 917.899 231.097C923.177 230.381 925.413 235.686 920.129 236.403C914.814 237.126 909.956 238.885 906.191 241.449C904.816 242.582 903.018 243.463 900.971 244.005ZM893.072 262.116C889.481 259.121 885.814 256.063 880.845 254.472C875.988 252.917 880.246 248.173 885.08 249.721C890.269 251.382 893.732 254.219 897.227 257.084L897.228 257.085C898.518 258.141 899.812 259.202 901.198 260.208C907.632 264.835 915.072 268.812 923.279 272.012C924.199 272.393 924.858 272.994 925.116 273.688C925.375 274.381 925.212 275.113 924.662 275.73C924.113 276.346 923.22 276.799 922.172 276.992C921.124 277.184 920.002 277.103 919.044 276.764C911.705 273.903 904.917 270.473 898.827 266.548C896.812 265.235 894.953 263.684 893.072 262.116ZM939.629 263.59C938.267 262.942 936.635 262.166 935.463 262.339C930.195 263.116 927.966 257.809 933.232 257.033C937.107 256.461 939.74 257.439 942.713 258.543C943.445 258.815 944.199 259.095 944.997 259.361C946.632 259.907 946.806 259.641 947.375 258.776L947.451 258.661C947.5 258.586 947.553 258.507 947.61 258.424C948.403 257.046 949.561 255.77 951.031 254.656C954.744 252.072 960.666 255.971 956.964 258.547C956.037 259.191 955.524 260.027 955.011 260.864C954.625 261.493 954.239 262.123 953.677 262.672C953.029 263.336 952.176 263.904 951.174 264.34C950.172 264.775 949.042 265.069 947.857 265.201C945.529 265.379 943.177 265.049 941.163 264.263C940.737 264.117 940.208 263.865 939.629 263.59ZM971.66 272.242L962.709 269.861C961.65 269.653 960.755 269.185 960.209 268.554C959.663 267.924 959.509 267.18 959.779 266.476C960.082 265.776 960.793 265.181 961.759 264.822C962.724 264.462 963.867 264.366 964.939 264.555L973.891 266.935C974.95 267.143 975.845 267.612 976.391 268.242C976.937 268.873 977.091 269.617 976.821 270.32C976.518 271.021 975.807 271.615 974.841 271.975C973.875 272.334 972.733 272.43 971.66 272.242ZM1046.91 277.561C1039.91 273.826 1032.91 270.097 1023.82 269.901C1018.43 269.785 1018.42 264.282 1023.82 264.398C1034.55 264.629 1042.15 268.526 1049.86 272.482C1054.76 274.994 1059.71 277.53 1065.53 279.168C1070.48 280.561 1066.21 285.3 1061.3 283.92C1056.1 282.459 1051.51 280.009 1046.91 277.561ZM132.216 62.275C126.259 60.9823 120.765 58.9095 116.066 56.1824V56.1823C112.001 53.8383 117.958 49.961 121.998 52.2912C125.626 54.3834 129.86 55.9743 134.446 56.9686C139.552 58.0831 137.35 63.3957 132.216 62.275ZM181.732 72.1651C173.596 69.5979 164.793 68.0629 155.787 67.641C150.425 67.3843 150.4 61.8802 155.787 62.1379C166.266 62.6266 176.507 64.4169 185.967 67.4134C190.838 68.947 186.577 73.6904 181.732 72.1651ZM172.831 51.0967C165.376 51.3346 157.999 50.0107 151.768 47.3166C147.269 45.3776 151.477 40.6144 156.002 42.565C160.958 44.7512 166.868 45.8149 172.831 45.5938C178.237 45.4284 178.207 50.9323 172.831 51.0967ZM192.295 36.3365C189.322 35.0099 187.111 33.0684 186.016 30.8218C184.294 27.4505 192.4 26.018 194.107 29.3588C194.711 30.4473 195.866 31.3668 197.379 31.9637C198.893 32.5606 200.673 32.7988 202.422 32.6384C207.807 32.3213 207.756 37.8272 202.422 38.1413C198.834 38.2985 195.268 37.6632 192.295 36.3365ZM1030.9 277.628C1035.13 278.958 1038.84 280.902 1041.76 283.313C1042.34 283.924 1043.26 284.366 1044.33 284.549C1045.4 284.733 1046.53 284.643 1047.5 284.3C1048.45 283.929 1049.15 283.325 1049.43 282.621C1049.71 281.916 1049.56 281.166 1049 280.535C1045.34 277.319 1040.59 274.699 1035.14 272.876C1030.32 271.3 1026.06 276.045 1030.9 277.628ZM937.436 227.779C938.512 228.911 940.105 229.79 941.989 230.293C943.872 230.796 945.949 230.896 947.924 230.578C949.984 230.18 951.777 229.335 953.011 228.182C954.244 227.029 954.846 225.636 954.717 224.23C954.408 220.709 946.016 220.686 946.327 224.23C946.381 224.84 945.604 225.879 944.681 225.002C941.634 222.106 934.359 224.855 937.436 227.779ZM1081.7 373.718C1083.77 371.982 1086.08 370.2 1088.45 368.367C1099.84 359.559 1112.74 349.576 1108.6 337.925C1107.38 334.477 1099.29 335.936 1100.51 339.388C1103.75 348.512 1091.88 357.494 1082.1 364.888L1082.1 364.89C1079.8 366.63 1077.61 368.282 1075.77 369.827C1072.48 372.585 1078.38 376.506 1081.7 373.718ZM1050.23 360.71C1050.38 363.151 1051.75 365.49 1054.12 367.373C1054.91 367.885 1055.98 368.172 1057.09 368.172C1058.2 368.172 1059.27 367.885 1060.06 367.373C1060.82 366.849 1061.25 366.152 1061.25 365.427C1061.25 364.703 1060.82 364.006 1060.06 363.482C1059.15 362.677 1058.65 361.709 1058.62 360.71C1058.36 357.185 1049.97 357.164 1050.23 360.71ZM278.658 248.801C275.262 250.738 274.611 252.601 273.627 255.418C272.611 258.327 271.24 262.253 266.124 268.326C262.771 272.306 259.735 274.923 257.372 276.96C253.95 279.91 251.941 281.642 252.426 284.535C252.966 287.752 256.084 289.386 260.742 291.828C264.044 293.56 268.122 295.698 272.605 299.094C280.019 304.909 285.515 311.669 288.748 318.947C292.448 329.673 290.306 340.911 282.694 350.71C274.389 362.267 272.257 375.32 276.641 387.769C281.271 399.513 292.485 409.85 296.82 408.945C298.687 408.555 298.399 406.263 297.962 402.776C297.264 397.21 296.184 388.602 302.873 379.828C310.269 373.698 318.364 367.947 327.088 362.622C330.257 360.496 333.047 358.633 335.514 356.986L335.519 356.983L335.519 356.983C350.413 347.04 353.539 344.953 357.356 340.123C359.598 337.284 360.7 335.243 361.616 333.547C362.957 331.062 363.899 329.318 367.445 326.888C372.166 323.652 376.736 322.469 380.82 321.411C385.092 320.305 388.832 319.336 391.66 316.3C394.16 313.615 393.938 311.469 393.693 309.103C393.444 306.701 393.172 304.071 395.696 300.418C398.447 296.434 402.347 294.382 405.357 292.799C408.112 291.349 410.121 290.292 409.821 288.506C408.983 283.525 391.359 279.802 377.535 279.242C371.958 279.016 368.478 279.364 365.77 279.636L365.769 279.636C362.617 279.952 360.509 280.163 357.356 279.242C350.885 277.35 349.204 273.375 347.226 268.699C345.631 264.928 343.843 260.701 339.195 256.742C325.09 244.729 291.818 241.296 278.658 248.801ZM516.32 160.038C496.674 162.974 493.263 165.126 487.448 168.794C487.139 168.989 486.824 169.187 486.5 169.391C483.68 171.157 482.963 172.575 482.097 174.291C481.198 176.068 480.139 178.165 476.411 181.302C472.556 184.546 469.272 186.019 466.609 187.213C463.772 188.487 461.638 189.444 460.268 191.89C459.432 193.383 459.364 194.565 464.303 207.772C465.626 212.788 467.885 217.677 471.03 222.331C473.206 226.147 477.07 229.45 482.128 231.816C486.15 233.34 490.027 233.482 513.069 231.595C515.749 231.376 518.045 231.182 520.028 231.014L520.036 231.013C530.337 230.142 532.209 229.983 535.602 230.713C543.986 233.056 550.713 237.389 554.435 242.845C558.596 248.013 560.788 253.765 560.825 259.61C561.095 263.729 560.393 266.055 559.683 268.41C559.144 270.195 558.601 271.997 558.471 274.609C558.199 280.082 560.034 283.211 564.067 290.087L564.067 290.088C565.26 292.121 566.645 294.483 568.224 297.33C572.916 305.786 575.566 311.75 577.457 316.008C580.576 323.029 581.634 325.409 586.385 326.667C596.401 329.319 610.245 323.655 617.326 318.726C622.594 315.059 623.951 311.914 625.731 307.787C627.495 303.697 629.676 298.641 636.495 291.153C638.324 289.145 639.813 287.702 641.056 286.497C643.497 284.13 644.99 282.682 646.249 279.683C648.006 275.492 647.508 272.557 647.009 269.622C646.567 267.018 646.125 264.414 647.258 260.933C649.09 255.3 653.58 251.878 662.056 245.419C669.92 239.425 677.088 235.689 682.19 233.031C687.507 230.26 690.579 228.659 689.857 226.89C689.124 225.092 685.189 224.884 679.914 224.605C673.07 224.244 663.97 223.764 656.674 219.537C651.638 216.619 650.641 213.758 649.245 209.746C648.039 206.283 646.535 201.962 641.877 196.008C636.012 188.512 627.82 178.041 614.075 176.302C608.544 175.603 604.576 176.628 600.005 177.809C594.847 179.142 588.921 180.672 579.118 180.148C572.373 180.2 565.775 178.855 560.265 176.302C555.099 173.562 553.598 170.292 552.253 167.364C550.984 164.6 549.854 162.14 545.915 160.715C540.564 158.778 534.73 157.287 516.32 160.038Z" fill="url(#paint0_linear_585_8974)"/>
<path opacity="0.16" d="M573.479 220.01L571.52 214.306L569.437 220.01H573.479ZM570.605 212.39H572.583L577.268 225.301H575.352L574.042 221.434H568.936L567.538 225.301H565.745L570.605 212.39ZM579.043 214.456C579.066 213.799 579.181 213.319 579.386 213.014C579.755 212.475 580.467 212.206 581.521 212.206C581.621 212.206 581.724 212.208 581.829 212.214C581.935 212.22 582.055 212.229 582.189 212.241V213.682C582.025 213.67 581.905 213.665 581.829 213.665C581.759 213.659 581.691 213.656 581.627 213.656C581.146 213.656 580.859 213.782 580.766 214.034C580.672 214.28 580.625 214.913 580.625 215.932H582.189V217.18H580.607V225.301H579.043V217.18H577.733V215.932H579.043V214.456ZM583.701 215.888H585.204V217.514C585.327 217.198 585.629 216.814 586.109 216.363C586.59 215.906 587.144 215.677 587.771 215.677C587.8 215.677 587.85 215.68 587.92 215.686C587.99 215.692 588.11 215.704 588.28 215.721V217.391C588.187 217.374 588.099 217.362 588.017 217.356C587.94 217.35 587.855 217.347 587.762 217.347C586.965 217.347 586.353 217.605 585.925 218.121C585.497 218.63 585.283 219.219 585.283 219.887V225.301H583.701V215.888ZM589.651 215.932H591.26V225.301H589.651V215.932ZM589.651 212.39H591.26V214.183H589.651V212.39ZM597.289 215.616C598.35 215.616 599.211 215.874 599.873 216.389C600.541 216.905 600.942 217.792 601.077 219.052H599.539C599.445 218.472 599.231 217.992 598.897 217.611C598.563 217.224 598.027 217.031 597.289 217.031C596.281 217.031 595.561 217.523 595.127 218.507C594.846 219.146 594.705 219.934 594.705 220.872C594.705 221.815 594.904 222.609 595.303 223.253C595.701 223.898 596.328 224.22 597.184 224.22C597.84 224.22 598.358 224.021 598.739 223.623C599.126 223.218 599.393 222.667 599.539 221.97H601.077C600.901 223.218 600.462 224.132 599.759 224.712C599.056 225.287 598.156 225.574 597.061 225.574C595.83 225.574 594.849 225.125 594.116 224.229C593.384 223.327 593.018 222.202 593.018 220.854C593.018 219.202 593.419 217.916 594.222 216.996C595.024 216.076 596.047 215.616 597.289 215.616ZM603.872 222.796C603.872 223.253 604.039 223.614 604.373 223.877C604.707 224.141 605.103 224.273 605.56 224.273C606.116 224.273 606.655 224.144 607.177 223.886C608.056 223.458 608.495 222.758 608.495 221.786V220.511C608.302 220.634 608.053 220.737 607.748 220.819C607.443 220.901 607.145 220.959 606.852 220.995L605.894 221.118C605.319 221.194 604.889 221.314 604.602 221.478C604.115 221.753 603.872 222.193 603.872 222.796ZM607.704 219.597C608.067 219.55 608.311 219.398 608.434 219.14C608.504 219 608.539 218.797 608.539 218.534C608.539 217.995 608.346 217.605 607.959 217.365C607.578 217.119 607.03 216.996 606.315 216.996C605.489 216.996 604.903 217.218 604.558 217.664C604.364 217.91 604.238 218.276 604.18 218.762H602.703C602.732 217.602 603.107 216.796 603.828 216.345C604.555 215.888 605.396 215.66 606.351 215.66C607.458 215.66 608.357 215.871 609.049 216.292C609.734 216.714 610.077 217.371 610.077 218.261V223.684C610.077 223.848 610.109 223.98 610.174 224.08C610.244 224.179 610.388 224.229 610.604 224.229C610.675 224.229 610.754 224.226 610.842 224.22C610.93 224.208 611.023 224.194 611.123 224.176V225.345C610.877 225.416 610.689 225.459 610.561 225.477C610.432 225.495 610.256 225.503 610.033 225.503C609.488 225.503 609.093 225.31 608.847 224.923C608.718 224.718 608.627 224.428 608.574 224.053C608.252 224.475 607.789 224.841 607.186 225.152C606.582 225.462 605.917 225.618 605.19 225.618C604.317 225.618 603.603 225.354 603.046 224.827C602.495 224.293 602.22 223.628 602.22 222.832C602.22 221.958 602.492 221.282 603.037 220.801C603.582 220.321 604.297 220.025 605.182 219.914L607.704 219.597Z" fill="#1363BF"/>
<path opacity="0.16" d="M161.812 132.411H163.878L170.399 142.87V132.411H172.061V145.322H170.101L163.482 134.872V145.322H161.812V132.411ZM178.345 144.303C179.394 144.303 180.111 143.907 180.498 143.116C180.891 142.319 181.087 141.435 181.087 140.462C181.087 139.583 180.946 138.868 180.665 138.317C180.22 137.45 179.452 137.017 178.362 137.017C177.396 137.017 176.692 137.386 176.253 138.124C175.813 138.862 175.594 139.753 175.594 140.796C175.594 141.798 175.813 142.633 176.253 143.301C176.692 143.969 177.39 144.303 178.345 144.303ZM178.406 135.637C179.619 135.637 180.645 136.041 181.482 136.85C182.32 137.658 182.739 138.848 182.739 140.418C182.739 141.936 182.37 143.189 181.632 144.18C180.894 145.17 179.748 145.665 178.195 145.665C176.9 145.665 175.872 145.229 175.11 144.355C174.349 143.477 173.968 142.299 173.968 140.822C173.968 139.24 174.369 137.98 175.172 137.043C175.975 136.105 177.053 135.637 178.406 135.637ZM184.673 135.909H186.176V137.535C186.299 137.219 186.601 136.835 187.081 136.384C187.562 135.927 188.115 135.698 188.742 135.698C188.771 135.698 188.821 135.701 188.892 135.707C188.962 135.713 189.082 135.725 189.252 135.742V137.412C189.158 137.395 189.07 137.383 188.988 137.377C188.912 137.371 188.827 137.368 188.733 137.368C187.937 137.368 187.324 137.626 186.896 138.142C186.469 138.651 186.255 139.24 186.255 139.908V145.322H184.673V135.909ZM190.939 133.281H192.539V135.909H194.042V137.201H192.539V143.345C192.539 143.673 192.65 143.893 192.873 144.004C192.996 144.068 193.201 144.101 193.488 144.101C193.564 144.101 193.646 144.101 193.734 144.101C193.822 144.095 193.925 144.086 194.042 144.074V145.322C193.86 145.375 193.67 145.413 193.471 145.437C193.277 145.46 193.066 145.472 192.838 145.472C192.1 145.472 191.599 145.284 191.335 144.909C191.071 144.528 190.939 144.036 190.939 143.433V137.201H189.665V135.909H190.939V133.281ZM195.633 132.367H197.215V137.184C197.59 136.709 197.927 136.375 198.226 136.182C198.735 135.848 199.371 135.681 200.133 135.681C201.498 135.681 202.424 136.158 202.91 137.113C203.174 137.635 203.306 138.358 203.306 139.284V145.322H201.68V139.39C201.68 138.698 201.592 138.191 201.416 137.869C201.129 137.354 200.59 137.096 199.799 137.096C199.143 137.096 198.548 137.321 198.015 137.772C197.481 138.224 197.215 139.076 197.215 140.33V145.322H195.633V132.367ZM216.516 140.031L214.556 134.327L212.473 140.031H216.516ZM213.642 132.411H215.619L220.304 145.322H218.388L217.078 141.455H211.972L210.574 145.322H208.781L213.642 132.411ZM221.684 135.909H223.248V137.245C223.623 136.782 223.963 136.445 224.268 136.234C224.789 135.877 225.381 135.698 226.043 135.698C226.793 135.698 227.396 135.883 227.854 136.252C228.111 136.463 228.346 136.773 228.557 137.184C228.908 136.68 229.321 136.308 229.796 136.067C230.271 135.821 230.804 135.698 231.396 135.698C232.661 135.698 233.522 136.155 233.979 137.069C234.226 137.562 234.349 138.224 234.349 139.056V145.322H232.705V138.783C232.705 138.156 232.547 137.726 232.23 137.491C231.92 137.257 231.539 137.14 231.088 137.14C230.467 137.14 229.931 137.348 229.479 137.764C229.034 138.18 228.812 138.874 228.812 139.847V145.322H227.203V139.179C227.203 138.54 227.127 138.074 226.975 137.781C226.734 137.342 226.286 137.122 225.63 137.122C225.032 137.122 224.487 137.354 223.995 137.816C223.509 138.279 223.266 139.117 223.266 140.33V145.322H221.684V135.909ZM240.598 135.698C241.266 135.698 241.913 135.856 242.54 136.173C243.167 136.483 243.645 136.888 243.973 137.386C244.289 137.86 244.5 138.414 244.605 139.047C244.699 139.48 244.746 140.172 244.746 141.121H237.847C237.876 142.076 238.102 142.844 238.523 143.424C238.945 143.998 239.599 144.285 240.483 144.285C241.31 144.285 241.969 144.013 242.461 143.468C242.742 143.151 242.941 142.785 243.059 142.369H244.614C244.573 142.715 244.436 143.102 244.201 143.529C243.973 143.951 243.715 144.297 243.428 144.566C242.947 145.035 242.353 145.352 241.644 145.516C241.263 145.609 240.832 145.656 240.352 145.656C239.18 145.656 238.187 145.231 237.372 144.382C236.558 143.526 236.15 142.331 236.15 140.796C236.15 139.284 236.561 138.057 237.381 137.113C238.201 136.17 239.273 135.698 240.598 135.698ZM243.12 139.864C243.056 139.179 242.906 138.631 242.672 138.221C242.238 137.459 241.515 137.078 240.501 137.078C239.774 137.078 239.165 137.342 238.673 137.869C238.181 138.391 237.92 139.056 237.891 139.864H243.12ZM246.741 135.909H248.244V137.535C248.367 137.219 248.669 136.835 249.149 136.384C249.63 135.927 250.184 135.698 250.811 135.698C250.84 135.698 250.89 135.701 250.96 135.707C251.03 135.713 251.15 135.725 251.32 135.742V137.412C251.227 137.395 251.139 137.383 251.057 137.377C250.98 137.371 250.896 137.368 250.802 137.368C250.005 137.368 249.393 137.626 248.965 138.142C248.537 138.651 248.323 139.24 248.323 139.908V145.322H246.741V135.909ZM252.691 135.953H254.3V145.322H252.691V135.953ZM252.691 132.411H254.3V134.204H252.691V132.411ZM260.329 135.637C261.39 135.637 262.251 135.895 262.913 136.41C263.581 136.926 263.982 137.813 264.117 139.073H262.579C262.485 138.493 262.271 138.013 261.938 137.632C261.604 137.245 261.067 137.052 260.329 137.052C259.321 137.052 258.601 137.544 258.167 138.528C257.886 139.167 257.745 139.955 257.745 140.893C257.745 141.836 257.944 142.63 258.343 143.274C258.741 143.919 259.368 144.241 260.224 144.241C260.88 144.241 261.398 144.042 261.779 143.644C262.166 143.239 262.433 142.688 262.579 141.991H264.117C263.941 143.239 263.502 144.153 262.799 144.733C262.096 145.308 261.196 145.595 260.101 145.595C258.87 145.595 257.889 145.146 257.156 144.25C256.424 143.348 256.058 142.223 256.058 140.875C256.058 139.223 256.459 137.937 257.262 137.017C258.064 136.097 259.087 135.637 260.329 135.637ZM266.912 142.817C266.912 143.274 267.079 143.635 267.413 143.898C267.747 144.162 268.143 144.294 268.6 144.294C269.156 144.294 269.695 144.165 270.217 143.907C271.096 143.479 271.535 142.779 271.535 141.807V140.532C271.342 140.655 271.093 140.758 270.788 140.84C270.483 140.922 270.185 140.98 269.892 141.016L268.934 141.139C268.359 141.215 267.929 141.335 267.642 141.499C267.155 141.774 266.912 142.214 266.912 142.817ZM270.744 139.618C271.107 139.571 271.351 139.419 271.474 139.161C271.544 139.021 271.579 138.818 271.579 138.555C271.579 138.016 271.386 137.626 270.999 137.386C270.618 137.14 270.07 137.017 269.355 137.017C268.529 137.017 267.943 137.239 267.598 137.685C267.404 137.931 267.278 138.297 267.22 138.783H265.743C265.772 137.623 266.147 136.817 266.868 136.366C267.595 135.909 268.436 135.681 269.391 135.681C270.498 135.681 271.397 135.892 272.089 136.313C272.774 136.735 273.117 137.392 273.117 138.282V143.705C273.117 143.869 273.149 144.001 273.214 144.101C273.284 144.2 273.428 144.25 273.645 144.25C273.715 144.25 273.794 144.247 273.882 144.241C273.97 144.229 274.063 144.215 274.163 144.197V145.366C273.917 145.437 273.729 145.48 273.601 145.498C273.472 145.516 273.296 145.524 273.073 145.524C272.528 145.524 272.133 145.331 271.887 144.944C271.758 144.739 271.667 144.449 271.614 144.074C271.292 144.496 270.829 144.862 270.226 145.173C269.622 145.483 268.957 145.639 268.23 145.639C267.357 145.639 266.643 145.375 266.086 144.848C265.535 144.314 265.26 143.649 265.26 142.853C265.26 141.979 265.532 141.303 266.077 140.822C266.622 140.342 267.337 140.046 268.222 139.935L270.744 139.618Z" fill="#1363BF"/>
<path opacity="0.16" d="M309.477 295.115C309.518 295.848 309.69 296.442 309.995 296.899C310.575 297.755 311.598 298.183 313.062 298.183C313.719 298.183 314.316 298.089 314.855 297.901C315.898 297.538 316.42 296.888 316.42 295.95C316.42 295.247 316.2 294.746 315.761 294.447C315.315 294.154 314.618 293.899 313.669 293.683L311.92 293.287C310.777 293.029 309.969 292.745 309.494 292.435C308.674 291.896 308.264 291.09 308.264 290.018C308.264 288.857 308.665 287.905 309.468 287.161C310.271 286.417 311.407 286.045 312.878 286.045C314.231 286.045 315.38 286.373 316.323 287.029C317.272 287.68 317.747 288.723 317.747 290.158H316.104C316.016 289.467 315.828 288.937 315.541 288.567C315.008 287.894 314.103 287.557 312.825 287.557C311.794 287.557 311.053 287.773 310.602 288.207C310.15 288.641 309.925 289.145 309.925 289.719C309.925 290.352 310.188 290.814 310.716 291.107C311.062 291.295 311.844 291.529 313.062 291.811L314.873 292.224C315.746 292.423 316.42 292.695 316.895 293.041C317.715 293.645 318.125 294.521 318.125 295.669C318.125 297.099 317.604 298.121 316.561 298.736C315.523 299.352 314.316 299.659 312.939 299.659C311.334 299.659 310.077 299.249 309.169 298.429C308.261 297.614 307.815 296.51 307.833 295.115H309.477ZM323.864 298.262C324.913 298.262 325.631 297.866 326.018 297.075C326.41 296.278 326.606 295.394 326.606 294.421C326.606 293.542 326.466 292.827 326.185 292.276C325.739 291.409 324.972 290.976 323.882 290.976C322.915 290.976 322.212 291.345 321.772 292.083C321.333 292.821 321.113 293.712 321.113 294.755C321.113 295.757 321.333 296.592 321.772 297.26C322.212 297.928 322.909 298.262 323.864 298.262ZM323.926 289.596C325.139 289.596 326.164 290 327.002 290.809C327.84 291.617 328.259 292.807 328.259 294.377C328.259 295.895 327.89 297.148 327.151 298.139C326.413 299.129 325.268 299.624 323.715 299.624C322.42 299.624 321.392 299.188 320.63 298.314C319.868 297.436 319.487 296.258 319.487 294.781C319.487 293.199 319.889 291.939 320.691 291.002C321.494 290.064 322.572 289.596 323.926 289.596ZM331.73 289.868V296.117C331.73 296.598 331.807 296.99 331.959 297.295C332.24 297.857 332.765 298.139 333.532 298.139C334.634 298.139 335.384 297.646 335.782 296.662C335.999 296.135 336.107 295.411 336.107 294.491V289.868H337.689V299.281H336.195L336.213 297.893C336.008 298.25 335.753 298.552 335.448 298.798C334.845 299.29 334.112 299.536 333.251 299.536C331.909 299.536 330.995 299.088 330.509 298.191C330.245 297.711 330.113 297.069 330.113 296.267V289.868H331.73ZM340.484 287.24H342.084V289.868H343.587V291.16H342.084V297.304C342.084 297.632 342.195 297.852 342.418 297.963C342.541 298.027 342.746 298.06 343.033 298.06C343.109 298.06 343.191 298.06 343.279 298.06C343.367 298.054 343.47 298.045 343.587 298.033V299.281C343.405 299.334 343.215 299.372 343.016 299.396C342.822 299.419 342.611 299.431 342.383 299.431C341.645 299.431 341.144 299.243 340.88 298.868C340.616 298.487 340.484 297.995 340.484 297.392V291.16H339.21V289.868H340.484V287.24ZM345.178 286.326H346.76V291.143C347.135 290.668 347.472 290.334 347.771 290.141C348.28 289.807 348.916 289.64 349.678 289.64C351.043 289.64 351.969 290.117 352.455 291.072C352.719 291.594 352.851 292.317 352.851 293.243V299.281H351.225V293.349C351.225 292.657 351.137 292.15 350.961 291.828C350.674 291.312 350.135 291.055 349.344 291.055C348.688 291.055 348.093 291.28 347.56 291.731C347.026 292.183 346.76 293.035 346.76 294.289V299.281H345.178V286.326ZM305.478 314.99L303.518 309.286L301.435 314.99H305.478ZM302.604 307.37H304.581L309.266 320.281H307.35L306.04 316.414H300.934L299.536 320.281H297.743L302.604 307.37ZM310.646 310.868H312.21V312.204C312.585 311.741 312.925 311.404 313.229 311.193C313.751 310.836 314.343 310.657 315.005 310.657C315.755 310.657 316.358 310.842 316.815 311.211C317.073 311.422 317.308 311.732 317.519 312.143C317.87 311.639 318.283 311.267 318.758 311.026C319.232 310.78 319.766 310.657 320.357 310.657C321.623 310.657 322.484 311.114 322.941 312.028C323.188 312.521 323.311 313.183 323.311 314.015V320.281H321.667V313.742C321.667 313.115 321.509 312.685 321.192 312.45C320.882 312.216 320.501 312.099 320.05 312.099C319.429 312.099 318.893 312.307 318.441 312.723C317.996 313.139 317.773 313.833 317.773 314.806V320.281H316.165V314.138C316.165 313.499 316.089 313.033 315.937 312.74C315.696 312.301 315.248 312.081 314.592 312.081C313.994 312.081 313.449 312.312 312.957 312.775C312.471 313.238 312.228 314.076 312.228 315.289V320.281H310.646V310.868ZM329.56 310.657C330.228 310.657 330.875 310.815 331.502 311.132C332.129 311.442 332.606 311.847 332.935 312.345C333.251 312.819 333.462 313.373 333.567 314.006C333.661 314.439 333.708 315.131 333.708 316.08H326.809C326.838 317.035 327.063 317.803 327.485 318.383C327.907 318.957 328.561 319.244 329.445 319.244C330.271 319.244 330.931 318.972 331.423 318.427C331.704 318.11 331.903 317.744 332.021 317.328H333.576C333.535 317.674 333.397 318.061 333.163 318.488C332.935 318.91 332.677 319.256 332.39 319.525C331.909 319.994 331.314 320.311 330.605 320.475C330.225 320.568 329.794 320.615 329.313 320.615C328.142 320.615 327.148 320.19 326.334 319.341C325.52 318.485 325.112 317.29 325.112 315.755C325.112 314.243 325.522 313.016 326.343 312.072C327.163 311.129 328.235 310.657 329.56 310.657ZM332.082 314.823C332.018 314.138 331.868 313.59 331.634 313.18C331.2 312.418 330.477 312.037 329.463 312.037C328.736 312.037 328.127 312.301 327.635 312.828C327.143 313.35 326.882 314.015 326.853 314.823H332.082ZM335.703 310.868H337.206V312.494C337.329 312.178 337.631 311.794 338.111 311.343C338.592 310.886 339.146 310.657 339.772 310.657C339.802 310.657 339.852 310.66 339.922 310.666C339.992 310.672 340.112 310.684 340.282 310.701V312.371C340.188 312.354 340.101 312.342 340.019 312.336C339.942 312.33 339.857 312.327 339.764 312.327C338.967 312.327 338.354 312.585 337.927 313.101C337.499 313.61 337.285 314.199 337.285 314.867V320.281H335.703V310.868ZM341.653 310.912H343.262V320.281H341.653V310.912ZM341.653 307.37H343.262V309.163H341.653V307.37ZM349.291 310.596C350.352 310.596 351.213 310.854 351.875 311.369C352.543 311.885 352.944 312.772 353.079 314.032H351.541C351.447 313.452 351.233 312.972 350.899 312.591C350.565 312.204 350.029 312.011 349.291 312.011C348.283 312.011 347.562 312.503 347.129 313.487C346.848 314.126 346.707 314.914 346.707 315.852C346.707 316.795 346.906 317.589 347.305 318.233C347.703 318.878 348.33 319.2 349.186 319.2C349.842 319.2 350.36 319.001 350.741 318.603C351.128 318.198 351.395 317.647 351.541 316.95H353.079C352.903 318.198 352.464 319.112 351.761 319.692C351.058 320.267 350.158 320.554 349.062 320.554C347.832 320.554 346.851 320.105 346.118 319.209C345.386 318.307 345.02 317.182 345.02 315.834C345.02 314.182 345.421 312.896 346.224 311.976C347.026 311.056 348.049 310.596 349.291 310.596ZM355.874 317.776C355.874 318.233 356.041 318.594 356.375 318.857C356.709 319.121 357.104 319.253 357.562 319.253C358.118 319.253 358.657 319.124 359.179 318.866C360.058 318.438 360.497 317.738 360.497 316.766V315.491C360.304 315.614 360.055 315.717 359.75 315.799C359.445 315.881 359.146 315.939 358.854 315.975L357.896 316.098C357.321 316.174 356.891 316.294 356.604 316.458C356.117 316.733 355.874 317.173 355.874 317.776ZM359.706 314.577C360.069 314.53 360.312 314.378 360.436 314.12C360.506 313.979 360.541 313.777 360.541 313.514C360.541 312.975 360.348 312.585 359.961 312.345C359.58 312.099 359.032 311.976 358.317 311.976C357.491 311.976 356.905 312.198 356.56 312.644C356.366 312.89 356.24 313.256 356.182 313.742H354.705C354.734 312.582 355.109 311.776 355.83 311.325C356.557 310.868 357.397 310.64 358.353 310.64C359.46 310.64 360.359 310.851 361.051 311.272C361.736 311.694 362.079 312.351 362.079 313.241V318.664C362.079 318.828 362.111 318.96 362.176 319.06C362.246 319.159 362.39 319.209 362.606 319.209C362.677 319.209 362.756 319.206 362.844 319.2C362.932 319.188 363.025 319.174 363.125 319.156V320.325C362.879 320.396 362.691 320.439 362.562 320.457C362.434 320.475 362.258 320.483 362.035 320.483C361.49 320.483 361.095 320.29 360.849 319.903C360.72 319.698 360.629 319.408 360.576 319.033C360.254 319.455 359.791 319.821 359.188 320.132C358.584 320.442 357.919 320.598 357.192 320.598C356.319 320.598 355.604 320.334 355.048 319.807C354.497 319.273 354.222 318.608 354.222 317.812C354.222 316.938 354.494 316.262 355.039 315.781C355.584 315.301 356.299 315.005 357.184 314.894L359.706 314.577Z" fill="#1363BF"/>
<path opacity="0.16" d="M974.456 307.987L972.496 302.283L970.413 307.987H974.456ZM971.582 300.367H973.56L978.244 313.278H976.328L975.019 309.411H969.912L968.515 313.278H966.722L971.582 300.367ZM981.206 303.865V310.114C981.206 310.594 981.282 310.987 981.435 311.292C981.716 311.854 982.24 312.135 983.008 312.135C984.109 312.135 984.859 311.643 985.258 310.659C985.475 310.132 985.583 309.408 985.583 308.488V303.865H987.165V313.278H985.671L985.688 311.889C985.483 312.247 985.229 312.549 984.924 312.795C984.32 313.287 983.588 313.533 982.727 313.533C981.385 313.533 980.471 313.085 979.984 312.188C979.721 311.708 979.589 311.066 979.589 310.263V303.865H981.206ZM990.584 310.325C990.631 310.852 990.763 311.257 990.979 311.538C991.378 312.048 992.069 312.302 993.054 312.302C993.64 312.302 994.155 312.177 994.601 311.925C995.046 311.667 995.269 311.271 995.269 310.738C995.269 310.334 995.09 310.026 994.732 309.815C994.504 309.686 994.053 309.537 993.379 309.367L992.122 309.051C991.319 308.851 990.728 308.629 990.347 308.383C989.667 307.955 989.327 307.363 989.327 306.607C989.327 305.717 989.646 304.996 990.285 304.445C990.93 303.894 991.794 303.619 992.878 303.619C994.296 303.619 995.318 304.035 995.945 304.867C996.338 305.394 996.528 305.963 996.517 306.572H995.022C994.993 306.215 994.867 305.889 994.645 305.596C994.281 305.18 993.651 304.972 992.755 304.972C992.157 304.972 991.703 305.087 991.393 305.315C991.088 305.544 990.936 305.845 990.936 306.22C990.936 306.631 991.138 306.959 991.542 307.205C991.776 307.351 992.122 307.48 992.579 307.592L993.625 307.846C994.762 308.122 995.523 308.388 995.91 308.646C996.525 309.051 996.833 309.686 996.833 310.553C996.833 311.391 996.514 312.115 995.875 312.724C995.242 313.334 994.275 313.638 992.975 313.638C991.574 313.638 990.581 313.322 989.995 312.689C989.415 312.051 989.104 311.262 989.063 310.325H990.584ZM998.96 301.237H1000.56V303.865H1002.06V305.157H1000.56V311.301C1000.56 311.629 1000.67 311.848 1000.89 311.96C1001.02 312.024 1001.22 312.056 1001.51 312.056C1001.58 312.056 1001.67 312.056 1001.75 312.056C1001.84 312.051 1001.95 312.042 1002.06 312.03V313.278C1001.88 313.331 1001.69 313.369 1001.49 313.392C1001.3 313.416 1001.09 313.427 1000.86 313.427C1000.12 313.427 999.619 313.24 999.355 312.865C999.092 312.484 998.96 311.992 998.96 311.388V305.157H997.686V303.865H998.96V301.237ZM1003.7 303.865H1005.2V305.491C1005.32 305.175 1005.62 304.791 1006.11 304.34C1006.59 303.883 1007.14 303.654 1007.77 303.654C1007.8 303.654 1007.85 303.657 1007.92 303.663C1007.99 303.669 1008.11 303.68 1008.28 303.698V305.368C1008.18 305.35 1008.09 305.339 1008.01 305.333C1007.94 305.327 1007.85 305.324 1007.76 305.324C1006.96 305.324 1006.35 305.582 1005.92 306.097C1005.49 306.607 1005.28 307.196 1005.28 307.864V313.278H1003.7V303.865ZM1010.86 310.773C1010.86 311.23 1011.03 311.591 1011.36 311.854C1011.7 312.118 1012.09 312.25 1012.55 312.25C1013.1 312.25 1013.64 312.121 1014.17 311.863C1015.04 311.435 1015.48 310.735 1015.48 309.762V308.488C1015.29 308.611 1015.04 308.714 1014.74 308.796C1014.43 308.878 1014.13 308.936 1013.84 308.971L1012.88 309.094C1012.31 309.171 1011.88 309.291 1011.59 309.455C1011.1 309.73 1010.86 310.17 1010.86 310.773ZM1014.69 307.574C1015.06 307.527 1015.3 307.375 1015.42 307.117C1015.49 306.976 1015.53 306.774 1015.53 306.51C1015.53 305.971 1015.33 305.582 1014.95 305.342C1014.57 305.095 1014.02 304.972 1013.3 304.972C1012.48 304.972 1011.89 305.195 1011.55 305.64C1011.35 305.886 1011.23 306.253 1011.17 306.739H1009.69C1009.72 305.579 1010.1 304.773 1010.82 304.322C1011.54 303.865 1012.38 303.636 1013.34 303.636C1014.45 303.636 1015.35 303.847 1016.04 304.269C1016.72 304.691 1017.07 305.347 1017.07 306.238V311.661C1017.07 311.825 1017.1 311.957 1017.16 312.056C1017.23 312.156 1017.38 312.206 1017.59 312.206C1017.66 312.206 1017.74 312.203 1017.83 312.197C1017.92 312.185 1018.01 312.171 1018.11 312.153V313.322C1017.87 313.392 1017.68 313.436 1017.55 313.454C1017.42 313.471 1017.24 313.48 1017.02 313.48C1016.48 313.48 1016.08 313.287 1015.83 312.9C1015.71 312.695 1015.62 312.405 1015.56 312.03C1015.24 312.452 1014.78 312.818 1014.17 313.129C1013.57 313.439 1012.91 313.594 1012.18 313.594C1011.31 313.594 1010.59 313.331 1010.03 312.803C1009.48 312.27 1009.21 311.605 1009.21 310.808C1009.21 309.935 1009.48 309.259 1010.03 308.778C1010.57 308.298 1011.29 308.002 1012.17 307.89L1014.69 307.574ZM1019.71 300.367H1021.29V313.278H1019.71V300.367ZM1023.67 303.909H1025.28V313.278H1023.67V303.909ZM1023.67 300.367H1025.28V302.16H1023.67V300.367ZM1028.9 310.773C1028.9 311.23 1029.06 311.591 1029.4 311.854C1029.73 312.118 1030.13 312.25 1030.58 312.25C1031.14 312.25 1031.68 312.121 1032.2 311.863C1033.08 311.435 1033.52 310.735 1033.52 309.762V308.488C1033.33 308.611 1033.08 308.714 1032.77 308.796C1032.47 308.878 1032.17 308.936 1031.88 308.971L1030.92 309.094C1030.34 309.171 1029.91 309.291 1029.62 309.455C1029.14 309.73 1028.9 310.17 1028.9 310.773ZM1032.73 307.574C1033.09 307.527 1033.33 307.375 1033.46 307.117C1033.53 306.976 1033.56 306.774 1033.56 306.51C1033.56 305.971 1033.37 305.582 1032.98 305.342C1032.6 305.095 1032.05 304.972 1031.34 304.972C1030.51 304.972 1029.93 305.195 1029.58 305.64C1029.39 305.886 1029.26 306.253 1029.2 306.739H1027.73C1027.76 305.579 1028.13 304.773 1028.85 304.322C1029.58 303.865 1030.42 303.636 1031.37 303.636C1032.48 303.636 1033.38 303.847 1034.07 304.269C1034.76 304.691 1035.1 305.347 1035.1 306.238V311.661C1035.1 311.825 1035.13 311.957 1035.2 312.056C1035.27 312.156 1035.41 312.206 1035.63 312.206C1035.7 312.206 1035.78 312.203 1035.87 312.197C1035.95 312.185 1036.05 312.171 1036.15 312.153V313.322C1035.9 313.392 1035.71 313.436 1035.58 313.454C1035.46 313.471 1035.28 313.48 1035.06 313.48C1034.51 313.48 1034.12 313.287 1033.87 312.9C1033.74 312.695 1033.65 312.405 1033.6 312.03C1033.28 312.452 1032.81 312.818 1032.21 313.129C1031.61 313.439 1030.94 313.594 1030.21 313.594C1029.34 313.594 1028.63 313.331 1028.07 312.803C1027.52 312.27 1027.24 311.605 1027.24 310.808C1027.24 309.935 1027.52 309.259 1028.06 308.778C1028.61 308.298 1029.32 308.002 1030.21 307.89L1032.73 307.574Z" fill="#1363BF"/>
<path opacity="0.16" d="M826.481 124.035L824.521 118.331L822.438 124.035H826.481ZM823.607 116.415H825.585L830.27 129.326H828.354L827.044 125.459H821.938L820.54 129.326H818.747L823.607 116.415ZM832.59 126.373C832.637 126.901 832.769 127.305 832.985 127.586C833.384 128.096 834.075 128.351 835.06 128.351C835.646 128.351 836.161 128.225 836.606 127.973C837.052 127.715 837.274 127.32 837.274 126.786C837.274 126.382 837.096 126.074 836.738 125.864C836.51 125.735 836.059 125.585 835.385 125.415L834.128 125.099C833.325 124.9 832.733 124.677 832.353 124.431C831.673 124.003 831.333 123.411 831.333 122.656C831.333 121.765 831.652 121.044 832.291 120.493C832.936 119.943 833.8 119.667 834.884 119.667C836.302 119.667 837.324 120.083 837.951 120.915C838.344 121.443 838.534 122.011 838.522 122.62H837.028C836.999 122.263 836.873 121.938 836.65 121.645C836.287 121.229 835.657 121.021 834.761 121.021C834.163 121.021 833.709 121.135 833.398 121.364C833.094 121.592 832.941 121.894 832.941 122.269C832.941 122.679 833.144 123.007 833.548 123.253C833.782 123.4 834.128 123.529 834.585 123.64L835.631 123.895C836.768 124.17 837.529 124.437 837.916 124.695C838.531 125.099 838.839 125.735 838.839 126.602C838.839 127.44 838.52 128.163 837.881 128.773C837.248 129.382 836.281 129.687 834.98 129.687C833.58 129.687 832.587 129.37 832.001 128.738C831.421 128.099 831.11 127.311 831.069 126.373H832.59ZM840.649 119.957H842.258V129.326H840.649V119.957ZM840.649 116.415H842.258V118.208H840.649V116.415ZM845.87 126.822C845.87 127.279 846.037 127.639 846.371 127.903C846.705 128.166 847.101 128.298 847.558 128.298C848.114 128.298 848.653 128.169 849.175 127.911C850.054 127.484 850.493 126.783 850.493 125.811V124.536C850.3 124.659 850.051 124.762 849.746 124.844C849.441 124.926 849.143 124.985 848.85 125.02L847.892 125.143C847.317 125.219 846.887 125.339 846.6 125.503C846.113 125.779 845.87 126.218 845.87 126.822ZM849.702 123.622C850.065 123.575 850.309 123.423 850.432 123.165C850.502 123.025 850.537 122.823 850.537 122.559C850.537 122.02 850.344 121.63 849.957 121.39C849.576 121.144 849.028 121.021 848.313 121.021C847.487 121.021 846.901 121.243 846.556 121.689C846.362 121.935 846.236 122.301 846.178 122.787H844.701C844.73 121.627 845.105 120.822 845.826 120.37C846.553 119.913 847.394 119.685 848.349 119.685C849.456 119.685 850.355 119.896 851.047 120.318C851.732 120.74 852.075 121.396 852.075 122.286V127.709C852.075 127.873 852.107 128.005 852.172 128.105C852.242 128.204 852.386 128.254 852.603 128.254C852.673 128.254 852.752 128.251 852.84 128.245C852.928 128.234 853.021 128.219 853.121 128.201V129.37C852.875 129.441 852.688 129.485 852.559 129.502C852.43 129.52 852.254 129.529 852.031 129.529C851.486 129.529 851.091 129.335 850.845 128.948C850.716 128.743 850.625 128.453 850.572 128.078C850.25 128.5 849.787 128.866 849.184 129.177C848.58 129.488 847.915 129.643 847.188 129.643C846.315 129.643 845.601 129.379 845.044 128.852C844.493 128.319 844.218 127.654 844.218 126.857C844.218 125.984 844.49 125.307 845.035 124.826C845.58 124.346 846.295 124.05 847.18 123.939L849.702 123.622Z" fill="#1363BF"/>
<path opacity="0.16" d="M636.999 95.4209H646.412V97.0029H638.704V100.923H645.832V102.417H638.704V106.794H646.544V108.332H636.999V95.4209ZM650.209 98.9189V105.168C650.209 105.648 650.285 106.041 650.438 106.346C650.719 106.908 651.243 107.189 652.011 107.189C653.112 107.189 653.862 106.697 654.261 105.713C654.478 105.186 654.586 104.462 654.586 103.542V98.9189H656.168V108.332H654.674L654.691 106.943C654.486 107.301 654.231 107.603 653.927 107.849C653.323 108.341 652.591 108.587 651.729 108.587C650.388 108.587 649.474 108.139 648.987 107.242C648.724 106.762 648.592 106.12 648.592 105.317V98.9189H650.209ZM658.69 98.9189H660.193V100.545C660.316 100.229 660.618 99.8447 661.099 99.3936C661.579 98.9365 662.133 98.708 662.76 98.708C662.789 98.708 662.839 98.7109 662.909 98.7168C662.979 98.7227 663.1 98.7344 663.27 98.752V100.422C663.176 100.404 663.088 100.393 663.006 100.387C662.93 100.381 662.845 100.378 662.751 100.378C661.954 100.378 661.342 100.636 660.914 101.151C660.486 101.661 660.272 102.25 660.272 102.918V108.332H658.69V98.9189ZM668.376 107.312C669.425 107.312 670.143 106.917 670.529 106.126C670.922 105.329 671.118 104.444 671.118 103.472C671.118 102.593 670.978 101.878 670.696 101.327C670.251 100.46 669.483 100.026 668.394 100.026C667.427 100.026 666.724 100.396 666.284 101.134C665.845 101.872 665.625 102.763 665.625 103.806C665.625 104.808 665.845 105.643 666.284 106.311C666.724 106.979 667.421 107.312 668.376 107.312ZM668.438 98.6465C669.65 98.6465 670.676 99.0508 671.514 99.8594C672.352 100.668 672.771 101.857 672.771 103.428C672.771 104.945 672.401 106.199 671.663 107.189C670.925 108.18 669.779 108.675 668.227 108.675C666.932 108.675 665.903 108.238 665.142 107.365C664.38 106.486 663.999 105.309 663.999 103.832C663.999 102.25 664.4 100.99 665.203 100.053C666.006 99.1152 667.084 98.6465 668.438 98.6465ZM678.633 107.269C679.371 107.269 679.983 106.961 680.47 106.346C680.962 105.725 681.208 104.799 681.208 103.568C681.208 102.818 681.1 102.174 680.883 101.635C680.473 100.598 679.723 100.079 678.633 100.079C677.537 100.079 676.787 100.627 676.383 101.723C676.166 102.309 676.058 103.053 676.058 103.955C676.058 104.682 676.166 105.3 676.383 105.81C676.793 106.782 677.543 107.269 678.633 107.269ZM674.537 98.9629H676.075V100.211C676.392 99.7832 676.737 99.4521 677.112 99.2178C677.646 98.8662 678.272 98.6904 678.993 98.6904C680.06 98.6904 680.965 99.1006 681.709 99.9209C682.453 100.735 682.825 101.901 682.825 103.419C682.825 105.47 682.289 106.935 681.217 107.813C680.537 108.37 679.746 108.648 678.844 108.648C678.135 108.648 677.54 108.493 677.06 108.183C676.778 108.007 676.465 107.705 676.119 107.277V112.085H674.537V98.9629ZM688.6 98.708C689.268 98.708 689.915 98.8662 690.542 99.1826C691.169 99.4932 691.646 99.8975 691.975 100.396C692.291 100.87 692.502 101.424 692.607 102.057C692.701 102.49 692.748 103.182 692.748 104.131H685.849C685.878 105.086 686.104 105.854 686.525 106.434C686.947 107.008 687.601 107.295 688.485 107.295C689.312 107.295 689.971 107.022 690.463 106.478C690.744 106.161 690.943 105.795 691.061 105.379H692.616C692.575 105.725 692.438 106.111 692.203 106.539C691.975 106.961 691.717 107.307 691.43 107.576C690.949 108.045 690.354 108.361 689.646 108.525C689.265 108.619 688.834 108.666 688.354 108.666C687.182 108.666 686.188 108.241 685.374 107.392C684.56 106.536 684.152 105.341 684.152 103.806C684.152 102.294 684.562 101.066 685.383 100.123C686.203 99.1797 687.275 98.708 688.6 98.708ZM691.122 102.874C691.058 102.188 690.908 101.641 690.674 101.23C690.24 100.469 689.517 100.088 688.503 100.088C687.776 100.088 687.167 100.352 686.675 100.879C686.183 101.4 685.922 102.065 685.893 102.874H691.122Z" fill="#1363BF"/>
<path d="M911.066 146.376V148H918.794V146.376H911.066ZM910.31 142.358V148.56H912.032V143.968H917.87V148.56H919.676V142.358H910.31ZM913.054 135.316C912.452 136.884 911.346 138.9 910.408 140.174L911.92 140.776C912.872 139.558 914.062 137.682 914.972 135.946L913.054 135.316ZM916.414 137.822C917.814 139.026 919.41 140.734 920.068 141.91L921.538 140.79C920.81 139.586 919.13 137.962 917.744 136.842L916.414 137.822ZM908.826 139.39L908.924 141.098C911.682 140.986 915.882 140.818 919.76 140.608L919.844 138.984C915.994 139.152 911.654 139.32 908.826 139.39ZM922.77 138.746V140.426H926.928V138.746H922.77ZM929.616 135.666V145.732C929.616 147.72 930.092 148.308 931.702 148.308C932.01 148.308 933.242 148.308 933.578 148.308C935.16 148.308 935.58 147.272 935.734 144.584C935.272 144.472 934.544 144.136 934.138 143.814C934.04 146.082 933.942 146.656 933.41 146.656C933.158 146.656 932.192 146.656 931.954 146.656C931.45 146.656 931.366 146.544 931.366 145.76V135.666H929.616ZM926.102 135.652V148.42H927.852V135.652H926.102ZM934.25 137.752C933.13 138.704 931.492 139.908 929.966 140.692C930.204 141.056 930.526 141.644 930.652 142.022C932.234 141.224 934.012 140.244 935.454 139.264L934.25 137.752ZM922.28 145.102L923.022 146.824C924.254 146.32 925.78 145.69 927.18 145.06L926.872 143.534C925.192 144.136 923.414 144.766 922.28 145.102Z" fill="#18ACEF"/>
<g clip-path="url(#clip0_585_8974)">
<path fill-rule="evenodd" clip-rule="evenodd" d="M921.399 181.354C921.942 181.354 931.651 170.791 931.651 165.026C931.651 159.261 927.061 154.587 921.399 154.587C915.736 154.587 911.146 159.261 911.146 165.026C911.146 170.791 920.855 181.354 921.399 181.354ZM921.399 170.247C924.269 170.247 926.597 167.878 926.597 164.955C926.597 162.032 924.269 159.662 921.399 159.662C918.528 159.662 916.201 162.032 916.201 164.955C916.201 167.878 918.528 170.247 921.399 170.247Z" fill="#1DAEEF"/>
<path fill-rule="evenodd" clip-rule="evenodd" d="M911.146 165.026C911.146 170.791 920.855 181.354 921.399 181.354V170.247C918.528 170.247 916.201 167.878 916.201 164.955C916.201 162.032 918.528 159.662 921.399 159.662V154.587C915.736 154.587 911.146 159.261 911.146 165.026Z" fill="#3EC3FF"/>
</g>
<path d="M270.118 136.352V137.318H275.718V136.352H270.118ZM269.908 141.42V142.4H277.44V141.42H269.908ZM269.334 147.062V148.042H277.468V147.062H269.334ZM272.008 136.744C271.826 140.118 271.378 144.878 271 147.566H272.064C272.4 144.934 272.82 140.188 273.044 136.744H272.008ZM275.172 136.352C275.2 139.894 275.046 144.85 274.85 147.664H275.886C276.068 144.906 276.18 139.95 276.18 136.352H275.172ZM266.73 135.568C266.366 136.492 265.722 137.836 265.19 138.634L265.918 138.97C266.464 138.2 267.122 136.954 267.654 135.932L266.73 135.568ZM268.298 137.164C267.556 138.676 266.24 140.804 265.204 142.064L265.848 142.428C266.884 141.196 268.228 139.166 269.18 137.556L268.298 137.164ZM264.518 138.508C265.274 139.18 266.156 140.16 266.534 140.818L267.094 140.02C266.716 139.39 265.834 138.48 265.05 137.822L264.518 138.508ZM267.808 140.412C268.368 141.336 268.886 142.568 269.082 143.352L269.866 142.988C269.67 142.218 269.11 141.014 268.536 140.118L267.808 140.412ZM264.476 141.84L264.56 142.792C265.834 142.708 267.528 142.61 269.208 142.498L269.222 141.63C267.444 141.728 265.694 141.798 264.476 141.84ZM268.172 143.716C268.522 144.528 268.9 145.606 269.026 146.306L269.838 146.026C269.698 145.326 269.32 144.262 268.928 143.478L268.172 143.716ZM265.26 143.562C265.092 144.794 264.812 146.04 264.35 146.894C264.574 146.992 264.994 147.188 265.176 147.3C265.624 146.404 265.974 145.046 266.17 143.73L265.26 143.562ZM266.772 142.232V148.476H267.71V142.232H266.772ZM285.154 141.574C285.938 142.582 286.75 143.968 287.058 144.85L287.982 144.36C287.646 143.464 286.806 142.12 286.008 141.14L285.154 141.574ZM285.238 138.088V139.082H290.558V138.088H285.238ZM290.138 138.088V138.326C289.914 144.374 289.676 146.698 289.186 147.202C289.046 147.384 288.864 147.412 288.584 147.412C288.234 147.412 287.366 147.412 286.442 147.328C286.624 147.622 286.75 148.07 286.778 148.378C287.618 148.434 288.472 148.448 288.948 148.406C289.48 148.35 289.788 148.238 290.11 147.832C290.684 147.132 290.908 144.948 291.146 138.634C291.146 138.494 291.146 138.088 291.146 138.088H290.138ZM285.756 135.554C285.238 137.416 284.342 139.264 283.25 140.44C283.516 140.58 283.978 140.888 284.188 141.056C285.252 139.782 286.218 137.822 286.834 135.792L285.756 135.554ZM280.73 135.568C280.366 136.492 279.722 137.836 279.19 138.648L279.918 138.956C280.464 138.2 281.136 136.954 281.668 135.918L280.73 135.568ZM282.424 137.164C281.654 138.648 280.324 140.748 279.246 141.994L279.918 142.344C280.982 141.14 282.354 139.124 283.334 137.556L282.424 137.164ZM278.518 138.508C279.274 139.18 280.156 140.146 280.534 140.804L281.094 140.006C280.716 139.39 279.834 138.466 279.05 137.808L278.518 138.508ZM281.976 140.412C282.55 141.336 283.11 142.554 283.32 143.338L284.16 142.946C283.95 142.176 283.348 140.972 282.76 140.076L281.976 140.412ZM278.49 141.826L278.574 142.764C279.904 142.694 281.682 142.596 283.46 142.484V141.63C281.612 141.714 279.75 141.784 278.49 141.826ZM282.326 143.758C282.718 144.626 283.096 145.76 283.222 146.488L284.076 146.194C283.922 145.466 283.53 144.36 283.124 143.506L282.326 143.758ZM279.26 143.562C279.092 144.794 278.812 146.04 278.35 146.894C278.574 146.992 278.994 147.188 279.176 147.3C279.624 146.404 279.974 145.046 280.17 143.73L279.26 143.562ZM280.87 142.232V148.476H281.822V142.232H280.87Z" fill="#828282"/>
<g clip-path="url(#clip1_585_8974)">
<path fill-rule="evenodd" clip-rule="evenodd" d="M277.399 181.354C277.942 181.354 287.651 170.791 287.651 165.026C287.651 159.261 283.061 154.587 277.399 154.587C271.736 154.587 267.146 159.261 267.146 165.026C267.146 170.791 276.855 181.354 277.399 181.354ZM277.399 170.247C280.269 170.247 282.597 167.878 282.597 164.955C282.597 162.032 280.269 159.662 277.399 159.662C274.528 159.662 272.201 162.032 272.201 164.955C272.201 167.878 274.528 170.247 277.399 170.247Z" fill="#828282"/>
<path fill-rule="evenodd" clip-rule="evenodd" d="M267.146 165.026C267.146 170.791 276.855 181.354 277.399 181.354V170.247C274.528 170.247 272.201 167.878 272.201 164.955C272.201 162.032 274.528 159.662 277.399 159.662V154.587C271.736 154.587 267.146 159.261 267.146 165.026Z" fill="#BDBDBD"/>
</g>
<path d="M729.884 228.767V229.621H738.69V228.767H729.884ZM729.884 226.527V227.395H738.69V226.527H729.884ZM729.324 231.007V231.931H739.222V231.007H729.324ZM738.998 231.007V231.175C738.816 233.989 738.634 235.053 738.34 235.347C738.228 235.459 738.102 235.487 737.85 235.487C737.598 235.487 736.94 235.487 736.254 235.403C736.408 235.683 736.52 236.103 736.534 236.383C737.248 236.425 737.962 236.425 738.326 236.397C738.718 236.369 738.984 236.271 739.236 236.005C739.628 235.571 739.824 234.423 740.034 231.469C740.048 231.315 740.062 231.007 740.062 231.007H738.998ZM733.51 232.925C733.888 233.737 734.238 234.801 734.35 235.445L735.218 235.207C735.106 234.563 734.742 233.513 734.35 232.743L733.51 232.925ZM735.778 232.715C736.254 233.303 736.772 234.129 736.982 234.661L737.794 234.311C737.57 233.779 737.052 232.981 736.548 232.407L735.778 232.715ZM731.102 233.023C731.326 233.919 731.522 235.067 731.522 235.823L732.488 235.669C732.446 234.899 732.25 233.765 731.998 232.869L731.102 233.023ZM729.086 232.533C728.862 233.751 728.386 235.011 727.504 235.753L728.358 236.299C729.31 235.473 729.744 234.101 730.01 232.785L729.086 232.533ZM733.622 224.721V231.385H734.658V224.721H733.622ZM729.324 224.217V231.441H730.346V225.141H739.18V224.217H729.324ZM747.468 224.651V236.355H748.476V224.651H747.468ZM742.82 227.227V236.411H743.8V228.123H752.746V227.227H742.82ZM752.312 227.227V235.249C752.312 235.459 752.242 235.515 752.032 235.529C751.808 235.543 751.08 235.557 750.268 235.529C750.408 235.781 750.548 236.173 750.604 236.425C751.654 236.425 752.368 236.411 752.774 236.257C753.18 236.103 753.306 235.823 753.306 235.249V227.227H752.312ZM744.836 225.351C744.038 226.177 742.694 226.961 741.462 227.451C741.686 227.619 742.078 227.969 742.246 228.151C743.464 227.577 744.892 226.667 745.774 225.701L744.836 225.351ZM750.058 225.855C751.332 226.415 752.886 227.353 753.712 227.997L754.496 227.325C753.656 226.709 752.088 225.813 750.828 225.253L750.058 225.855ZM746.18 228.431C745.704 229.481 744.906 230.503 744.052 231.203C744.234 231.301 744.528 231.511 744.64 231.609C745.466 230.867 746.334 229.733 746.852 228.599L746.18 228.431ZM744.29 229.425C745.13 229.845 746.11 230.545 746.6 231.063L747.048 230.503C746.558 230.013 745.564 229.341 744.724 228.921L744.29 229.425ZM746.18 231.679C745.718 232.911 744.906 234.059 743.982 234.829C744.15 234.927 744.444 235.151 744.57 235.263C745.48 234.437 746.362 233.191 746.88 231.847L746.18 231.679ZM744.276 232.687C745.144 233.191 746.152 234.003 746.67 234.563L747.104 234.003C746.6 233.457 745.578 232.673 744.682 232.169L744.276 232.687ZM750.856 228.431C750.366 229.495 749.554 230.531 748.686 231.245C748.854 231.343 749.148 231.539 749.26 231.637C750.114 230.909 750.982 229.761 751.528 228.599L750.856 228.431ZM748.896 229.369C749.764 229.817 750.8 230.573 751.304 231.105L751.752 230.559C751.248 230.041 750.212 229.313 749.33 228.879L748.896 229.369ZM750.912 231.679C750.436 232.883 749.596 234.017 748.644 234.773C748.826 234.871 749.106 235.095 749.232 235.193C750.17 234.395 751.066 233.163 751.598 231.847L750.912 231.679ZM748.952 232.645C749.834 233.121 750.898 233.919 751.444 234.479L751.864 233.891C751.332 233.359 750.282 232.589 749.358 232.127L748.952 232.645ZM741.882 224.371V225.323H754.174V224.371H741.882ZM763.89 223.531V233.289H764.884V223.531H763.89ZM759.48 229.313L759.886 230.237L767.418 227.031L767.026 226.135L759.48 229.313ZM760.992 224.847V234.199C760.992 235.725 761.468 236.103 763.078 236.103C763.428 236.103 766.144 236.103 766.522 236.103C767.992 236.103 768.328 235.487 768.496 233.555C768.202 233.499 767.796 233.331 767.544 233.163C767.446 234.773 767.306 235.151 766.48 235.151C765.92 235.151 763.568 235.151 763.106 235.151C762.168 235.151 762 234.983 762 234.213V224.847H760.992ZM766.844 226.275C766.844 229.061 766.83 231.049 766.746 231.413C766.676 231.735 766.536 231.791 766.326 231.791C766.172 231.791 765.71 231.791 765.388 231.777C765.514 232.015 765.598 232.407 765.64 232.687C766.018 232.687 766.578 232.687 766.956 232.589C767.362 232.491 767.628 232.225 767.712 231.665C767.81 231.119 767.852 229.019 767.852 226.387L767.894 226.191L767.152 225.911L766.97 226.065L766.718 226.275H766.844ZM755.574 226.905V227.899H760.026V226.905H755.574ZM757.38 223.699V232.785H758.374V223.699H757.38ZM755.448 233.149L755.868 234.185C757.114 233.653 758.696 232.939 760.194 232.225L759.97 231.287C758.304 232.001 756.582 232.729 755.448 233.149ZM769.91 229.621V230.685H782.09V229.621H769.91ZM770.862 225.659V226.737H781.306V225.659H770.862ZM776.378 229.901L775.398 230.125C776.434 233.429 778.436 235.501 781.838 236.369C781.992 236.075 782.3 235.627 782.538 235.389C779.262 234.689 777.26 232.785 776.378 229.901ZM775.384 223.531V227.885C775.384 230.713 774.81 233.751 769.546 235.487C769.77 235.711 770.078 236.173 770.204 236.425C775.832 234.521 776.49 231.133 776.49 227.885V223.531H775.384Z" fill="#828282"/>
<g clip-path="url(#clip2_585_8974)">
<path fill-rule="evenodd" clip-rule="evenodd" d="M754.399 269.331C754.942 269.331 764.651 258.768 764.651 253.003C764.651 247.238 760.061 242.564 754.399 242.564C748.736 242.564 744.146 247.238 744.146 253.003C744.146 258.768 753.855 269.331 754.399 269.331ZM754.399 258.224C757.269 258.224 759.597 255.855 759.597 252.932C759.597 250.009 757.269 247.639 754.399 247.639C751.528 247.639 749.201 250.009 749.201 252.932C749.201 255.855 751.528 258.224 754.399 258.224Z" fill="#828282"/>
<path fill-rule="evenodd" clip-rule="evenodd" d="M744.146 253.003C744.146 258.768 753.855 269.331 754.399 269.331V258.224C751.528 258.224 749.201 255.855 749.201 252.932C749.201 250.009 751.528 247.639 754.399 247.639V242.564C748.736 242.564 744.146 247.238 744.146 253.003Z" fill="#BDBDBD"/>
</g>
<path d="M847.114 108.54V109.52H857.026V108.54H847.114ZM846.428 101.526V110.388H847.45V102.506H856.564V110.346H857.628V101.526H846.428ZM852.868 101.974V104.942C852.868 105.95 853.12 106.23 854.156 106.23C854.366 106.23 855.318 106.23 855.542 106.23C856.326 106.23 856.606 105.908 856.718 104.606C856.438 104.536 856.018 104.382 855.822 104.228C855.794 105.166 855.724 105.292 855.416 105.292C855.22 105.292 854.45 105.292 854.296 105.292C853.946 105.292 853.89 105.25 853.89 104.942V101.974H852.868ZM845.826 98.4882V99.5102H858.132V98.4882H845.826ZM849.788 99.1742V102.086H850.81V99.1742H849.788ZM852.882 99.1742V102.086H853.932V99.1742H852.882ZM849.83 101.806V103.15C849.83 104.214 849.48 105.446 847.562 106.37C847.772 106.51 848.164 106.86 848.304 107.07C850.348 106.048 850.81 104.494 850.81 103.178V101.806H849.83ZM865.412 97.5642V99.8182H866.518V97.5642H865.412ZM860.19 99.0482V102.072H861.254V100.042H870.774V102.072H871.88V99.0482H860.19ZM864.852 100.672C863.9 102.73 862.388 105.586 861.366 107.266L862.444 107.56C863.438 105.866 864.908 103.038 865.944 100.91L864.852 100.672ZM868.562 103.57C867.652 107.462 864.866 108.932 860.12 109.52C860.316 109.758 860.638 110.22 860.75 110.472C865.58 109.702 868.576 108.078 869.724 103.738L868.562 103.57ZM859.784 102.94V103.934H872.216V102.94H859.784ZM862.178 106.776C865.188 107.644 868.898 109.226 870.76 110.472L871.544 109.604C869.584 108.358 865.832 106.846 862.892 106.034L862.178 106.776Z" fill="#828282"/>
<g clip-path="url(#clip3_585_8974)">
<path fill-rule="evenodd" clip-rule="evenodd" d="M858.399 143.364C858.942 143.364 868.651 132.801 868.651 127.036C868.651 121.271 864.061 116.597 858.399 116.597C852.736 116.597 848.146 121.271 848.146 127.036C848.146 132.801 857.855 143.364 858.399 143.364ZM858.399 132.257C861.269 132.257 863.597 129.888 863.597 126.965C863.597 124.042 861.269 121.672 858.399 121.672C855.528 121.672 853.201 124.042 853.201 126.965C853.201 129.888 855.528 132.257 858.399 132.257Z" fill="#828282"/>
<path fill-rule="evenodd" clip-rule="evenodd" d="M848.146 127.036C848.146 132.801 857.855 143.364 858.399 143.364V132.257C855.528 132.257 853.201 129.888 853.201 126.965C853.201 124.042 855.528 121.672 858.399 121.672V116.597C852.736 116.597 848.146 121.271 848.146 127.036Z" fill="#BDBDBD"/>
</g>
<path d="M886.344 106.486C887.184 106.976 888.304 107.69 888.85 108.166L889.494 107.34C888.92 106.892 887.786 106.206 886.946 105.758L886.344 106.486ZM885.574 110.35C886.456 110.77 887.59 111.442 888.164 111.862L888.752 110.994C888.164 110.574 886.988 109.958 886.162 109.566L885.574 110.35ZM886.05 117.546L886.932 118.26C887.758 116.958 888.738 115.208 889.48 113.724L888.71 113.038C887.898 114.634 886.806 116.482 886.05 117.546ZM890.222 106.892V107.928H897.656V106.892H890.222ZM889.564 116.482V117.532H898.426V116.482H889.564ZM893.274 107.228V117.084H894.394V107.228H893.274ZM899.812 106.654V107.578H912.23V106.654H899.812ZM906.042 111.596V112.52H912.286V111.596H906.042ZM903.102 105.576V108.502H904.138V105.576H903.102ZM907.792 105.576V108.502H908.842V105.576H907.792ZM901.702 109.034V109.79H904.236V109.034H901.702ZM908.632 109.398V118.47H909.626V109.398H908.632ZM902.668 110.952V114.76H903.452V110.952H902.668ZM901.38 113.29H904.824V114.41H901.38V113.29ZM901.38 111.484H904.824V112.604H901.38V111.484ZM900.512 110.728V115.166H905.72V110.728H900.512ZM903.9 109.034V109.202C903.662 109.72 903.2 110.448 902.794 110.868C902.948 110.994 903.186 111.246 903.312 111.414C903.83 110.896 904.432 110.112 904.838 109.398L904.264 108.978L904.096 109.034H903.9ZM900.582 115.628C900.428 116.566 900.078 117.49 899.42 118.022L900.134 118.47C900.848 117.882 901.17 116.874 901.352 115.866L900.582 115.628ZM901.828 115.838C901.982 116.566 902.094 117.504 902.066 118.12L902.836 118.008C902.836 117.406 902.724 116.468 902.556 115.754L901.828 115.838ZM903.144 115.81C903.424 116.496 903.69 117.406 903.76 117.994L904.516 117.812C904.418 117.238 904.152 116.342 903.858 115.67L903.144 115.81ZM904.502 115.726C904.908 116.384 905.328 117.252 905.496 117.826L906.21 117.574C906.042 117 905.608 116.16 905.188 115.516L904.502 115.726ZM911.026 108.334C909.906 108.838 907.862 109.3 906.098 109.608C906.21 109.804 906.35 110.14 906.392 110.35C908.24 110.07 910.382 109.622 911.81 109.034L911.026 108.334ZM909.724 111.988L909.052 112.226C909.696 113.976 910.844 115.978 911.866 117.028C912.048 116.79 912.342 116.468 912.58 116.3C911.53 115.418 910.34 113.584 909.724 111.988ZM908.534 111.96C907.974 113.668 906.868 115.46 905.734 116.342C905.958 116.51 906.266 116.86 906.434 117.098C907.568 116.048 908.674 114.102 909.262 112.184L908.534 111.96ZM901.912 108.138C901.464 109.132 900.652 110.364 899.476 111.288C899.7 111.414 899.994 111.708 900.148 111.918C901.436 110.84 902.29 109.524 902.864 108.292L901.912 108.138Z" fill="#828282"/>
<g clip-path="url(#clip4_585_8974)">
<path fill-rule="evenodd" clip-rule="evenodd" d="M898.399 151.362C898.942 151.362 908.651 140.799 908.651 135.034C908.651 129.269 904.061 124.595 898.399 124.595C892.736 124.595 888.146 129.269 888.146 135.034C888.146 140.799 897.855 151.362 898.399 151.362ZM898.399 140.255C901.269 140.255 903.597 137.886 903.597 134.963C903.597 132.04 901.269 129.67 898.399 129.67C895.528 129.67 893.201 132.04 893.201 134.963C893.201 137.886 895.528 140.255 898.399 140.255Z" fill="#828282"/>
<path fill-rule="evenodd" clip-rule="evenodd" d="M888.146 135.034C888.146 140.799 897.855 151.362 898.399 151.362V140.255C895.528 140.255 893.201 137.886 893.201 134.963C893.201 132.04 895.528 129.67 898.399 129.67V124.595C892.736 124.595 888.146 129.269 888.146 135.034Z" fill="#BDBDBD"/>
</g>
<defs>
<linearGradient id="paint0_linear_585_8974" x1="829.469" y1="-57.3072" x2="489.507" y2="553.458" gradientUnits="userSpaceOnUse">
<stop offset="0.12" stop-color="#187EF2"/>
<stop offset="0.63" stop-color="#1363BF"/>
<stop offset="1" stop-color="#1466C5"/>
</linearGradient>
<clipPath id="clip0_585_8974">
<rect width="22" height="28" fill="white" transform="translate(911 154.314)"/>
</clipPath>
<clipPath id="clip1_585_8974">
<rect width="22" height="28" fill="white" transform="translate(267 154.314)"/>
</clipPath>
<clipPath id="clip2_585_8974">
<rect width="22" height="28" fill="white" transform="translate(744 242.291)"/>
</clipPath>
<clipPath id="clip3_585_8974">
<rect width="22" height="28" fill="white" transform="translate(848 116.324)"/>
</clipPath>
<clipPath id="clip4_585_8974">
<rect width="22" height="28" fill="white" transform="translate(888 124.322)"/>
</clipPath>
</defs>
</svg>
