<svg width="1110" height="410" viewBox="0 0 1110 410" fill="none" xmlns="http://www.w3.org/2000/svg">
<path opacity="0.12" fill-rule="evenodd" clip-rule="evenodd" d="M518.696 120.205C515.124 122.717 511.909 125.935 511.775 129.725C511.72 131.27 512.199 132.312 512.594 133.173C513.059 134.184 513.408 134.944 512.642 135.975C511.007 138.174 506.598 138.503 502.384 138.817C498.511 139.106 494.803 139.383 493.562 141.088C491.342 144.14 497.856 150.64 503.969 150.747C506.374 150.789 507.709 149.824 510.05 148.132C511.931 146.773 514.46 144.945 518.713 142.793C523.266 140.522 528.215 138.615 533.456 137.111C534.23 136.844 535.014 136.589 535.805 136.346C538.352 137.883 541.178 139.181 544.02 140.485C547.47 142.069 550.944 143.663 553.975 145.713C558.618 149.204 564.39 151.97 570.871 153.81C575.855 155.163 578.028 149.84 573.102 148.502C567.373 146.946 563.412 144.205 559.418 141.441C556.88 139.685 554.329 137.92 551.303 136.444C549.612 135.636 547.975 134.786 546.395 133.894C548.416 133.568 550.465 133.314 552.535 133.134C560.508 132.591 568.561 133.372 575.951 135.407C581.282 136.904 584.419 138.596 586.883 139.926C589.717 141.454 591.661 142.503 595.03 142.224C600.227 141.795 603.989 138.606 609.772 133.703L609.773 133.702C612.582 131.32 613.873 129.773 614.819 128.639C615.897 127.347 616.528 126.591 618.446 125.748C625.71 122.556 638.44 123.833 646.197 128.589C653.516 133.075 656.975 141.005 653.135 143.361C650.875 144.748 646.868 143.721 642.349 142.563C637.023 141.197 630.984 139.649 626.251 141.656C623.755 142.861 621.964 144.589 621.175 146.552C620.386 148.516 620.647 150.598 621.914 152.451C623.737 154.361 626.878 154.462 630.34 154.574C633.596 154.679 637.134 154.793 640.127 156.428C644.864 159.017 644.399 163.323 643.806 168.797C643.29 173.567 642.678 179.224 645.33 185.404C648.075 191.449 653.153 196.929 660.074 201.313C665.318 204.433 672.073 206.244 679.153 206.426C691.529 206.516 699.644 200.717 705.17 196.767C710.647 192.854 717.283 186.342 714.71 184.268C713.91 183.624 712.642 183.747 710.496 183.955C708.776 184.122 706.493 184.343 703.436 184.268C696.054 184.226 688.954 182.406 683.489 179.155C679.037 176.105 675.686 170.891 678.285 168.928C681.374 166.594 691.906 169.577 695.629 170.632L695.63 170.632C700.964 172.143 703.251 173.462 705.28 174.633C707.096 175.68 708.706 176.608 712.108 177.45C718.466 179.024 723.833 178.5 728.392 178.056C732.968 177.61 736.729 177.244 739.86 179.155C741.895 180.397 742.254 181.741 742.625 183.131C743.022 184.618 743.433 186.157 745.931 187.677C748.828 189.44 751.805 189.517 754.714 189.593C757.375 189.662 759.978 189.73 762.408 191.086C765.362 192.734 765.502 194.857 765.729 198.313C765.899 200.905 766.118 204.246 767.612 208.699C767.792 209.238 771.935 221.352 776.284 221.198C779.116 221.098 781.187 215.713 782.354 212.677L782.355 212.676C783.619 209.389 783.694 207.559 783.753 206.097C783.811 204.678 783.855 203.605 784.956 201.881C786.779 199.027 791.664 196.569 801.434 191.654C810.515 187.086 813.125 186.646 815.31 186.541C820.007 186.517 824.582 187.516 828.318 189.381C832.396 191.066 834.287 192.605 841.924 198.82L842.195 199.04C850.36 205.685 852.568 207.461 856.07 209.835C863.136 214.625 866.753 217.012 870.814 216.653C873.494 216.171 875.867 215.138 877.584 213.706C879.302 212.274 880.272 210.519 880.353 208.699C880.409 206.692 879.072 205.531 876.964 203.7C875.295 202.25 873.141 200.379 870.814 197.336L870.812 197.333C868.381 194.155 864.868 189.561 867.345 187.677C868.484 186.81 870.279 186.984 873.176 187.263C874.872 187.427 876.945 187.627 879.486 187.677C887.69 187.73 895.77 186.358 902.902 183.7C909.395 181.441 915.248 179.406 917.645 175.177C920.944 169.36 915.72 162.887 914.176 160.974L914.176 160.973C912.355 158.718 910.459 157.252 908.903 156.05C906.797 154.422 905.317 153.279 905.503 151.315C905.777 149.748 906.743 148.268 908.284 147.057C909.825 145.846 911.873 144.956 914.176 144.497C916.858 144.055 918.744 144.635 920.969 145.32C923.191 146.004 925.753 146.792 929.786 146.77C933.825 146.852 937.791 146.052 941.06 144.497C942.328 143.828 943.195 143.12 943.838 142.39C944.737 144.905 945.384 147.388 946.008 149.781C947.22 154.428 948.343 158.735 951.043 162.272C953.437 165.447 957.5 155.685 957.5 155.685L954.842 133.526C955.02 133.513 955.203 133.501 955.389 133.489C957.042 133.379 959.031 133.247 961.874 132.566C966.065 131.579 969.87 129.998 973.019 127.936C976.167 125.873 978.581 123.38 980.086 120.635C980.989 118.763 981.301 116.79 981.003 114.836C980.705 112.882 979.803 110.989 978.352 109.271C975.591 106.527 971.645 105.536 968.4 104.72C965.534 103.999 963.215 103.416 962.741 101.885C961.465 97.754 975.477 92.6961 978.351 91.6586L978.352 91.6582C983.891 89.4547 990.115 88.0956 996.564 87.6813C1004.51 87.2754 1009.97 88.678 1014.43 89.8243C1018.8 90.945 1022.21 91.8207 1026.05 90.522C1029.66 89.3014 1030.95 87.0763 1032.22 84.875C1033.58 82.5263 1034.92 80.2046 1039.06 79.159C1043.56 78.0222 1048.17 79.2009 1054.67 80.8634C1060.64 82.3891 1063.6 83.9141 1066.06 85.1744C1068.18 86.2654 1069.92 87.1581 1072.88 87.6813C1083.51 89.5588 1097.31 84.454 1104.1 77.4543C1111.22 70.1096 1112.35 58.8949 1104.97 55.2963C1102.15 53.9226 1099.39 54.2908 1094.05 55.0027C1090.61 55.4614 1086.1 56.0629 1079.82 56.4328C1068.52 56.9769 1057.15 56.5951 1046 55.2963C1037.96 54.3135 1034.15 53.2272 1030.11 52.0735C1026.11 50.9295 1021.87 49.7193 1013.04 48.4783C1002.34 46.4786 991.135 45.8992 980.086 46.774C973.603 47.4485 969.504 48.5507 966.114 49.4625C961.811 50.6194 958.649 51.4699 953.202 50.7512C948.561 50.1389 946.063 48.8894 943.475 47.5948C940.61 46.1616 937.635 44.6733 931.521 43.9333C927.69 43.4697 925.251 43.6172 922.813 43.7646C920.036 43.9325 917.263 44.1001 912.441 43.3651C907.658 42.636 905.351 41.7031 903.416 40.9207C901.521 40.1549 899.984 39.5333 896.831 39.3879C890.793 39.1094 886.196 40.9172 882.383 42.4164C878.907 43.7831 876.084 44.8934 873.415 43.9333C871.884 43.1431 870.739 42.0762 870.122 40.8646C869.506 39.653 869.445 38.3496 869.946 37.1154C871.416 32.9223 879.33 30.5539 884.234 29.0861C886.662 28.3596 888.352 27.8538 888.159 27.4565C888.021 27.1741 887.083 27.2573 885.627 27.3866C883.163 27.6052 879.215 27.9555 875.15 26.8884C871.698 25.9822 869.901 24.5103 868.413 23.2918C867.004 22.1379 865.872 21.2111 863.876 21.2071C861.456 21.2022 860.145 22.5578 858.551 24.2059C856.86 25.9534 854.852 28.0297 850.867 29.1612C847.621 30.0828 845.356 29.7265 842.814 29.3267C840.355 28.94 837.638 28.5125 833.522 29.1612C831.377 29.4993 830.619 29.8513 823.426 33.1924L823.426 33.1927C821.513 34.081 819.146 35.1805 816.177 36.5473C806.729 40.8961 805.112 41.5409 802.301 41.6605C798.24 41.8331 795.023 40.7674 792.63 39.9747C790.692 39.3327 789.294 38.8697 788.426 39.3879C786.756 40.3843 788.5 44.1408 791.894 46.774C794.721 48.9664 798.077 49.9036 800.389 50.5492C802.093 51.0251 803.23 51.3425 803.169 51.8875C803.017 53.2402 795.587 55.0986 789.293 53.5919C786.559 52.9374 785.228 51.9327 783.927 50.9508C782.65 49.9869 781.403 49.0451 778.886 48.4784C773.269 47.2137 766.049 48.8786 763.892 50.9063C763.619 50.4419 763.257 49.9982 762.81 49.5863C760.266 47.6673 755.47 47.8247 751.438 47.957C750.426 47.9902 749.463 48.0219 748.595 48.0187C747.508 48.0434 746.477 48.3442 745.721 48.8576C744.965 49.371 744.543 50.057 744.543 50.7709C744.543 51.4848 744.965 52.1707 745.721 52.6841C746.477 53.1976 747.508 53.4983 748.595 53.523L753.795 53.5418L753.957 53.5423L754.275 53.5432L754.662 53.544C755.044 53.5448 755.425 53.5455 755.807 53.5474C755.825 53.953 755.899 54.4104 755.963 54.8038C756.016 55.1328 756.062 55.4171 756.062 55.5892L756.068 59.6124C756.106 60.3258 756.564 61.0018 757.347 61.4977C758.129 61.9937 759.175 62.2709 760.263 62.2709C761.351 62.2709 762.397 61.9937 763.179 61.4977C763.962 61.0018 764.42 60.3258 764.458 59.6124C764.457 59.1569 764.457 58.7014 764.458 58.2459L764.459 57.6569C764.46 56.358 764.462 55.0592 764.449 53.7604C764.459 53.7015 764.468 53.6426 764.476 53.5836C765.142 53.9941 766.017 54.3809 766.932 54.786C769.175 55.778 771.665 56.8795 771.948 58.7054C772.537 62.5118 763.28 67.8276 755.47 67.2277C752.458 66.9962 750.953 65.984 748.253 64.1689C746.223 62.8045 743.519 60.9865 738.992 58.7054L738.992 58.7049L738.991 58.7047C734.861 56.6231 725.779 52.0463 722.515 53.5919C721.218 54.206 721.479 55.4844 721.771 56.9162C722.095 58.5027 722.457 60.2777 720.78 61.546C718.791 63.0514 715.415 62.7189 710.393 62.2241C707.695 61.9584 704.522 61.6458 700.834 61.546C691.33 61.465 681.896 62.6239 673.082 64.9551C665.277 67.3482 657.987 70.4047 651.401 74.0456C649.276 75.1153 647.376 76.1272 645.678 77.0318C640.366 79.8608 637.023 81.6415 634.923 80.8635C633.841 80.4624 633.744 79.6238 633.604 78.4091C633.445 77.0304 633.23 75.1673 631.454 72.9093C630.221 71.3405 628.946 70.487 627.967 69.8314C626.928 69.136 626.222 68.6634 626.251 67.7958C626.317 65.7861 630.233 64.4937 633.888 63.2876C637.129 62.2178 640.165 61.216 640.127 59.8416C640.068 57.7092 632.652 56.1823 625.384 54.7282L625.381 54.7275C612.769 52.2043 606.462 50.9426 598.499 51.8875C590.322 52.8579 585.242 55.5645 575.084 60.9779C567.724 65.0531 561.039 69.6234 555.137 74.6137C544.428 82.9667 539.1 87.1996 540.394 89.9539C542.917 95.3228 560.352 98.2802 567.278 94.4993C569.464 93.3061 569.715 91.9269 570.076 89.9405C570.429 88.0022 570.886 85.4857 573.349 81.9997C576.425 77.8201 580.866 74.1347 586.358 71.2049C590.181 69.0115 598.258 64.9728 600.234 66.0914C601.001 66.5261 600.741 67.6787 595.898 75.1818C594.876 76.7634 593.966 78.1409 593.172 79.3416L593.171 79.3428C589.86 84.35 588.583 86.2814 589.827 87.1133C590.632 87.6521 591.939 87.3578 593.843 86.9294C596.016 86.4403 598.967 85.7762 602.835 85.977C609.123 86.3032 615.849 88.811 615.844 91.0902C615.842 92.273 614.027 92.8842 611.086 93.8751C609.169 94.5211 606.772 95.3284 604.087 96.5606C597.868 99.4137 595.271 102.171 593.077 104.501C590.905 106.808 589.129 108.695 584.623 109.839C582.193 110.457 581.022 110.337 578.226 110.049C575.617 109.781 571.593 109.367 563.809 109.271C556.536 108.857 549.209 109.241 542.128 110.408C536.12 111.576 530.522 113.506 525.651 116.089L525.649 116.09C525.534 116.151 525.416 116.214 525.295 116.278C518.097 109.022 509.541 101.011 498.786 97.4896C493.968 95.9125 489.714 100.659 494.551 102.243C505.735 105.904 512.378 112.988 518.696 120.205ZM955.408 331.251C952.383 332.903 950.33 334.024 947.131 333.693C933.374 332.272 924.614 306.717 934.122 302.445C936.009 301.597 938.121 301.81 940.535 302.053C943.414 302.343 946.725 302.676 950.6 301.308C953.563 300.263 954.674 298.993 956.128 297.332C957.234 296.068 958.538 294.577 961.007 292.786C963.644 290.874 965.314 290.283 969.338 288.858L969.339 288.858L969.34 288.858C971.795 287.989 975.126 286.81 980.086 284.832C985.219 282.785 988.874 281.168 991.599 279.962C996.843 277.642 998.643 276.845 1000.9 277.446C1003.41 278.114 1004.05 279.863 1004.86 282.072C1005.78 284.594 1006.91 287.715 1011.31 290.513C1014.2 292.359 1020.13 295.09 1024.32 293.922C1028.82 292.668 1029.75 287.345 1030.33 284.063C1030.61 282.505 1030.8 281.407 1031.25 281.423C1031.57 281.434 1031.73 281.982 1031.99 282.939C1032.39 284.352 1033.03 286.655 1034.83 289.427C1034.83 289.427 1035.48 290.431 1036.46 291.65C1040 295.628 1044.38 299.261 1049.47 302.445C1056.56 307.419 1060.85 313.835 1061.61 320.626C1061.78 322.423 1062.95 334.725 1049.47 339.943C1045.65 341.396 1041.31 342.162 1036.89 342.162C1032.47 342.162 1028.14 341.396 1024.32 339.943C1021.36 338.682 1020.16 337.349 1018.72 335.747C1017.24 334.094 1015.5 332.156 1011.31 329.716C1007.1 327.127 1002.06 325.186 996.564 324.035C988.211 322.641 979.396 323.039 971.414 325.171C963.125 327.039 958.693 329.458 955.408 331.251ZM350.832 15.8928C344.759 16.4613 339.175 16.9838 333.99 20.6386C328.998 24.1573 325.169 30.0192 327.919 34.2744C329.538 36.7786 332.697 37.5848 338.315 39.0184C341.697 39.8814 345.97 40.9719 351.335 42.797C364.122 47.1476 373.474 50.3296 374.75 55.2963C375.617 58.6707 372.301 61.093 368.694 63.7278C364.915 66.4877 360.817 69.4808 360.874 74.0455C360.974 81.9627 373.488 87.6345 377.352 89.3857C387.646 94.051 404.654 97.4482 410.307 93.3629C412.973 91.4368 411.829 88.776 410.448 85.5612C408.837 81.8123 406.903 77.31 410.307 72.3411C414.223 67.84 419.914 64.1114 426.785 61.546C432.044 59.0968 435.621 58.0829 438.309 57.3208C441.258 56.4849 443.138 55.952 444.997 54.16C452.78 46.6569 442.675 33.9704 441.528 32.57C438.369 28.712 435.55 27.1488 432.37 25.3852C429.115 23.5797 425.481 21.5642 420.714 16.6617C418.096 13.9688 416.557 11.8656 415.285 10.1288L415.285 10.1286C413.214 7.29935 411.855 5.44277 407.705 3.59405C404.576 2.18369 401.007 1.24791 397.256 0.854806C393.506 0.4617 389.669 0.621161 386.024 1.32153C381.495 2.31835 379.736 3.90183 377.529 5.88854C375.868 7.38347 373.953 9.10671 370.414 10.9801C363.346 14.7218 356.848 15.3298 350.832 15.8928ZM12.4739 84.0526C10.9409 82.6222 9.3445 81.1326 9.64102 79.159C10.4804 73.5719 20.5279 68.0949 33.0564 67.3109C44.674 67.2922 56.1778 68.8099 66.8789 71.773C72.8817 73.2498 76.9333 74.7329 80.2338 75.941C85.0952 77.7205 88.327 78.9035 93.7637 78.5909C97.8208 78.3578 99.7183 77.4865 102.241 76.3281C104.421 75.3273 107.067 74.1123 111.976 72.9093C122.812 70.2885 134.609 69.8921 145.798 71.773C151.201 72.8022 154.237 74.1133 157.322 75.4457C160.866 76.9764 164.476 78.5352 171.816 79.7272C177.533 80.4477 183.338 80.828 189.16 80.8634C197.095 81.2405 203.392 81.6109 208.443 81.908C223.469 82.7918 227.474 83.0274 230.788 80.8634C234.122 78.6858 234.143 75.7082 234.161 73.1098C234.178 70.696 234.192 68.6095 236.859 67.7958C237.575 67.5771 238.333 67.4361 239.119 67.3654C238.642 67.1861 238.22 66.9459 237.879 66.6562C237.267 66.1356 236.958 65.4889 237.007 64.8322C237.056 64.1755 237.46 63.5517 238.146 63.0729C239.733 61.9846 242.896 60.1652 246.645 58.458C250.011 55.508 251.371 51.9379 252.738 48.3484C254.003 45.0276 255.274 41.6902 258.145 38.8117C257.804 38.5967 257.517 38.3439 257.3 38.0624C256.849 37.477 256.73 36.8056 256.964 36.1679C259.689 29.2864 265.886 25.1048 273.893 22.2985C273.642 22.0938 273.435 21.8658 273.281 21.6207C272.967 21.1236 272.879 20.5775 273.029 20.0485C273.178 19.5195 273.558 19.0302 274.122 18.6398C274.296 18.5367 274.474 18.4345 274.657 18.3333C263.734 18.5975 252.838 18.4055 241.922 18.0232L241.922 18.0229C236.542 17.8344 236.526 12.3295 241.922 12.5185C253.541 12.9851 265.189 13.0691 276.822 12.7702C280.623 12.6535 285.386 12.1702 290.28 11.6736C297.636 10.9272 305.29 10.1505 310.428 10.5428C311.873 10.6531 313.045 10.7041 314.028 10.7469C317.933 10.917 318.863 10.9575 322.204 14.0771C322.584 14.4975 322.785 14.9773 322.785 15.4662C322.785 15.955 322.584 16.4348 322.204 16.8552C317.073 22.6842 308.579 21.8088 300 20.8976C299.726 21.8549 298.794 22.707 297.13 22.9569L296.729 23.0169C292.538 23.6458 288.247 24.2895 284.208 25.2066C283.951 25.3309 283.695 25.4561 283.44 25.5822C285.369 25.3393 287.328 25.1766 289.306 25.0972C293.13 24.8446 294.546 28.2125 292.272 29.7955C289.403 31.9207 285.907 33.6428 281.996 34.858C269.111 39.5091 265.168 44.0148 259.602 52.9209C259.258 53.4706 258.93 54.0048 258.611 54.5242C263.622 53.699 267.986 54.4167 269.658 58.4186C270.568 60.5949 269.817 62.2668 268.137 63.5126L270.43 63.8943C271.297 64.0675 272.056 64.419 272.596 64.8968C272.622 64.9201 272.648 64.9437 272.673 64.9675C273.168 64.9346 273.662 64.8982 274.156 64.8581C272.399 62.9253 275.006 59.6758 278.772 60.7083L279.068 60.7892C280.47 61.1732 281.505 61.4568 282.334 61.7563L288.462 63.6024C289.24 63.7601 289.933 64.0611 290.458 64.4695C290.848 64.7735 291.134 65.1275 291.298 65.507C292.247 65.26 293.558 65.325 295.231 65.702L295.231 65.7023C295.48 65.7079 295.725 65.728 295.965 65.7617L297.5 65.7755C298.406 65.7948 299.279 66.0044 299.99 66.3735C300.702 66.7426 301.213 67.2518 301.45 67.826L301.461 67.8526C301.472 67.8792 301.482 67.9058 301.491 67.9325C308.144 68.3908 314.758 69.0758 321.308 69.9854C322.262 70.1778 323.082 70.5865 323.62 71.1384C324.158 71.6903 324.38 72.3496 324.246 72.9989C324.112 73.6481 323.631 74.245 322.889 74.6832C322.146 75.1214 321.191 75.3725 320.193 75.3915L312.63 75.2094L313.947 76.8622C313.991 76.9142 314.034 76.967 314.074 77.0206C315.261 76.6056 316.74 76.4951 318.138 76.9031L325.432 79.0318C329.532 80.2286 327.192 83.823 323.518 84.1055C323.339 84.2217 323.145 84.3278 322.936 84.4223C322.261 84.7273 321.467 84.898 320.648 84.9137C319.075 85.039 317.498 85.1393 315.918 85.2145C315.854 85.2812 315.787 85.3457 315.715 85.408C315.573 85.8651 315.257 86.2925 314.796 86.6502C314.466 86.9053 314.071 87.1181 313.631 87.2799C315.395 89.1753 316.894 91.177 318.106 93.2611C322.15 94.8713 318.023 99.1867 313.323 97.8275C311.75 97.3725 310.414 96.8856 309.274 96.3747L308.963 96.2964C308.872 96.288 308.781 96.2788 308.691 96.2689C307.11 96.0954 305.608 95.6945 304.292 95.0949C303.548 94.7898 302.971 94.3414 302.637 93.814C298.446 92.0158 295.712 89.3033 295.805 85.3342C295.821 84.7344 296.129 84.1535 296.683 83.6762C296.949 83.4465 297.266 83.2465 297.621 83.082C297.476 82.3244 297.774 81.4955 298.442 80.8493C297.824 80.7213 297.213 80.5749 296.61 80.4104L296.608 80.4101L296.609 80.4099L296.608 80.4098C295.57 80.1959 294.7 79.7261 294.179 79.0993C293.659 78.4725 293.53 77.7377 293.819 77.0497C294.108 76.3617 294.793 75.7741 295.729 75.4108C296.666 75.0475 297.78 74.9368 298.839 75.1024L298.842 75.1025L303.256 75.3134L301.953 73.6767C301.896 73.6109 301.844 73.5437 301.796 73.4753C298.656 73.2467 295.507 73.0722 292.351 72.9519C291.808 72.9603 291.263 72.9413 290.722 72.8947L290.716 72.8945C289.629 72.8695 288.599 72.5686 287.843 72.0552C287.466 71.7991 287.172 71.5002 286.972 71.1763C286.654 71.1559 286.342 71.1118 286.042 71.0456C285.203 71.011 284.396 70.8142 283.724 70.4786C283.178 70.2062 282.744 69.8529 282.453 69.4504C275.486 70.2828 268.412 70.6685 261.329 70.6015C260.332 70.582 259.377 70.3308 258.635 69.8926C257.893 69.4543 257.412 68.8576 257.279 68.2087C257.199 67.8251 257.244 67.438 257.406 67.0717C257.377 67.0549 257.35 67.0379 257.322 67.0207C257.287 66.9983 257.252 66.9754 257.217 66.9522C257.016 66.8162 256.836 66.6677 256.682 66.509C255.223 66.5799 253.809 66.5685 252.543 66.4856C251.635 66.4592 250.761 66.2516 250.038 65.8905C249.877 65.81 249.725 65.7226 249.583 65.6293C249.438 65.584 249.296 65.5333 249.159 65.4772L245.578 66.5265C244.847 66.8222 244.066 67.1116 243.23 67.3954C243.115 67.4365 242.998 67.4739 242.878 67.5075C248.589 68.3688 254.659 71.9411 256.96 75.8621C257.712 75.927 258.471 76.1319 259.176 76.5152L264.569 79.4475C268.732 81.7109 262.764 85.5841 258.637 83.3397L257.007 82.4535C256.158 84.039 254.754 85.6758 252.927 87.4511C253.504 87.4901 254.108 87.625 254.719 87.8786C261.033 90.5484 268.468 91.8478 275.97 91.5926C281.378 91.44 281.349 96.9452 275.97 97.097C266.977 97.3634 258.077 95.804 250.484 92.6315C249.57 92.2519 249.009 91.7568 248.734 91.2231C247.726 92.0864 246.655 92.9863 245.533 93.93L245.531 93.9311C241.152 97.6125 237.248 100.237 234.244 102.256C229.807 105.238 227.333 106.901 228.186 108.703C228.902 110.214 231.339 110.514 234.966 110.961C238.426 111.387 242.968 111.946 248.133 113.817C255.348 116.43 258.76 119.784 261.677 122.652C264.624 125.55 267.066 127.951 272.416 128.589C276.414 128.982 280.5 128.534 284.084 127.309C287.669 126.083 290.568 124.144 292.362 121.771C293.602 119.409 292.306 117.427 290.891 115.262C289.378 112.947 287.728 110.422 288.893 106.999C290.203 103.153 294.747 99.1094 299.3 99.0446C301.5 99.0134 302.822 99.9236 307.91 103.425C309.136 104.268 310.581 105.263 312.309 106.431C320.683 112.089 322.512 112.901 324.45 112.68C326.94 112.397 328.199 110.573 329.366 108.883C330.416 107.361 331.392 105.948 333.123 105.862C335.756 105.732 337.897 108.786 340.561 112.585C341.224 113.53 341.919 114.521 342.662 115.521C347.694 122.291 353.141 127.055 356.808 130.262C360.017 133.068 361.863 134.683 360.874 135.407C359.992 136.053 357.79 135.302 354.693 134.247C349.589 132.508 342.054 129.941 333.99 131.429C331.289 131.859 328.782 132.7 326.672 133.885C324.562 135.07 322.909 136.565 321.849 138.247C320.555 141.05 322.333 143.388 324.045 145.64C325.609 147.697 327.119 149.682 326.185 151.883C325.142 154.342 320.932 157.352 306.238 159.269C295.858 163.27 287.896 169.489 283.69 176.882C280.699 182.903 281.256 189.08 281.614 193.049C281.843 195.577 281.99 197.209 281.088 197.336C280.359 197.438 279.78 196.437 278.889 194.899C277.415 192.351 275.088 188.33 269.814 185.404C263.805 182.393 256.412 180.809 248.848 180.912C241.284 181.015 233.998 182.799 228.186 185.973C221.177 190.282 216.149 198.192 220.381 203.017C222.432 205.356 225.706 205.884 230.274 206.62L230.274 206.62C233.937 207.211 238.432 207.935 243.796 209.835C258.539 215.056 267.44 224.759 265.478 226.312C264.674 226.947 262.296 226.022 258.026 224.36C252.183 222.087 242.797 218.435 229.053 215.517C222.659 214.159 217.902 213.508 214.032 212.979C207.632 212.104 203.655 211.56 198.7 208.699C195.437 206.815 194.362 205.435 192.383 202.895L192.383 202.894C190.756 200.807 188.519 197.936 183.957 193.359C179.357 188.207 173.824 183.438 167.479 179.155C160.876 174.985 155.456 173.118 151.049 171.599C146.06 169.881 142.369 168.609 139.728 164.951C138.212 162.852 138.291 161.696 138.449 159.39C138.589 157.34 138.792 154.381 137.993 149.042C137.58 142.615 135.528 136.277 131.922 130.293C127.936 124.719 122.341 119.703 115.445 115.521C106.353 109.361 98.6313 104.129 85.9585 101.317C73.239 98.7755 59.6518 98.7755 46.9323 101.317C41.1649 102.415 37.2464 103.709 33.9558 104.797C29.2306 106.358 25.7999 107.492 20.048 106.999C8.90838 106.044 -1.12142 99.83 0.101344 96.2037C0.680633 94.4852 3.6596 93.7247 6.80988 92.9204C10.2536 92.0413 13.9021 91.1098 14.8443 88.8176C15.603 86.9721 14.0729 85.5445 12.4739 84.0526ZM922 183.192C920.5 183.192 918.5 186.2 918 187.694C917.165 190.186 918.072 191.658 918.686 192.654C918.807 192.852 918.917 193.031 919 193.195C919.5 194.188 921 189.694 921.5 187.694C921.5 187.058 921.68 186.242 921.849 185.475L921.849 185.475C922.078 184.432 922.288 183.481 922 183.192ZM239.208 30.5276C232.265 29.2468 226.123 26.5503 221.67 22.8281C220.908 22.3037 220.482 21.6068 220.482 20.882C220.482 20.1573 220.908 19.4604 221.67 18.9359C222.46 18.424 223.526 18.1369 224.636 18.1369C225.747 18.1369 226.813 18.424 227.603 18.9359C231.057 21.9575 235.912 24.1625 241.439 25.2198C242.477 25.4333 243.349 25.9031 243.87 26.53C244.391 27.157 244.52 27.8921 244.231 28.5805C243.942 29.2688 243.256 29.8566 242.319 30.2198C241.382 30.5831 240.267 30.6934 239.208 30.5276ZM439.243 75.1608C437.11 74.3465 435.007 73.5437 432.931 72.81C428.171 71.1276 432.412 66.3772 437.166 68.0571C439.047 68.722 441.097 69.5436 443.258 70.4098C450.86 73.4565 459.837 77.0541 467.674 76.3182C472.964 75.8215 475.228 81.1261 469.904 81.626C458.887 82.6605 448.765 78.7963 439.243 75.1608ZM580.066 19.8351C573.094 16.7508 565.027 14.8985 556.646 14.4572C551.289 14.1826 551.262 8.67685 556.646 8.95287C566.513 9.4054 576.036 11.5162 584.3 15.0823C588.791 17.0279 584.584 21.7927 580.066 19.8351ZM609.405 12.6958C603.82 12.2116 598.173 12.1132 592.557 12.4022C587.161 12.6559 587.203 7.14939 592.557 6.89769C598.925 6.61972 605.32 6.78411 611.635 7.38808C616.969 7.87401 614.685 13.1771 609.405 12.6958ZM720.973 38.6693C713.821 41.3192 707.2 43.7724 709.383 50.4282C710.518 53.888 702.428 55.3527 701.293 51.8914C700.052 48.5848 700.554 45.0999 702.717 42.0043C704.88 38.9087 708.576 36.3846 713.205 34.8433C719.196 32.6652 724.72 29.9752 729.633 26.8439C733.567 24.4008 738.673 22.9307 744.077 22.6852C749.477 22.4588 749.439 27.9648 744.077 28.1896C738.558 28.421 734.625 31.0344 730.718 33.6312C728.359 35.1987 726.01 36.7601 723.326 37.7878C722.544 38.0873 721.757 38.3787 720.977 38.6679L720.974 38.6691L720.973 38.6693ZM203.812 51.0715C201.499 49.89 198.839 49.0347 195.998 48.559C194.959 48.3455 194.088 47.8758 193.567 47.2489C193.046 46.6219 192.916 45.8867 193.206 45.1984C193.495 44.51 194.18 43.9223 195.117 43.559C196.054 43.1958 197.17 43.0854 198.228 43.2513C202.443 44.0187 206.366 45.3568 209.745 47.1794C210.525 47.6977 210.963 48.3969 210.963 49.1254C210.963 49.854 210.525 50.5532 209.745 51.0715C208.942 51.5668 207.881 51.8426 206.779 51.8426C205.676 51.8426 204.615 51.5668 203.812 51.0715ZM204.036 64.1165C199.484 63.221 195.327 61.6223 191.912 59.4549C188.006 56.9972 193.947 53.1105 197.845 55.5627C200.184 57.0708 203.033 58.195 206.16 58.8434C209.286 59.4919 212.603 59.6463 215.838 59.294C221.128 58.6998 223.379 64.0052 218.068 64.6018C213.399 65.1785 208.587 65.0121 204.036 64.1165ZM228.841 51.7764C228.955 50.292 228.472 48.814 227.439 47.491C224.976 44.3419 232.218 41.5603 234.684 44.7129C236.444 46.8837 237.309 49.3183 237.195 51.7759C237.082 54.2335 235.992 56.6291 234.034 58.7258C231.214 61.7441 223.96 58.9758 226.79 55.9476C228.02 54.6994 228.727 53.2608 228.841 51.7764ZM277.134 219.616C270.153 217.665 264.04 214.584 259.371 210.66C256.085 207.898 261.985 203.978 265.303 206.768C269.213 210.16 274.405 212.824 280.364 214.496C286.324 216.169 292.846 216.793 299.285 216.306C304.661 215.948 304.605 221.456 299.285 221.811C291.737 222.321 284.115 221.566 277.134 219.616ZM676.494 299.114C676.1 300.545 675.706 301.977 675.31 303.408C674.347 306.894 666.263 305.408 667.22 301.945C667.699 300.209 668.128 298.452 668.557 296.69L668.557 296.688L668.558 296.686L668.558 296.686L668.558 296.685C669.511 292.776 670.47 288.84 672.009 285.058C672.505 283.326 673.573 281.686 675.138 280.254C676.704 278.822 678.729 277.632 681.07 276.768C685.885 275.177 690.128 279.927 685.305 281.521C680.78 283.017 679.903 286.47 679.12 289.554C679.081 289.71 679.042 289.865 679.002 290.018C678.936 290.276 678.869 290.53 678.799 290.779C678.023 293.556 677.258 296.335 676.494 299.114ZM788.35 227.299V226.122C788.387 225.409 788.846 224.733 789.628 224.237C790.411 223.741 791.457 223.464 792.545 223.464C793.633 223.464 794.678 223.741 795.461 224.237C796.244 224.733 796.702 225.409 796.74 226.122V227.299C796.702 228.012 796.244 228.688 795.461 229.184C794.678 229.68 793.633 229.957 792.545 229.957C791.457 229.957 790.411 229.68 789.628 229.184C788.846 228.688 788.387 228.012 788.35 227.299ZM867.493 244.27C855.769 238.163 853.343 228.2 851.62 219.012C850.962 215.499 859.36 215.542 860.011 219.012C861.473 226.812 863.502 235.209 873.425 240.378C877.654 242.58 871.679 246.45 867.493 244.27ZM487.012 115.094C485.963 112.699 485.731 110.182 486.333 107.722C486.635 107.021 487.346 106.425 488.312 106.066C489.278 105.706 490.421 105.61 491.494 105.8C492.545 106.015 493.433 106.485 493.977 107.113C494.521 107.742 494.68 108.482 494.424 109.185C494.156 110.682 494.387 112.199 495.102 113.631C495.355 114.325 495.187 115.057 494.633 115.672C494.079 116.287 493.183 116.736 492.134 116.926C491.085 117.116 489.964 117.031 489.009 116.689C488.053 116.347 487.337 115.776 487.012 115.094ZM977.692 170.859C973.909 172.672 970.117 174.489 966.814 176.896C963.191 179.535 957.276 175.63 960.881 173.003C964.515 170.567 968.569 168.415 972.96 166.591C979.584 163.022 985.343 158.814 990.041 154.111C1004.38 142.183 1013.2 134.039 1007.87 117.964C1006.72 114.505 1014.81 113.041 1015.96 116.501C1020.07 128.884 1018.58 139.101 1006.75 149.425C1006.21 149.895 1005.68 150.365 1005.14 150.837C1000.05 155.274 994.893 159.783 989.572 164.043C986.075 166.843 981.889 168.849 977.692 170.859ZM929.144 211.572L927.565 205.078C927.297 204.375 927.451 203.631 927.997 203C928.543 202.37 929.437 201.902 930.495 201.692C931.568 201.503 932.711 201.599 933.676 201.959C934.642 202.319 935.353 202.913 935.655 203.615L937.235 210.109C937.503 210.812 937.348 211.556 936.803 212.187C936.257 212.817 935.362 213.285 934.305 213.495C933.232 213.684 932.089 213.588 931.123 213.228C930.157 212.868 929.447 212.274 929.144 211.572ZM900.971 244.714C898.924 245.257 896.698 245.443 894.509 245.254C889.185 244.68 891.457 239.377 896.739 239.947C897.986 240.081 899.859 238.698 901.154 237.741C901.581 237.426 901.946 237.157 902.204 237.004C903.525 236.22 904.932 235.501 906.414 234.853C909.912 233.366 913.81 232.331 917.899 231.802C923.177 231.086 925.413 236.393 920.129 237.11C914.814 237.833 909.956 239.592 906.191 242.157C904.816 243.291 903.018 244.171 900.971 244.714ZM893.072 262.829C889.481 259.834 885.814 256.775 880.845 255.184C875.988 253.628 880.246 248.883 885.08 250.431C890.269 252.093 893.732 254.931 897.227 257.796L897.228 257.797C898.518 258.854 899.812 259.914 901.198 260.921C907.632 265.549 915.072 269.527 923.279 272.728C924.199 273.109 924.858 273.71 925.116 274.404C925.375 275.098 925.212 275.83 924.662 276.447C924.113 277.063 923.22 277.516 922.172 277.709C921.124 277.902 920.002 277.82 919.044 277.481C911.705 274.619 904.917 271.189 898.827 267.263C896.812 265.949 894.953 264.398 893.072 262.829ZM939.63 264.304C938.267 263.656 936.635 262.88 935.463 263.053C930.195 263.83 927.966 258.522 933.232 257.745C937.107 257.173 939.74 258.151 942.713 259.256C943.445 259.528 944.199 259.808 944.997 260.074C946.632 260.62 946.806 260.354 947.375 259.489L947.436 259.396C947.466 259.35 947.498 259.302 947.531 259.253C947.556 259.215 947.583 259.176 947.61 259.137C948.403 257.758 949.561 256.482 951.031 255.367C954.744 252.783 960.666 256.683 956.964 259.259C956.037 259.904 955.524 260.74 955.011 261.577C954.625 262.207 954.239 262.837 953.677 263.386C953.029 264.05 952.176 264.618 951.174 265.054C950.172 265.489 949.042 265.783 947.857 265.916C945.529 266.093 943.177 265.763 941.163 264.977C940.738 264.831 940.208 264.579 939.631 264.304L939.63 264.304ZM971.66 272.958L962.709 270.577C961.65 270.368 960.755 269.9 960.209 269.269C959.663 268.639 959.509 267.894 959.779 267.191C960.082 266.49 960.793 265.896 961.759 265.536C962.724 265.176 963.867 265.08 964.939 265.269L973.891 267.65C974.95 267.858 975.845 268.326 976.391 268.957C976.937 269.588 977.091 270.332 976.821 271.035C976.518 271.736 975.807 272.331 974.841 272.691C973.875 273.05 972.733 273.146 971.66 272.958ZM1046.91 278.279C1039.91 274.542 1032.91 270.812 1023.82 270.616C1018.43 270.5 1018.42 264.995 1023.82 265.112C1034.55 265.343 1042.15 269.241 1049.86 273.198C1054.76 275.711 1059.71 278.248 1065.53 279.886C1070.48 281.279 1066.21 286.02 1061.3 284.639C1056.1 283.178 1051.51 280.727 1046.91 278.279ZM132.216 62.9359C126.259 61.6428 120.765 59.5695 116.066 56.8416C112.001 54.497 117.958 50.6186 121.998 52.9494C125.626 55.0422 129.86 56.6335 134.446 57.6281C139.552 58.7429 137.35 64.0569 132.216 62.9359ZM181.732 72.8286C173.596 70.2607 164.793 68.7253 155.787 68.3033V68.3032C150.425 68.0466 150.4 62.541 155.787 62.7988C166.266 63.2876 176.507 65.0784 185.967 68.0757C190.838 69.6097 186.577 74.3543 181.732 72.8286ZM172.831 51.7546C165.376 51.9926 157.999 50.6684 151.768 47.9736C147.269 46.034 151.477 41.2696 156.002 43.2207C160.958 45.4075 166.868 46.4714 172.831 46.2503C178.237 46.0849 178.207 51.5902 172.831 51.7546ZM192.295 36.9906C189.322 35.6636 187.111 33.7217 186.016 31.4744C184.294 28.1023 192.4 26.6693 194.107 30.0111C194.711 31.0998 195.866 32.0196 197.379 32.6166C198.893 33.2137 200.673 33.4519 202.422 33.2915C207.807 32.9743 207.756 38.4816 202.422 38.7959C198.834 38.9531 195.268 38.3176 192.295 36.9906ZM1030.9 278.345C1035.13 279.676 1038.84 281.621 1041.76 284.032C1042.34 284.643 1043.26 285.085 1044.33 285.269C1045.4 285.452 1046.53 285.363 1047.5 285.019C1048.45 284.648 1049.15 284.044 1049.43 283.339C1049.71 282.634 1049.56 281.885 1049 281.254C1045.34 278.037 1040.59 275.416 1035.14 273.592C1030.32 272.015 1026.06 276.762 1030.9 278.345ZM937.436 228.483C938.512 229.615 940.105 230.495 941.989 230.998C943.872 231.501 945.949 231.601 947.924 231.283C949.984 230.885 951.777 230.04 953.011 228.887C954.244 227.733 954.846 226.34 954.717 224.933C954.408 221.412 946.016 221.388 946.327 224.933C946.381 225.544 945.604 226.583 944.681 225.705C941.634 222.809 934.359 225.558 937.436 228.483ZM1081.7 374.461C1083.77 372.725 1086.08 370.942 1088.45 369.108C1099.84 360.298 1112.74 350.312 1108.6 338.658C1107.38 335.21 1099.29 336.669 1100.51 340.121C1103.75 349.248 1091.88 358.233 1082.1 365.629C1079.8 367.37 1077.61 369.023 1075.77 370.569C1072.48 373.327 1078.38 377.249 1081.7 374.461ZM1050.23 361.45C1050.38 363.891 1051.75 366.231 1054.12 368.114C1054.91 368.626 1055.98 368.913 1057.09 368.913C1058.2 368.913 1059.27 368.626 1060.06 368.114C1060.82 367.59 1061.25 366.893 1061.25 366.168C1061.25 365.443 1060.82 364.746 1060.06 364.222C1059.15 363.417 1058.65 362.449 1058.62 361.45C1058.36 357.923 1049.97 357.903 1050.23 361.45ZM278.658 249.511C275.262 251.448 274.611 253.312 273.627 256.13C272.611 259.04 271.24 262.966 266.124 269.041C262.771 273.023 259.735 275.64 257.372 277.677C253.95 280.628 251.941 282.36 252.426 285.255C252.966 288.472 256.084 290.107 260.742 292.55C264.044 294.282 268.122 296.42 272.605 299.817C280.019 305.634 285.515 312.395 288.748 319.675C292.448 330.404 290.306 341.645 282.694 351.447C274.389 363.007 272.257 376.064 276.641 388.515C281.271 400.263 292.485 410.602 296.82 409.697C298.687 409.307 298.399 407.014 297.962 403.526C297.264 397.959 296.184 389.348 302.873 380.572C310.269 374.441 318.364 368.688 327.088 363.362C330.259 361.234 333.051 359.369 335.519 357.721C350.413 347.776 353.539 345.689 357.356 340.856C359.598 338.017 360.7 335.976 361.616 334.279C362.957 331.794 363.899 330.049 367.445 327.618C372.166 324.381 376.736 323.198 380.82 322.14C385.092 321.033 388.832 320.064 391.66 317.027C394.16 314.341 393.938 312.196 393.693 309.828C393.444 307.426 393.172 304.796 395.696 301.141C398.447 297.156 402.347 295.104 405.357 293.52C408.112 292.07 410.121 291.013 409.821 289.226C408.983 284.244 391.359 280.52 377.535 279.959C371.957 279.733 368.478 280.082 365.769 280.354C362.617 280.67 360.509 280.882 357.356 279.959C350.885 278.067 349.204 274.091 347.226 269.414C345.631 265.642 343.843 261.414 339.195 257.454C325.09 245.437 291.818 242.004 278.658 249.511ZM516.32 160.725C496.674 163.662 493.263 165.814 487.448 169.483C487.139 169.678 486.824 169.876 486.5 170.08C483.68 171.847 482.963 173.265 482.097 174.981C481.198 176.759 480.139 178.857 476.411 181.994C472.556 185.239 469.272 186.712 466.609 187.907C463.772 189.181 461.638 190.138 460.268 192.585C459.432 194.078 459.364 195.261 464.303 208.471C465.626 213.488 467.885 218.379 471.03 223.034C473.206 226.851 477.07 230.155 482.128 232.521C486.15 234.046 490.027 234.188 513.069 232.301C515.752 232.081 518.05 231.886 520.035 231.718C530.337 230.847 532.209 230.688 535.602 231.418C543.986 233.762 550.713 238.096 554.435 243.553C558.596 248.723 560.788 254.476 560.825 260.322C561.095 264.443 560.393 266.769 559.683 269.125C559.144 270.91 558.601 272.713 558.471 275.326C558.199 280.8 560.034 283.93 564.067 290.808C565.26 292.842 566.645 295.204 568.224 298.052C572.916 306.511 575.566 312.477 577.457 316.735C580.576 323.759 581.634 326.139 586.385 327.397C596.401 330.05 610.245 324.385 617.326 319.454C622.594 315.786 623.951 312.641 625.731 308.513C627.495 304.421 629.676 299.364 636.495 291.874C638.324 289.866 639.813 288.422 641.056 287.216C643.497 284.849 644.99 283.401 646.249 280.401C648.006 276.209 647.508 273.273 647.009 270.337C646.567 267.733 646.125 265.128 647.258 261.646C649.09 256.011 653.58 252.589 662.056 246.128C669.92 240.132 677.088 236.396 682.19 233.736C687.507 230.965 690.579 229.363 689.857 227.594C689.124 225.795 685.189 225.588 679.914 225.309C673.07 224.948 663.97 224.467 656.674 220.239C651.638 217.32 650.641 214.458 649.245 210.445C648.039 206.982 646.535 202.66 641.877 196.704C636.012 189.206 627.82 178.732 614.075 176.993C608.544 176.294 604.576 177.319 600.005 178.5C594.847 179.833 588.921 181.364 579.118 180.84C572.373 180.892 565.775 179.546 560.265 176.993C555.099 174.252 553.598 170.982 552.253 168.053C550.984 165.288 549.854 162.827 545.915 161.401C540.564 159.464 534.73 157.973 516.32 160.725Z" fill="url(#paint0_linear_527_9100)"/>
<defs>
<linearGradient id="paint0_linear_527_9100" x1="829.469" y1="-56.6777" x2="489.371" y2="554.172" gradientUnits="userSpaceOnUse">
<stop offset="0.12" stop-color="#187EF2"/>
<stop offset="0.63" stop-color="#1363BF"/>
<stop offset="1" stop-color="#1466C5"/>
</linearGradient>
</defs>
</svg>
