<svg width="1110" height="409" viewBox="0 0 1110 409" fill="none" xmlns="http://www.w3.org/2000/svg">
<path opacity="0.12" fill-rule="evenodd" clip-rule="evenodd" d="M518.696 119.529C515.124 122.04 511.909 125.258 511.775 129.047C511.72 130.591 512.199 131.633 512.594 132.494C513.059 133.504 513.408 134.264 512.642 135.295C511.007 137.494 506.598 137.823 502.384 138.137C498.511 138.425 494.803 138.702 493.562 140.407C491.342 143.458 497.856 149.956 503.969 150.063C506.374 150.105 507.709 149.14 510.05 147.449C511.931 146.09 514.46 144.263 518.713 142.111C523.266 139.841 528.215 137.934 533.456 136.431C534.231 136.164 535.014 135.909 535.805 135.666C538.353 137.203 541.178 138.499 544.02 139.804C547.47 141.387 550.944 142.981 553.975 145.03C558.618 148.52 564.39 151.285 570.871 153.125C575.855 154.478 578.028 149.156 573.102 147.818C567.373 146.263 563.412 143.523 559.418 140.76C556.88 139.004 554.329 137.239 551.303 135.763C549.612 134.956 547.975 134.106 546.395 133.214C548.416 132.888 550.466 132.635 552.535 132.455C560.508 131.911 568.561 132.693 575.951 134.727C581.282 136.224 584.419 137.916 586.883 139.245C589.717 140.773 591.661 141.821 595.03 141.543C600.227 141.114 603.989 137.925 609.772 133.023L609.773 133.023C612.582 130.642 613.873 129.095 614.819 127.961C615.897 126.669 616.528 125.913 618.446 125.07C625.71 121.879 638.44 123.157 646.197 127.911C653.516 132.396 656.975 140.323 653.135 142.679C650.875 144.066 646.868 143.039 642.349 141.881C637.023 140.516 630.984 138.968 626.251 140.975C623.755 142.179 621.964 143.906 621.175 145.87C620.386 147.833 620.647 149.914 621.914 151.767C623.737 153.676 626.878 153.778 630.34 153.889C633.596 153.994 637.134 154.108 640.127 155.743C644.864 158.331 644.399 162.636 643.806 168.109C643.29 172.877 642.678 178.533 645.33 184.711C648.075 190.755 653.153 196.233 660.074 200.616C665.318 203.735 672.073 205.545 679.153 205.728C691.529 205.817 699.644 200.02 705.17 196.071C710.647 192.159 717.283 185.648 714.71 183.576C713.91 182.932 712.642 183.054 710.496 183.262C708.776 183.429 706.493 183.65 703.436 183.576C696.054 183.533 688.954 181.714 683.489 178.463C679.037 175.415 675.686 170.202 678.285 168.239C681.374 165.906 691.906 168.889 695.629 169.943L695.63 169.943C700.964 171.454 703.251 172.772 705.28 173.943C707.096 174.989 708.706 175.918 712.108 176.759C718.466 178.332 723.833 177.809 728.392 177.365C732.968 176.919 736.729 176.553 739.86 178.463C741.895 179.705 742.254 181.049 742.625 182.438C743.022 183.926 743.433 185.464 745.931 186.983C748.828 188.746 751.805 188.823 754.714 188.899C757.375 188.968 759.978 189.036 762.408 190.391C765.362 192.039 765.502 194.162 765.729 197.617C765.899 200.208 766.118 203.549 767.612 208C767.792 208.539 771.935 220.649 776.284 220.496C779.116 220.396 781.187 215.012 782.354 211.977L782.355 211.976C783.619 208.69 783.694 206.861 783.753 205.398C783.811 203.98 783.855 202.907 784.956 201.184C786.779 198.33 791.664 195.873 801.434 190.96C810.515 186.393 813.125 185.952 815.31 185.848C820.007 185.824 824.582 186.823 828.318 188.687C832.396 190.372 834.287 191.91 841.925 198.124L842.195 198.344C850.36 204.986 852.568 206.763 856.07 209.136C863.136 213.924 866.753 216.311 870.814 215.952C873.494 215.47 875.867 214.437 877.584 213.006C879.302 211.574 880.272 209.819 880.353 208C880.409 205.993 879.072 204.832 876.964 203.002C875.295 201.552 873.141 199.683 870.814 196.639L870.811 196.637C868.381 193.459 864.868 188.867 867.345 186.983C868.484 186.117 870.279 186.29 873.176 186.57C874.872 186.734 876.945 186.934 879.486 186.983C887.69 187.037 895.77 185.665 902.902 183.007C909.395 180.749 915.248 178.714 917.645 174.487C920.944 168.671 915.72 162.2 914.176 160.288L914.176 160.287C912.355 158.032 910.459 156.567 908.903 155.365C906.797 153.738 905.317 152.594 905.503 150.631C905.777 149.065 906.743 147.585 908.284 146.374C909.825 145.163 911.873 144.273 914.176 143.815C916.858 143.373 918.744 143.953 920.969 144.637C923.191 145.321 925.753 146.109 929.786 146.087C933.825 146.169 937.791 145.37 941.06 143.815C942.328 143.146 943.195 142.438 943.838 141.708C944.737 144.222 945.384 146.705 946.008 149.097C947.22 153.743 948.343 158.049 951.043 161.585C953.437 164.759 957.5 155 957.5 155L954.842 132.847C955.02 132.834 955.203 132.822 955.389 132.809C957.042 132.7 959.031 132.567 961.874 131.887C966.065 130.9 969.87 129.32 973.019 127.258C976.167 125.196 978.581 122.703 980.086 119.959C980.989 118.087 981.301 116.115 981.003 114.162C980.705 112.209 979.803 110.316 978.352 108.598C975.591 105.855 971.645 104.864 968.4 104.048C965.534 103.328 963.215 102.745 962.741 101.214C961.465 97.084 975.477 92.0274 978.351 90.9903L978.352 90.9899C983.891 88.7869 990.115 87.4281 996.564 87.014C1004.51 86.6082 1009.97 88.0104 1014.43 89.1564C1018.8 90.2768 1022.21 91.1523 1026.05 89.8539C1029.66 88.6336 1030.95 86.4091 1032.22 84.2085C1033.58 81.8603 1034.92 79.5392 1039.06 78.4939C1043.56 77.3575 1048.17 78.5357 1054.67 80.1976L1054.67 80.1979C1060.64 81.7232 1063.6 83.2478 1066.06 84.5078C1068.18 85.5985 1069.92 86.4909 1072.88 87.014C1083.51 88.891 1097.31 83.7875 1104.1 76.7897C1111.22 69.4469 1112.35 58.2351 1104.97 54.6374C1102.15 53.2641 1099.39 53.6323 1094.05 54.3439C1090.61 54.8026 1086.1 55.4039 1079.82 55.7737C1068.52 56.3177 1057.15 55.936 1046 54.6374C1037.96 53.6549 1034.15 52.5689 1030.11 51.4155C1026.11 50.2718 1021.87 49.0619 1013.04 47.8213C1002.34 45.8221 991.135 45.2428 980.086 46.1174C973.603 46.7917 969.504 47.8936 966.114 48.8052C961.811 49.9618 958.649 50.812 953.202 50.0935C948.561 49.4814 946.063 48.2322 943.475 46.938C940.61 45.5052 937.635 44.0172 931.521 43.2774C927.69 42.814 925.251 42.9614 922.813 43.1088C920.036 43.2766 917.263 43.4442 912.441 42.7094C907.658 41.9804 905.351 41.0478 903.416 40.2656C901.521 39.5 899.984 38.8786 896.831 38.7332C890.793 38.4548 886.196 40.2621 882.383 41.7609C878.907 43.1272 876.084 44.2373 873.415 43.2774C871.884 42.4874 870.739 41.4209 870.122 40.2095C869.506 38.9982 869.445 37.6952 869.946 36.4613C871.416 32.2693 879.33 29.9015 884.234 28.4341C886.662 27.7078 888.352 27.2021 888.159 26.805C888.021 26.5226 887.083 26.6058 885.627 26.735C883.163 26.9536 879.215 27.3039 875.15 26.237C871.698 25.3311 869.901 23.8595 868.413 22.6413C867.004 21.4877 865.872 20.5612 863.876 20.5572C861.456 20.5522 860.145 21.9076 858.551 23.5552C856.86 25.3023 854.852 27.378 850.867 28.5092C847.621 29.4306 845.356 29.0744 842.814 28.6747C840.355 28.288 837.638 27.8606 833.522 28.5092C831.377 28.8472 830.619 29.1991 823.426 32.5393L823.426 32.5396L823.425 32.5399L823.415 32.5444C821.505 33.4317 819.141 34.5294 816.177 35.8933C806.729 40.2411 805.112 40.8856 802.301 41.0052C798.24 41.1778 795.023 40.1124 792.63 39.3198C790.692 38.6781 789.294 38.2152 788.426 38.7332C786.756 39.7294 788.5 43.4849 791.894 46.1174C794.721 48.3092 798.077 49.2461 800.389 49.8916C802.093 50.3674 803.23 50.6847 803.169 51.2295C803.017 52.5819 795.587 54.4398 789.293 52.9335C786.559 52.2792 785.228 51.2747 783.927 50.2931C782.65 49.3295 781.403 48.3879 778.886 47.8213C773.269 46.557 766.049 48.2215 763.892 50.2485C763.619 49.7842 763.257 49.3406 762.81 48.9288C760.266 47.0103 755.47 47.1677 751.438 47.3C750.426 47.3332 749.463 47.3648 748.595 47.3616C747.508 47.3863 746.477 47.687 745.721 48.2003C744.965 48.7136 744.543 49.3994 744.543 50.1131C744.543 50.8268 744.965 51.5125 745.721 52.0258C746.477 52.5391 747.508 52.8397 748.595 52.8644L753.795 52.8833C754.084 52.8843 754.372 52.8849 754.661 52.8855C755.043 52.8862 755.425 52.887 755.807 52.8889C755.825 53.2944 755.899 53.7516 755.963 54.145C756.016 54.4739 756.062 54.7581 756.062 54.9301L756.068 58.9523C756.106 59.6655 756.564 60.3413 757.347 60.8371C758.129 61.3329 759.175 61.61 760.263 61.61C761.351 61.61 762.397 61.3329 763.179 60.8371C763.962 60.3413 764.42 59.6655 764.458 58.9523C764.457 58.3006 764.458 57.6489 764.459 56.9973V56.9808C764.46 55.6878 764.462 54.3947 764.449 53.1019C764.459 53.043 764.468 52.9841 764.476 52.9252C765.142 53.3356 766.016 53.7223 766.932 54.1273C769.175 55.119 771.665 56.2203 771.948 58.0457C772.537 61.8511 763.28 67.1655 755.47 66.5657C752.458 66.3343 750.953 65.3224 748.253 63.5077C746.223 62.1437 743.519 60.3262 738.992 58.0457L738.992 58.0452C734.861 55.9643 725.78 51.3883 722.515 52.9335C721.218 53.5475 721.479 54.8255 721.771 56.257C722.095 57.8431 722.457 59.6175 720.78 60.8856C718.791 62.3905 715.415 62.0581 710.393 61.5634C707.695 61.2978 704.522 60.9853 700.834 60.8856C691.33 60.8046 681.896 61.9631 673.082 64.2938C665.277 66.6862 657.987 69.7419 651.401 73.3819C649.276 74.4513 647.376 75.4629 645.678 76.3673C640.366 79.1955 637.023 80.9757 634.923 80.198C633.841 79.797 633.744 78.9586 633.604 77.7442C633.445 76.3659 633.23 74.5032 631.454 72.2458C630.221 70.6774 628.946 69.8242 627.967 69.1688C626.928 68.4736 626.222 68.001 626.251 67.1337C626.317 65.1245 630.233 63.8324 633.888 62.6266C637.129 61.5572 640.165 60.5556 640.127 59.1816C640.068 57.0498 632.652 55.5233 625.384 54.0695L625.381 54.0688C612.769 51.5463 606.462 50.2849 598.499 51.2295C590.322 52.1997 585.242 54.9056 575.084 60.3176C567.724 64.3917 561.039 68.9608 555.137 73.9498C544.428 82.3006 539.1 86.5324 540.394 89.286C542.917 94.6535 560.352 97.6101 567.278 93.8302C569.464 92.6373 569.715 91.2585 570.076 89.2726C570.429 87.3348 570.886 84.8189 573.349 81.3339C576.425 77.1554 580.866 73.471 586.358 70.5419C590.181 68.3491 598.258 64.3114 600.234 65.4297C601.001 65.8643 600.741 67.0167 595.898 74.5178C594.883 76.0883 593.978 77.4575 593.188 78.6522L593.172 78.6764L593.171 78.6777C589.86 83.6835 588.583 85.6144 589.827 86.4461C590.632 86.9847 591.939 86.6906 593.843 86.2623C596.016 85.7733 598.967 85.1094 602.835 85.3101C609.123 85.6362 615.849 88.1434 615.844 90.422C615.842 91.6045 614.027 92.2155 611.086 93.2062C609.169 93.852 606.772 94.6591 604.087 95.8909C597.868 98.7434 595.271 101.5 593.077 103.829C590.905 106.135 589.129 108.022 584.623 109.166C582.193 109.784 581.022 109.663 578.226 109.376C575.617 109.108 571.593 108.694 563.809 108.598C556.536 108.184 549.209 108.568 542.128 109.734C536.12 110.902 530.522 112.832 525.651 115.414L525.649 115.415C525.534 115.476 525.416 115.539 525.295 115.603C518.097 108.349 509.541 100.34 498.786 96.8195C493.968 95.2428 489.714 99.9881 494.551 101.571C505.735 105.232 512.378 112.314 518.696 119.529ZM955.408 330.52C952.383 332.172 950.33 333.292 947.131 332.962C933.374 331.54 924.614 305.992 934.122 301.721C936.009 300.874 938.121 301.086 940.535 301.329C943.414 301.619 946.725 301.953 950.6 300.585C953.563 299.54 954.674 298.271 956.128 296.61C957.234 295.346 958.538 293.856 961.007 292.065C963.644 290.153 965.314 289.562 969.338 288.138C971.794 287.269 975.125 286.091 980.086 284.113C985.219 282.067 988.874 280.45 991.599 279.245C996.843 276.925 998.643 276.129 1000.9 276.729C1003.41 277.397 1004.05 279.145 1004.86 281.354C1005.78 283.875 1006.91 286.996 1011.31 289.793C1014.2 291.638 1020.13 294.368 1024.32 293.201C1028.82 291.947 1029.75 286.625 1030.33 283.345C1030.61 281.787 1030.8 280.689 1031.25 280.705C1031.57 280.716 1031.73 281.264 1031.99 282.22C1032.39 283.633 1033.03 285.935 1034.83 288.707C1034.83 288.707 1035.48 289.71 1036.46 290.929C1040 294.906 1044.38 298.538 1049.47 301.721C1056.56 306.695 1060.85 313.109 1061.61 319.898C1061.78 321.694 1062.95 333.993 1049.47 339.21C1045.65 340.662 1041.31 341.428 1036.89 341.428C1032.47 341.428 1028.14 340.662 1024.32 339.21C1021.36 337.949 1020.16 336.616 1018.72 335.015C1017.24 333.362 1015.5 331.424 1011.31 328.986C1007.1 326.397 1002.06 324.456 996.564 323.305C988.211 321.912 979.396 322.311 971.414 324.441C963.125 326.309 958.693 328.728 955.408 330.52ZM350.832 15.2443C344.759 15.8126 339.175 16.335 333.99 19.9889C328.998 23.5066 325.169 29.367 327.919 33.6211C329.538 36.1246 332.697 36.9306 338.315 38.3638C341.697 39.2266 345.97 40.3168 351.335 42.1415C364.122 46.4909 373.474 49.672 374.75 54.6374C375.617 58.011 372.301 60.4327 368.694 63.0667C364.915 65.826 360.817 68.8182 360.874 73.3818C360.974 81.2969 373.488 86.9672 377.352 88.718C387.646 93.382 404.654 96.7784 410.307 92.6941C412.973 90.7685 411.829 88.1084 410.448 84.8945C408.837 81.1465 406.903 76.6454 410.307 71.6778C414.223 67.1778 419.914 63.4502 426.785 60.8855C432.044 58.4369 435.621 57.4233 438.309 56.6615C441.258 55.8257 443.138 55.293 444.997 53.5015C452.78 46.0004 442.675 33.3172 441.528 31.9171C438.369 28.0602 435.55 26.4974 432.37 24.7342C429.115 22.9292 425.481 20.9142 420.714 16.013C418.096 13.3208 416.557 11.2181 415.285 9.48179L415.285 9.48157C413.214 6.65308 411.855 4.79698 407.705 2.94874C404.576 1.53876 401.007 0.603222 397.256 0.210219C393.506 -0.182783 389.669 -0.0233637 386.024 0.676821C381.495 1.67338 379.736 3.25645 377.529 5.24263C375.868 6.73717 373.953 8.45996 370.414 10.3328C363.346 14.0736 356.848 14.6814 350.832 15.2443ZM12.4739 83.3862C10.9409 81.9562 9.3445 80.467 9.64102 78.4939C10.4804 72.9083 20.5279 67.4327 33.0564 66.6489C44.674 66.6302 56.1778 68.1475 66.8789 71.1099C72.8817 72.5862 76.9333 74.0689 80.2338 75.2768C85.0952 77.0558 88.327 78.2385 93.7637 77.926C97.8208 77.6929 99.7183 76.8218 102.241 75.6637C104.421 74.6632 107.067 73.4485 111.976 72.2458C122.812 69.6257 134.609 69.2295 145.798 71.1099C151.201 72.1388 154.237 73.4495 157.322 74.7816C160.866 76.3119 164.476 77.8703 171.816 79.0619C177.533 79.7823 183.338 80.1625 189.16 80.1979C197.095 80.5749 203.392 80.9452 208.444 81.2422C223.469 82.1257 227.474 82.3613 230.788 80.1979C234.122 78.0208 234.143 75.044 234.161 72.4463C234.178 70.0331 234.192 67.9472 236.859 67.1337C237.575 66.915 238.333 66.7741 239.119 66.7034C238.642 66.5241 238.22 66.284 237.879 65.9942C237.267 65.4738 236.958 64.8273 237.007 64.1707C237.056 63.5142 237.46 62.8906 238.146 62.4119C239.733 61.3239 242.896 59.505 246.645 57.7982C250.011 54.849 251.371 51.2799 252.738 47.6912C254.003 44.3713 255.274 41.0348 258.145 38.157C257.804 37.9421 257.517 37.6894 257.3 37.408C256.849 36.8227 256.73 36.1515 256.964 35.514C259.689 28.6343 265.886 24.4537 273.893 21.6482C273.642 21.4435 273.435 21.2156 273.281 20.9705C272.967 20.4736 272.879 19.9277 273.029 19.3988C273.178 18.8699 273.558 18.3807 274.122 17.9905C274.296 17.8874 274.474 17.7852 274.657 17.6841C263.734 17.9481 252.838 17.7562 241.922 17.374L241.922 17.3737C236.542 17.1853 236.526 11.6818 241.922 11.8707C253.541 12.3372 265.189 12.4212 276.822 12.1224C280.623 12.0057 285.386 11.5226 290.28 11.0261C297.636 10.2799 305.29 9.5034 310.428 9.89553C311.873 10.0059 313.045 10.0569 314.028 10.0997C317.933 10.2696 318.863 10.3101 322.204 13.4289C322.584 13.8492 322.785 14.3289 322.785 14.8176C322.785 15.3064 322.584 15.7861 322.204 16.2064C317.073 22.0338 308.579 21.1586 300 20.2477C299.726 21.2047 298.794 22.0566 297.13 22.3064L296.729 22.3664C292.538 22.9951 288.247 23.6387 284.208 24.5555C283.951 24.6798 283.695 24.805 283.44 24.931C285.369 24.6882 287.328 24.5255 289.306 24.4462C293.13 24.1936 294.546 27.5606 292.272 29.1432C289.403 31.2679 285.907 32.9895 281.996 34.2044C269.111 38.8543 265.168 43.3588 259.602 52.2625C259.258 52.8121 258.93 53.3462 258.611 53.8655C263.622 53.0404 267.986 53.758 269.658 57.7588C270.568 59.9345 269.817 61.606 268.137 62.8515L270.43 63.2331C271.297 63.4063 272.056 63.7576 272.596 64.2353C272.611 64.2489 272.626 64.2626 272.641 64.2764C272.652 64.2862 272.662 64.2961 272.673 64.306C273.168 64.2731 273.662 64.2367 274.156 64.1967C272.399 62.2643 275.006 59.0156 278.772 60.0479L279.068 60.1288C280.47 60.5127 281.505 60.7962 282.334 61.0956L288.462 62.9412C289.24 63.0989 289.933 63.3998 290.458 63.8082C290.848 64.112 291.134 64.4659 291.298 64.8454C292.247 64.5984 293.558 64.6634 295.231 65.0403L295.231 65.0406C295.48 65.0462 295.725 65.0663 295.965 65.1L297.5 65.1138C298.406 65.133 299.279 65.3426 299.99 65.7116C300.702 66.0806 301.213 66.5897 301.45 67.1637L301.46 67.1887C301.471 67.2158 301.481 67.2429 301.491 67.2702C308.144 67.7284 314.758 68.4133 321.308 69.3226C322.262 69.515 323.082 69.9235 323.62 70.4752C324.158 71.027 324.38 71.6862 324.246 72.3352C324.112 72.9843 323.631 73.581 322.889 74.0191C322.146 74.4572 321.191 74.7082 320.193 74.7273L312.63 74.5452L313.947 76.1976C313.991 76.2496 314.034 76.3024 314.074 76.3559C315.261 75.941 316.74 75.8305 318.138 76.2384L325.432 78.3666C329.532 79.5631 327.192 83.1565 323.518 83.439C323.339 83.5552 323.145 83.6613 322.936 83.7557C322.261 84.0607 321.467 84.2313 320.648 84.247C319.075 84.3722 317.498 84.4725 315.918 84.5477C315.893 84.5736 315.868 84.5991 315.842 84.6244C315.801 84.6641 315.759 84.703 315.715 84.7411C315.573 85.1981 315.257 85.6254 314.796 85.983C314.466 86.238 314.071 86.4508 313.631 86.6126C315.395 88.5075 316.894 90.5086 318.106 92.5922C322.15 94.2019 318.023 98.5162 313.323 97.1574C311.75 96.7025 310.414 96.2157 309.274 95.705L308.963 95.6267C308.872 95.6182 308.781 95.6091 308.691 95.5991C307.11 95.4257 305.608 95.0249 304.292 94.4255C303.548 94.1205 302.971 93.6722 302.637 93.145C298.446 91.3472 295.712 88.6354 295.805 84.6674C295.821 84.0677 296.129 83.487 296.683 83.0098C296.949 82.7802 297.266 82.5802 297.621 82.4157C297.476 81.6583 297.774 80.8296 298.442 80.1837C297.824 80.0556 297.213 79.9093 296.61 79.7449L296.608 79.7446L296.609 79.7444L296.608 79.7443C295.57 79.5304 294.7 79.0607 294.179 78.4341C293.659 77.8075 293.53 77.0729 293.819 76.385C294.108 75.6972 294.793 75.1098 295.729 74.7466C296.666 74.3834 297.78 74.2727 298.839 74.4382L298.842 74.4384L303.256 74.6492L301.953 73.0129C301.896 72.9471 301.844 72.8799 301.796 72.8116C298.656 72.5831 295.507 72.4085 292.351 72.2883C291.808 72.2967 291.263 72.2777 290.722 72.2311L290.716 72.2309C289.629 72.2059 288.599 71.9051 287.843 71.3918C287.466 71.1358 287.172 70.837 286.972 70.5132C286.654 70.4928 286.342 70.4487 286.042 70.3825C285.203 70.3479 284.396 70.1512 283.724 69.8157C283.178 69.5433 282.744 69.1901 282.453 68.7877C275.486 69.6199 268.412 70.0055 261.329 69.9386C260.332 69.9191 259.377 69.6679 258.635 69.2298C257.893 68.7917 257.412 68.1951 257.279 67.5463C257.199 67.1629 257.244 66.7759 257.406 66.4096C257.341 66.3711 257.278 66.3313 257.217 66.2901C257.016 66.1542 256.836 66.0057 256.682 65.8471C255.223 65.918 253.809 65.9066 252.543 65.8237C251.635 65.7973 250.761 65.5898 250.038 65.2288C249.877 65.1483 249.725 65.061 249.583 64.9676C249.438 64.9224 249.296 64.8716 249.159 64.8156L245.578 65.8646C244.847 66.1602 244.066 66.4495 243.23 66.7333C243.115 66.7744 242.997 66.8118 242.878 66.8455C248.589 67.7064 254.658 71.2777 256.96 75.1976C257.712 75.2626 258.471 75.4674 259.176 75.8506L264.569 78.7822C268.732 81.0449 262.764 84.9172 258.637 82.6733L257.007 81.7874C256.158 83.3725 254.754 85.0088 252.927 86.7836C253.504 86.8226 254.108 86.9575 254.719 87.211C261.033 89.8801 268.468 91.1791 275.97 90.9241C281.378 90.7715 281.349 96.2752 275.97 96.427C266.977 96.6933 258.077 95.1344 250.484 91.9626C249.57 91.5832 249.01 91.0883 248.734 90.5548C247.726 91.4178 246.655 92.3176 245.533 93.2611L245.531 93.2621C241.152 96.9426 237.248 99.566 234.244 101.585L234.244 101.585C229.807 104.566 227.333 106.229 228.186 108.03C228.902 109.541 231.339 109.841 234.966 110.288C238.426 110.713 242.968 111.273 248.133 113.142C255.348 115.755 258.76 119.108 261.677 121.976C264.624 124.872 267.066 127.273 272.416 127.911C276.414 128.304 280.5 127.856 284.084 126.631C287.669 125.406 290.568 123.468 292.362 121.095C293.602 118.733 292.306 116.752 290.891 114.588C289.378 112.273 287.728 109.749 288.893 106.326C290.203 102.481 294.747 98.439 299.3 98.3743C301.5 98.3431 302.822 99.253 307.91 102.753C309.136 103.597 310.581 104.591 312.309 105.758C320.683 111.415 322.512 112.227 324.45 112.006C326.94 111.723 328.199 109.9 329.366 108.21C330.416 106.689 331.392 105.276 333.123 105.19C335.756 105.06 337.897 108.113 340.561 111.911L340.562 111.912L340.562 111.912C341.224 112.856 341.919 113.847 342.662 114.846C347.694 121.615 353.141 126.377 356.808 129.584C360.017 132.389 361.863 134.003 360.874 134.727C359.992 135.373 357.79 134.622 354.693 133.567C349.589 131.829 342.054 129.262 333.99 130.751C331.289 131.18 328.782 132.021 326.672 133.206C324.562 134.39 322.909 135.884 321.849 137.567C320.555 140.369 322.333 142.706 324.045 144.958C325.609 147.014 327.119 148.998 326.185 151.199C325.142 153.657 320.932 156.667 306.238 158.583C295.858 162.583 287.896 168.8 283.69 176.191C280.699 182.211 281.256 188.386 281.614 192.354C281.843 194.881 281.99 196.513 281.088 196.639C280.359 196.742 279.78 195.741 278.889 194.203C277.415 191.657 275.088 187.637 269.814 184.711C263.805 181.701 256.412 180.117 248.848 180.22C241.284 180.323 233.998 182.107 228.186 185.279C221.177 189.587 216.149 197.495 220.381 202.32C222.432 204.658 225.706 205.185 230.274 205.922C233.937 206.512 238.432 207.236 243.796 209.136C258.539 214.355 267.44 224.055 265.478 225.608C264.674 226.244 262.296 225.319 258.026 223.657C252.183 221.384 242.797 217.733 229.053 214.816C222.659 213.459 217.902 212.808 214.032 212.279C207.632 211.404 203.655 210.86 198.7 208C195.437 206.117 194.362 204.737 192.383 202.197C190.756 200.11 188.52 197.24 183.957 192.664C179.357 187.513 173.824 182.745 167.479 178.463C160.876 174.295 155.456 172.428 151.049 170.91C146.06 169.192 142.369 167.921 139.728 164.263C138.212 162.165 138.291 161.01 138.449 158.704C138.589 156.655 138.792 153.696 137.993 148.359C137.58 141.933 135.528 135.597 131.922 129.615C127.936 124.042 122.341 119.027 115.445 114.846C106.353 108.688 98.6313 103.457 85.9585 100.646C73.239 98.1053 59.6518 98.1053 46.9323 100.646C41.1649 101.743 37.2464 103.038 33.9558 104.125C29.2306 105.686 25.7999 106.819 20.048 106.326C8.90838 105.372 -1.12142 99.1595 0.101344 95.5341C0.680632 93.8161 3.6596 93.0558 6.80987 92.2518C10.2536 91.3728 13.9021 90.4416 14.8443 88.15C15.603 86.305 14.0729 84.8778 12.4739 83.3862ZM922 182.5C920.5 182.5 918.5 185.507 918 187C917.165 189.492 918.072 190.964 918.686 191.96C918.807 192.157 918.917 192.336 919 192.5C919.5 193.493 921 189 921.5 187C921.5 186.364 921.68 185.549 921.849 184.782C922.078 183.74 922.288 182.788 922 182.5ZM239.208 29.8752C232.265 28.5946 226.123 25.8989 221.67 22.1777C220.908 21.6534 220.482 20.9567 220.482 20.2321C220.482 19.5076 220.908 18.8108 221.67 18.2865C222.46 17.7747 223.526 17.4877 224.636 17.4877C225.747 17.4877 226.813 17.7747 227.603 18.2865C231.057 21.3073 235.912 23.5117 241.439 24.5688C242.477 24.7822 243.349 25.2518 243.87 25.8786C244.391 26.5054 244.52 27.2403 244.231 27.9285C243.942 28.6167 243.256 29.2043 242.319 29.5674C241.382 29.9306 240.267 30.0409 239.208 29.8752ZM439.243 74.4966L439.242 74.4963C437.11 73.6823 435.007 72.8798 432.931 72.1464C428.171 70.4644 432.412 65.7153 437.166 67.3948C439.047 68.0594 441.097 68.8808 443.258 69.7467L443.258 69.7469C450.86 72.7927 459.837 76.3894 467.674 75.6537C472.964 75.1571 475.228 80.4603 469.904 80.9601C458.887 81.9943 448.765 78.1311 439.243 74.4966ZM580.066 19.1855C573.094 16.102 565.027 14.2502 556.646 13.809C551.289 13.5345 551.262 8.03014 556.646 8.30609C566.513 8.7585 576.036 10.8688 584.3 14.4339C588.791 16.379 584.584 21.1426 580.066 19.1855ZM609.405 12.048C603.82 11.5639 598.173 11.4655 592.557 11.7545C587.161 12.0082 587.203 6.50308 592.557 6.25145C598.925 5.97355 605.32 6.1379 611.635 6.74171C616.969 7.22751 614.685 12.5292 609.405 12.048ZM720.973 38.0146C713.821 40.6639 707.2 43.1165 709.383 49.7705C710.518 53.2294 702.428 54.6937 701.293 51.2333C700.052 47.9276 700.554 44.4436 702.717 41.3488C704.88 38.254 708.576 35.7306 713.205 34.1897C719.196 32.0121 724.72 29.3229 729.633 26.1924C733.567 23.75 738.673 22.2803 744.077 22.0348C749.477 21.8084 749.439 27.313 744.077 27.5377C738.558 27.769 734.625 30.3818 730.718 32.9779C728.359 34.545 726.01 36.106 723.326 37.1334C722.542 37.4333 721.755 37.7252 720.973 38.0146ZM203.812 50.4137C201.499 49.2325 198.839 48.3773 195.998 47.9018C194.959 47.6883 194.088 47.2188 193.567 46.592C193.046 45.9652 192.916 45.2302 193.206 44.5421C193.495 43.8539 194.18 43.2663 195.117 42.9031C196.054 42.54 197.17 42.4297 198.228 42.5955C202.443 43.3627 206.366 44.7004 209.745 46.5225C210.525 47.0407 210.963 47.7397 210.963 48.4681C210.963 49.1964 210.525 49.8955 209.745 50.4137C208.942 50.9088 207.881 51.1845 206.779 51.1845C205.676 51.1845 204.615 50.9088 203.812 50.4137ZM204.036 63.4552C199.484 62.5599 195.327 60.9617 191.912 58.7948C188.006 56.3377 193.947 52.452 197.845 54.9036C200.184 56.4114 203.033 57.5352 206.16 58.1835C209.286 58.8318 212.603 58.9861 215.838 58.634C221.128 58.0399 223.379 63.3439 218.068 63.9404C213.399 64.5169 208.587 64.3505 204.036 63.4552ZM228.841 51.1183C228.955 49.6343 228.472 48.1568 227.439 46.8341C224.976 43.6858 232.218 40.905 234.684 44.0567C236.444 46.227 237.309 48.6608 237.195 51.1178C237.082 53.5748 235.992 55.9697 234.034 58.0659C231.214 61.0835 223.96 58.3158 226.79 55.2884C228.02 54.0406 228.727 52.6023 228.841 51.1183ZM277.134 218.913C270.153 216.963 264.04 213.883 259.371 209.96C256.085 207.199 261.985 203.28 265.303 206.069C269.213 209.46 274.405 212.123 280.364 213.796C286.324 215.468 292.846 216.092 299.285 215.605C304.661 215.246 304.605 220.753 299.285 221.108C291.737 221.618 284.115 220.863 277.134 218.913ZM676.493 298.391C676.099 299.822 675.706 301.253 675.31 302.684C674.347 306.169 666.263 304.684 667.22 301.221C667.699 299.486 668.127 297.73 668.557 295.968L668.557 295.966L668.558 295.964L668.558 295.963L668.558 295.963C669.511 292.054 670.47 288.12 672.009 284.338C672.505 282.607 673.573 280.967 675.138 279.535C676.704 278.104 678.729 276.914 681.07 276.051C685.885 274.46 690.128 279.208 685.305 280.802C680.78 282.298 679.903 285.75 679.12 288.834C679.015 289.25 678.911 289.66 678.799 290.058C678.023 292.835 677.258 295.613 676.493 298.391ZM788.35 226.595V225.418C788.387 224.705 788.846 224.029 789.628 223.533C790.411 223.037 791.457 222.76 792.545 222.76C793.633 222.76 794.678 223.037 795.461 223.533C796.244 224.029 796.702 224.705 796.74 225.418V226.595C796.702 227.308 796.244 227.984 795.461 228.479C794.678 228.975 793.633 229.252 792.545 229.252C791.457 229.252 790.411 228.975 789.628 228.479C788.846 227.984 788.387 227.308 788.35 226.595ZM867.493 243.561C855.769 237.456 853.343 227.495 851.62 218.31C850.962 214.798 859.36 214.84 860.011 218.31C861.473 226.107 863.502 234.502 873.425 239.67C877.654 241.872 871.679 245.741 867.493 243.561ZM487.012 114.419C485.963 112.025 485.731 109.509 486.333 107.049C486.635 106.348 487.346 105.753 488.312 105.393C489.278 105.034 490.421 104.938 491.494 105.127C492.545 105.343 493.433 105.812 493.977 106.441C494.521 107.069 494.68 107.809 494.424 108.512C494.156 110.008 494.387 111.525 495.102 112.957C495.355 113.651 495.187 114.382 494.633 114.997C494.079 115.612 493.183 116.061 492.134 116.251C491.085 116.441 489.964 116.356 489.009 116.014C488.053 115.672 487.337 115.101 487.012 114.419ZM977.692 170.17C973.909 171.982 970.117 173.798 966.814 176.204C963.191 178.843 957.276 174.939 960.881 172.313C964.515 169.877 968.569 167.726 972.96 165.903C979.584 162.335 985.343 158.128 990.041 153.426C1004.38 141.501 1013.2 133.36 1007.87 117.289C1006.72 113.831 1014.81 112.367 1015.96 115.826C1020.07 128.206 1018.58 138.42 1006.75 148.741C1006.43 149.025 1006.1 149.31 1005.77 149.595L1005.14 150.153L1005.13 150.154L1005.13 150.154C1000.05 154.59 994.892 159.097 989.572 163.356C986.075 166.155 981.889 168.16 977.692 170.17ZM929.144 210.872L927.565 204.379C927.297 203.676 927.451 202.933 927.997 202.302C928.543 201.672 929.437 201.204 930.495 200.995C931.568 200.806 932.711 200.902 933.676 201.261C934.642 201.621 935.353 202.216 935.655 202.916L937.235 209.409C937.503 210.112 937.348 210.856 936.803 211.486C936.257 212.117 935.362 212.585 934.305 212.794C933.232 212.983 932.089 212.887 931.123 212.528C930.157 212.168 929.447 211.573 929.144 210.872ZM900.971 244.005C898.924 244.548 896.698 244.734 894.509 244.545C889.185 243.971 891.457 238.67 896.739 239.239C897.986 239.373 899.859 237.99 901.154 237.034C901.581 236.719 901.946 236.45 902.204 236.297C903.525 235.513 904.932 234.795 906.414 234.147C909.912 232.66 913.81 231.625 917.899 231.097C923.177 230.38 925.413 235.686 920.129 236.403C914.814 237.126 909.956 238.885 906.191 241.449C904.816 242.582 903.018 243.463 900.971 244.005ZM893.072 262.116C889.481 259.121 885.814 256.063 880.845 254.472C875.988 252.917 880.246 248.173 885.08 249.72C890.269 251.382 893.732 254.219 897.227 257.083L897.228 257.084C898.518 258.141 899.812 259.201 901.198 260.208C907.632 264.834 915.072 268.812 923.279 272.012C924.199 272.393 924.858 272.994 925.116 273.687C925.375 274.381 925.212 275.113 924.662 275.73C924.113 276.346 923.22 276.798 922.172 276.991C921.124 277.184 920.002 277.102 919.044 276.763C911.705 273.902 904.917 270.473 898.827 266.548C896.812 265.234 894.953 263.684 893.072 262.116ZM939.629 263.59C938.267 262.942 936.635 262.166 935.463 262.339C930.195 263.116 927.966 257.809 933.232 257.032C937.107 256.461 939.74 257.439 942.713 258.543C943.445 258.815 944.199 259.095 944.997 259.361C946.632 259.907 946.806 259.641 947.375 258.776C947.406 258.728 947.439 258.678 947.473 258.627C947.516 258.562 947.561 258.495 947.61 258.424C948.403 257.046 949.561 255.77 951.031 254.655C954.744 252.072 960.666 255.971 956.964 258.547C956.037 259.191 955.524 260.027 955.011 260.864C954.625 261.493 954.239 262.123 953.677 262.672C953.029 263.336 952.176 263.904 951.174 264.339C950.172 264.775 949.042 265.068 947.857 265.201C945.529 265.379 943.177 265.049 941.163 264.263C940.737 264.117 940.208 263.865 939.629 263.59ZM971.66 272.241L962.709 269.861C961.65 269.653 960.755 269.184 960.209 268.554C959.663 267.924 959.509 267.179 959.779 266.476C960.082 265.775 960.793 265.181 961.759 264.821C962.724 264.462 963.867 264.366 964.939 264.554L973.891 266.935C974.95 267.143 975.845 267.611 976.391 268.242C976.937 268.872 977.091 269.616 976.821 270.32C976.518 271.02 975.807 271.615 974.841 271.974C973.875 272.334 972.733 272.43 971.66 272.241ZM1046.91 277.561C1039.91 273.826 1032.91 270.097 1023.82 269.901C1018.43 269.784 1018.42 264.281 1023.82 264.398C1034.55 264.629 1042.15 268.525 1049.86 272.482C1054.76 274.994 1059.71 277.53 1065.53 279.168C1070.48 280.561 1066.21 285.3 1061.3 283.919C1056.1 282.458 1051.51 280.008 1046.91 277.561ZM132.216 62.275C126.259 60.9822 120.765 58.9094 116.066 56.1823V56.1822C112.001 53.8382 117.958 49.9609 121.998 52.2911C125.626 54.3833 129.86 55.9742 134.446 56.9686C139.552 58.083 137.35 63.3956 132.216 62.275ZM181.732 72.165C173.596 69.5978 164.793 68.0628 155.787 67.6409V67.6408C150.425 67.3843 150.4 61.8801 155.787 62.1379C166.266 62.6266 176.507 64.4168 185.967 67.4134C190.838 68.947 186.577 73.6903 181.732 72.165ZM172.831 51.0966C165.376 51.3345 157.999 50.0106 151.768 47.3165C147.269 45.3775 151.477 40.6144 156.002 42.5649C160.958 44.7511 166.868 45.8148 172.831 45.5937C178.237 45.4284 178.207 50.9322 172.831 51.0966ZM192.295 36.3364C189.322 35.0098 187.111 33.0683 186.016 30.8217C184.294 27.4504 192.4 26.0179 194.107 29.3587C194.711 30.4472 195.866 31.3667 197.379 31.9636C198.893 32.5605 200.673 32.7987 202.422 32.6383C207.807 32.3212 207.756 37.8271 202.422 38.1413C198.834 38.2985 195.268 37.6631 192.295 36.3364ZM1030.9 277.628C1035.13 278.958 1038.84 280.902 1041.76 283.313C1042.34 283.924 1043.26 284.366 1044.33 284.549C1045.4 284.733 1046.53 284.643 1047.5 284.3C1048.45 283.929 1049.15 283.325 1049.43 282.62C1049.71 281.916 1049.56 281.166 1049 280.535C1045.34 277.319 1040.59 274.699 1035.14 272.876C1030.32 271.299 1026.06 276.045 1030.9 277.628ZM937.436 227.779C938.512 228.91 940.105 229.79 941.989 230.293C943.872 230.796 945.949 230.895 947.924 230.578C949.984 230.18 951.777 229.335 953.011 228.182C954.244 227.029 954.846 225.636 954.717 224.23C954.408 220.709 946.016 220.686 946.327 224.23C946.381 224.84 945.604 225.879 944.681 225.002C941.634 222.106 934.359 224.854 937.436 227.779ZM1081.7 373.718C1083.77 371.982 1086.08 370.2 1088.45 368.367C1099.84 359.559 1112.74 349.576 1108.6 337.925C1107.38 334.477 1099.29 335.936 1100.51 339.388C1103.75 348.512 1091.88 357.494 1082.1 364.888C1079.8 366.629 1077.61 368.281 1075.77 369.827C1072.48 372.585 1078.38 376.506 1081.7 373.718ZM1050.23 360.71C1050.38 363.151 1051.75 365.49 1054.12 367.373C1054.91 367.885 1055.98 368.171 1057.09 368.171C1058.2 368.171 1059.27 367.885 1060.06 367.373C1060.82 366.849 1061.25 366.152 1061.25 365.427C1061.25 364.703 1060.82 364.006 1060.06 363.482C1059.15 362.677 1058.65 361.709 1058.62 360.71C1058.36 357.185 1049.97 357.164 1050.23 360.71ZM278.658 248.801C275.262 250.737 274.611 252.601 273.627 255.418C272.611 258.327 271.24 262.253 266.124 268.326C262.771 272.306 259.735 274.923 257.372 276.96C253.95 279.909 251.941 281.642 252.426 284.535C252.966 287.752 256.084 289.386 260.742 291.828C264.044 293.56 268.122 295.698 272.605 299.094C280.019 304.909 285.515 311.669 288.748 318.946C292.448 329.673 290.306 340.911 282.694 350.71C274.389 362.267 272.257 375.32 276.641 387.768C281.271 399.513 292.485 409.85 296.82 408.945C298.687 408.555 298.399 406.263 297.962 402.776C297.264 397.21 296.184 388.602 302.873 379.827C310.269 373.698 318.364 367.947 327.088 362.622C330.259 360.494 333.051 358.631 335.519 356.983L335.52 356.983C350.413 347.04 353.539 344.953 357.356 340.122C359.598 337.284 360.7 335.243 361.616 333.547C362.957 331.062 363.899 329.318 367.445 326.887C372.166 323.652 376.736 322.468 380.82 321.411C385.092 320.305 388.832 319.336 391.66 316.3C394.16 313.615 393.938 311.469 393.693 309.102C393.444 306.701 393.172 304.071 395.696 300.417C398.447 296.434 402.347 294.382 405.357 292.799C408.112 291.349 410.121 290.292 409.821 288.506C408.983 283.525 391.359 279.801 377.535 279.241C371.957 279.015 368.478 279.364 365.769 279.636C362.617 279.952 360.509 280.163 357.356 279.241C350.885 277.35 349.204 273.375 347.226 268.699C345.631 264.928 343.843 260.7 339.195 256.742C325.09 244.728 291.818 241.296 278.658 248.801ZM516.32 160.038C496.674 162.974 493.263 165.126 487.448 168.794L487.446 168.795C487.138 168.989 486.824 169.188 486.5 169.39C483.68 171.157 482.963 172.575 482.097 174.29C481.198 176.068 480.139 178.165 476.411 181.302C472.556 184.545 469.272 186.018 466.609 187.213C463.772 188.486 461.638 189.444 460.268 191.89C459.432 193.383 459.364 194.565 464.303 207.772C465.626 212.788 467.885 217.677 471.03 222.33C473.206 226.147 477.07 229.45 482.128 231.816C486.15 233.34 490.027 233.482 513.069 231.595C515.752 231.375 518.05 231.181 520.036 231.013C530.337 230.142 532.209 229.983 535.602 230.713C543.986 233.056 550.713 237.389 554.435 242.845C558.596 248.013 560.788 253.765 560.825 259.61C561.095 263.729 560.393 266.055 559.683 268.41C559.144 270.195 558.601 271.997 558.471 274.609C558.199 280.081 560.034 283.211 564.067 290.087L564.068 290.089C565.26 292.122 566.645 294.483 568.224 297.329C572.915 305.785 575.565 311.749 577.457 316.006L577.457 316.008C580.576 323.029 581.634 325.409 586.385 326.667C596.401 329.319 610.245 323.655 617.326 318.726C622.594 315.058 623.951 311.914 625.731 307.787C627.495 303.697 629.676 298.641 636.495 291.153C638.324 289.145 639.812 287.702 641.055 286.497L641.056 286.497C643.497 284.13 644.99 282.682 646.249 279.683C648.006 275.492 647.508 272.557 647.009 269.622C646.567 267.018 646.125 264.414 647.258 260.933C649.09 255.299 653.58 251.878 662.056 245.419C669.92 239.425 677.088 235.689 682.19 233.03C687.507 230.26 690.579 228.658 689.857 226.89C689.124 225.092 685.189 224.884 679.914 224.605C673.07 224.244 663.97 223.763 656.674 219.537C651.638 216.619 650.641 213.758 649.245 209.746C648.039 206.283 646.535 201.962 641.877 196.008C636.012 188.512 627.82 178.041 614.075 176.302C608.544 175.603 604.576 176.628 600.005 177.809C594.847 179.141 588.921 180.672 579.118 180.148C572.373 180.2 565.775 178.854 560.265 176.302C555.099 173.562 553.598 170.292 552.253 167.364C550.984 164.6 549.854 162.14 545.915 160.714C540.564 158.777 534.73 157.287 516.32 160.038Z" fill="url(#paint0_linear_509_9329)"/>
<path opacity="0.16" d="M573.479 218.245L571.52 212.541L569.437 218.245H573.479ZM570.605 210.625H572.583L577.268 223.536H575.352L574.042 219.669H568.936L567.538 223.536H565.745L570.605 210.625ZM579.043 212.691C579.066 212.034 579.181 211.554 579.386 211.249C579.755 210.71 580.467 210.441 581.521 210.441C581.621 210.441 581.724 210.444 581.829 210.449C581.935 210.455 582.055 210.464 582.189 210.476V211.917C582.025 211.906 581.905 211.9 581.829 211.9C581.759 211.894 581.691 211.891 581.627 211.891C581.146 211.891 580.859 212.017 580.766 212.269C580.672 212.515 580.625 213.148 580.625 214.167H582.189V215.415H580.607V223.536H579.043V215.415H577.733V214.167H579.043V212.691ZM583.701 214.123H585.204V215.749C585.327 215.433 585.629 215.049 586.109 214.598C586.59 214.141 587.144 213.912 587.771 213.912C587.8 213.912 587.85 213.915 587.92 213.921C587.99 213.927 588.11 213.939 588.28 213.956V215.626C588.187 215.609 588.099 215.597 588.017 215.591C587.94 215.585 587.855 215.582 587.762 215.582C586.965 215.582 586.353 215.84 585.925 216.356C585.497 216.865 585.283 217.454 585.283 218.122V223.536H583.701V214.123ZM589.651 214.167H591.26V223.536H589.651V214.167ZM589.651 210.625H591.26V212.418H589.651V210.625ZM597.289 213.851C598.35 213.851 599.211 214.109 599.873 214.624C600.541 215.14 600.942 216.028 601.077 217.287H599.539C599.445 216.707 599.231 216.227 598.897 215.846C598.563 215.459 598.027 215.266 597.289 215.266C596.281 215.266 595.561 215.758 595.127 216.742C594.846 217.381 594.705 218.169 594.705 219.107C594.705 220.05 594.904 220.844 595.303 221.489C595.701 222.133 596.328 222.455 597.184 222.455C597.84 222.455 598.358 222.256 598.739 221.858C599.126 221.453 599.393 220.903 599.539 220.205H601.077C600.901 221.453 600.462 222.367 599.759 222.948C599.056 223.522 598.156 223.809 597.061 223.809C595.83 223.809 594.849 223.361 594.116 222.464C593.384 221.562 593.018 220.437 593.018 219.089C593.018 217.437 593.419 216.151 594.222 215.231C595.024 214.311 596.047 213.851 597.289 213.851ZM603.872 221.031C603.872 221.489 604.039 221.849 604.373 222.113C604.707 222.376 605.103 222.508 605.56 222.508C606.116 222.508 606.655 222.379 607.177 222.121C608.056 221.694 608.495 220.993 608.495 220.021V218.746C608.302 218.869 608.053 218.972 607.748 219.054C607.443 219.136 607.145 219.195 606.852 219.23L605.894 219.353C605.319 219.429 604.889 219.549 604.602 219.713C604.115 219.989 603.872 220.428 603.872 221.031ZM607.704 217.832C608.067 217.785 608.311 217.633 608.434 217.375C608.504 217.235 608.539 217.032 608.539 216.769C608.539 216.23 608.346 215.84 607.959 215.6C607.578 215.354 607.03 215.231 606.315 215.231C605.489 215.231 604.903 215.453 604.558 215.899C604.364 216.145 604.238 216.511 604.18 216.997H602.703C602.732 215.837 603.107 215.031 603.828 214.58C604.555 214.123 605.396 213.895 606.351 213.895C607.458 213.895 608.357 214.106 609.049 214.528C609.734 214.949 610.077 215.606 610.077 216.496V221.919C610.077 222.083 610.109 222.215 610.174 222.315C610.244 222.414 610.388 222.464 610.604 222.464C610.675 222.464 610.754 222.461 610.842 222.455C610.93 222.444 611.023 222.429 611.123 222.411V223.58C610.877 223.651 610.689 223.695 610.561 223.712C610.432 223.73 610.256 223.739 610.033 223.739C609.488 223.739 609.093 223.545 608.847 223.158C608.718 222.953 608.627 222.663 608.574 222.288C608.252 222.71 607.789 223.076 607.186 223.387C606.582 223.698 605.917 223.853 605.19 223.853C604.317 223.853 603.603 223.589 603.046 223.062C602.495 222.529 602.22 221.864 602.22 221.067C602.22 220.194 602.492 219.517 603.037 219.036C603.582 218.556 604.297 218.26 605.182 218.149L607.704 217.832Z" fill="#1363BF"/>
<path opacity="0.16" d="M161.812 130.668H163.878L170.399 141.127V130.668H172.061V143.579H170.101L163.482 133.129V143.579H161.812V130.668ZM178.345 142.56C179.394 142.56 180.111 142.164 180.498 141.373C180.891 140.576 181.087 139.691 181.087 138.719C181.087 137.84 180.946 137.125 180.665 136.574C180.22 135.707 179.452 135.273 178.362 135.273C177.396 135.273 176.692 135.643 176.253 136.381C175.813 137.119 175.594 138.01 175.594 139.053C175.594 140.055 175.813 140.89 176.253 141.558C176.692 142.226 177.39 142.56 178.345 142.56ZM178.406 133.894C179.619 133.894 180.645 134.298 181.482 135.106C182.32 135.915 182.739 137.104 182.739 138.675C182.739 140.192 182.37 141.446 181.632 142.437C180.894 143.427 179.748 143.922 178.195 143.922C176.9 143.922 175.872 143.485 175.11 142.612C174.349 141.733 173.968 140.556 173.968 139.079C173.968 137.497 174.369 136.237 175.172 135.3C175.975 134.362 177.053 133.894 178.406 133.894ZM184.673 134.166H186.176V135.792C186.299 135.476 186.601 135.092 187.081 134.641C187.562 134.184 188.115 133.955 188.742 133.955C188.771 133.955 188.821 133.958 188.892 133.964C188.962 133.97 189.082 133.981 189.252 133.999V135.669C189.158 135.651 189.07 135.64 188.988 135.634C188.912 135.628 188.827 135.625 188.733 135.625C187.937 135.625 187.324 135.883 186.896 136.398C186.469 136.908 186.255 137.497 186.255 138.165V143.579H184.673V134.166ZM190.939 131.538H192.539V134.166H194.042V135.458H192.539V141.602C192.539 141.93 192.65 142.149 192.873 142.261C192.996 142.325 193.201 142.357 193.488 142.357C193.564 142.357 193.646 142.357 193.734 142.357C193.822 142.352 193.925 142.343 194.042 142.331V143.579C193.86 143.632 193.67 143.67 193.471 143.693C193.277 143.717 193.066 143.729 192.838 143.729C192.1 143.729 191.599 143.541 191.335 143.166C191.071 142.785 190.939 142.293 190.939 141.689V135.458H189.665V134.166H190.939V131.538ZM195.633 130.624H197.215V135.44C197.59 134.966 197.927 134.632 198.226 134.438C198.735 134.104 199.371 133.938 200.133 133.938C201.498 133.938 202.424 134.415 202.91 135.37C203.174 135.892 203.306 136.615 203.306 137.541V143.579H201.68V137.646C201.68 136.955 201.592 136.448 201.416 136.126C201.129 135.61 200.59 135.353 199.799 135.353C199.143 135.353 198.548 135.578 198.015 136.029C197.481 136.48 197.215 137.333 197.215 138.587V143.579H195.633V130.624ZM216.516 138.288L214.556 132.584L212.473 138.288H216.516ZM213.642 130.668H215.619L220.304 143.579H218.388L217.078 139.712H211.972L210.574 143.579H208.781L213.642 130.668ZM221.684 134.166H223.248V135.502C223.623 135.039 223.963 134.702 224.268 134.491C224.789 134.134 225.381 133.955 226.043 133.955C226.793 133.955 227.396 134.14 227.854 134.509C228.111 134.72 228.346 135.03 228.557 135.44C228.908 134.937 229.321 134.564 229.796 134.324C230.271 134.078 230.804 133.955 231.396 133.955C232.661 133.955 233.522 134.412 233.979 135.326C234.226 135.818 234.349 136.48 234.349 137.312V143.579H232.705V137.04C232.705 136.413 232.547 135.982 232.23 135.748C231.92 135.514 231.539 135.396 231.088 135.396C230.467 135.396 229.931 135.604 229.479 136.021C229.034 136.437 228.812 137.131 228.812 138.104V143.579H227.203V137.436C227.203 136.797 227.127 136.331 226.975 136.038C226.734 135.599 226.286 135.379 225.63 135.379C225.032 135.379 224.487 135.61 223.995 136.073C223.509 136.536 223.266 137.374 223.266 138.587V143.579H221.684V134.166ZM240.598 133.955C241.266 133.955 241.913 134.113 242.54 134.43C243.167 134.74 243.645 135.145 243.973 135.643C244.289 136.117 244.5 136.671 244.605 137.304C244.699 137.737 244.746 138.429 244.746 139.378H237.847C237.876 140.333 238.102 141.101 238.523 141.681C238.945 142.255 239.599 142.542 240.483 142.542C241.31 142.542 241.969 142.27 242.461 141.725C242.742 141.408 242.941 141.042 243.059 140.626H244.614C244.573 140.972 244.436 141.358 244.201 141.786C243.973 142.208 243.715 142.554 243.428 142.823C242.947 143.292 242.353 143.608 241.644 143.772C241.263 143.866 240.832 143.913 240.352 143.913C239.18 143.913 238.187 143.488 237.372 142.639C236.558 141.783 236.15 140.588 236.15 139.053C236.15 137.541 236.561 136.313 237.381 135.37C238.201 134.427 239.273 133.955 240.598 133.955ZM243.12 138.121C243.056 137.436 242.906 136.888 242.672 136.478C242.238 135.716 241.515 135.335 240.501 135.335C239.774 135.335 239.165 135.599 238.673 136.126C238.181 136.647 237.92 137.312 237.891 138.121H243.12ZM246.741 134.166H248.244V135.792C248.367 135.476 248.669 135.092 249.149 134.641C249.63 134.184 250.184 133.955 250.811 133.955C250.84 133.955 250.89 133.958 250.96 133.964C251.03 133.97 251.15 133.981 251.32 133.999V135.669C251.227 135.651 251.139 135.64 251.057 135.634C250.98 135.628 250.896 135.625 250.802 135.625C250.005 135.625 249.393 135.883 248.965 136.398C248.537 136.908 248.323 137.497 248.323 138.165V143.579H246.741V134.166ZM252.691 134.21H254.3V143.579H252.691V134.21ZM252.691 130.668H254.3V132.461H252.691V130.668ZM260.329 133.894C261.39 133.894 262.251 134.151 262.913 134.667C263.581 135.183 263.982 136.07 264.117 137.33H262.579C262.485 136.75 262.271 136.27 261.938 135.889C261.604 135.502 261.067 135.309 260.329 135.309C259.321 135.309 258.601 135.801 258.167 136.785C257.886 137.424 257.745 138.212 257.745 139.149C257.745 140.093 257.944 140.887 258.343 141.531C258.741 142.176 259.368 142.498 260.224 142.498C260.88 142.498 261.398 142.299 261.779 141.9C262.166 141.496 262.433 140.945 262.579 140.248H264.117C263.941 141.496 263.502 142.41 262.799 142.99C262.096 143.564 261.196 143.852 260.101 143.852C258.87 143.852 257.889 143.403 257.156 142.507C256.424 141.604 256.058 140.479 256.058 139.132C256.058 137.479 256.459 136.193 257.262 135.273C258.064 134.354 259.087 133.894 260.329 133.894ZM266.912 141.074C266.912 141.531 267.079 141.892 267.413 142.155C267.747 142.419 268.143 142.551 268.6 142.551C269.156 142.551 269.695 142.422 270.217 142.164C271.096 141.736 271.535 141.036 271.535 140.063V138.789C271.342 138.912 271.093 139.015 270.788 139.097C270.483 139.179 270.185 139.237 269.892 139.272L268.934 139.396C268.359 139.472 267.929 139.592 267.642 139.756C267.155 140.031 266.912 140.471 266.912 141.074ZM270.744 137.875C271.107 137.828 271.351 137.676 271.474 137.418C271.544 137.277 271.579 137.075 271.579 136.812C271.579 136.272 271.386 135.883 270.999 135.643C270.618 135.396 270.07 135.273 269.355 135.273C268.529 135.273 267.943 135.496 267.598 135.941C267.404 136.188 267.278 136.554 267.22 137.04H265.743C265.772 135.88 266.147 135.074 266.868 134.623C267.595 134.166 268.436 133.938 269.391 133.938C270.498 133.938 271.397 134.148 272.089 134.57C272.774 134.992 273.117 135.648 273.117 136.539V141.962C273.117 142.126 273.149 142.258 273.214 142.357C273.284 142.457 273.428 142.507 273.645 142.507C273.715 142.507 273.794 142.504 273.882 142.498C273.97 142.486 274.063 142.472 274.163 142.454V143.623C273.917 143.693 273.729 143.737 273.601 143.755C273.472 143.772 273.296 143.781 273.073 143.781C272.528 143.781 272.133 143.588 271.887 143.201C271.758 142.996 271.667 142.706 271.614 142.331C271.292 142.753 270.829 143.119 270.226 143.43C269.622 143.74 268.957 143.896 268.23 143.896C267.357 143.896 266.643 143.632 266.086 143.104C265.535 142.571 265.26 141.906 265.26 141.109C265.26 140.236 265.532 139.56 266.077 139.079C266.622 138.599 267.337 138.303 268.222 138.191L270.744 137.875Z" fill="#1363BF"/>
<path opacity="0.16" d="M309.477 293.33C309.518 294.062 309.69 294.657 309.995 295.114C310.575 295.969 311.598 296.397 313.062 296.397C313.719 296.397 314.316 296.303 314.855 296.116C315.898 295.752 316.42 295.102 316.42 294.165C316.42 293.461 316.2 292.96 315.761 292.662C315.315 292.369 314.618 292.114 313.669 291.897L311.92 291.501C310.777 291.244 309.969 290.959 309.494 290.649C308.674 290.11 308.264 289.304 308.264 288.232C308.264 287.072 308.665 286.12 309.468 285.375C310.271 284.631 311.407 284.259 312.878 284.259C314.231 284.259 315.38 284.587 316.323 285.244C317.272 285.894 317.747 286.937 317.747 288.373H316.104C316.016 287.681 315.828 287.151 315.541 286.782C315.008 286.108 314.103 285.771 312.825 285.771C311.794 285.771 311.053 285.988 310.602 286.421C310.15 286.855 309.925 287.359 309.925 287.933C309.925 288.566 310.188 289.029 310.716 289.322C311.062 289.509 311.844 289.744 313.062 290.025L314.873 290.438C315.746 290.637 316.42 290.91 316.895 291.255C317.715 291.859 318.125 292.735 318.125 293.883C318.125 295.313 317.604 296.335 316.561 296.951C315.523 297.566 314.316 297.874 312.939 297.874C311.334 297.874 310.077 297.463 309.169 296.643C308.261 295.829 307.815 294.724 307.833 293.33H309.477ZM323.864 296.476C324.913 296.476 325.631 296.081 326.018 295.29C326.41 294.493 326.606 293.608 326.606 292.635C326.606 291.756 326.466 291.042 326.185 290.491C325.739 289.624 324.972 289.19 323.882 289.19C322.915 289.19 322.212 289.559 321.772 290.297C321.333 291.036 321.113 291.926 321.113 292.969C321.113 293.971 321.333 294.806 321.772 295.474C322.212 296.142 322.909 296.476 323.864 296.476ZM323.926 287.81C325.139 287.81 326.164 288.214 327.002 289.023C327.84 289.832 328.259 291.021 328.259 292.591C328.259 294.109 327.89 295.363 327.151 296.353C326.413 297.343 325.268 297.838 323.715 297.838C322.42 297.838 321.392 297.402 320.63 296.529C319.868 295.65 319.487 294.472 319.487 292.996C319.487 291.414 319.889 290.154 320.691 289.216C321.494 288.279 322.572 287.81 323.926 287.81ZM331.73 288.083V294.332C331.73 294.812 331.807 295.205 331.959 295.509C332.24 296.072 332.765 296.353 333.532 296.353C334.634 296.353 335.384 295.861 335.782 294.876C335.999 294.349 336.107 293.625 336.107 292.706V288.083H337.689V297.496H336.195L336.213 296.107C336.008 296.464 335.753 296.766 335.448 297.012C334.845 297.504 334.112 297.75 333.251 297.75C331.909 297.75 330.995 297.302 330.509 296.406C330.245 295.925 330.113 295.284 330.113 294.481V288.083H331.73ZM340.484 285.455H342.084V288.083H343.587V289.375H342.084V295.518C342.084 295.846 342.195 296.066 342.418 296.177C342.541 296.242 342.746 296.274 343.033 296.274C343.109 296.274 343.191 296.274 343.279 296.274C343.367 296.268 343.47 296.259 343.587 296.248V297.496C343.405 297.548 343.215 297.586 343.016 297.61C342.822 297.633 342.611 297.645 342.383 297.645C341.645 297.645 341.144 297.458 340.88 297.083C340.616 296.702 340.484 296.209 340.484 295.606V289.375H339.21V288.083H340.484V285.455ZM345.178 284.541H346.76V289.357C347.135 288.882 347.472 288.548 347.771 288.355C348.28 288.021 348.916 287.854 349.678 287.854C351.043 287.854 351.969 288.332 352.455 289.287C352.719 289.808 352.851 290.532 352.851 291.458V297.496H351.225V291.563C351.225 290.872 351.137 290.365 350.961 290.042C350.674 289.527 350.135 289.269 349.344 289.269C348.688 289.269 348.093 289.495 347.56 289.946C347.026 290.397 346.76 291.25 346.76 292.503V297.496H345.178V284.541ZM305.478 313.205L303.518 307.5L301.435 313.205H305.478ZM302.604 305.584H304.581L309.266 318.496H307.35L306.04 314.628H300.934L299.536 318.496H297.743L302.604 305.584ZM310.646 309.083H312.21V310.418C312.585 309.956 312.925 309.619 313.229 309.408C313.751 309.05 314.343 308.872 315.005 308.872C315.755 308.872 316.358 309.056 316.815 309.425C317.073 309.636 317.308 309.947 317.519 310.357C317.87 309.853 318.283 309.481 318.758 309.241C319.232 308.995 319.766 308.872 320.357 308.872C321.623 308.872 322.484 309.329 322.941 310.243C323.188 310.735 323.311 311.397 323.311 312.229V318.496H321.667V311.957C321.667 311.33 321.509 310.899 321.192 310.665C320.882 310.43 320.501 310.313 320.05 310.313C319.429 310.313 318.893 310.521 318.441 310.937C317.996 311.353 317.773 312.047 317.773 313.02V318.496H316.165V312.352C316.165 311.713 316.089 311.248 315.937 310.955C315.696 310.515 315.248 310.295 314.592 310.295C313.994 310.295 313.449 310.527 312.957 310.99C312.471 311.453 312.228 312.291 312.228 313.503V318.496H310.646V309.083ZM329.56 308.872C330.228 308.872 330.875 309.03 331.502 309.346C332.129 309.657 332.606 310.061 332.935 310.559C333.251 311.034 333.462 311.587 333.567 312.22C333.661 312.654 333.708 313.345 333.708 314.294H326.809C326.838 315.25 327.063 316.017 327.485 316.597C327.907 317.171 328.561 317.458 329.445 317.458C330.271 317.458 330.931 317.186 331.423 316.641C331.704 316.325 331.903 315.958 332.021 315.542H333.576C333.535 315.888 333.397 316.275 333.163 316.703C332.935 317.125 332.677 317.47 332.39 317.74C331.909 318.208 331.314 318.525 330.605 318.689C330.225 318.783 329.794 318.83 329.313 318.83C328.142 318.83 327.148 318.405 326.334 317.555C325.52 316.7 325.112 315.504 325.112 313.969C325.112 312.458 325.522 311.23 326.343 310.287C327.163 309.343 328.235 308.872 329.56 308.872ZM332.082 313.038C332.018 312.352 331.868 311.804 331.634 311.394C331.2 310.632 330.477 310.251 329.463 310.251C328.736 310.251 328.127 310.515 327.635 311.042C327.143 311.564 326.882 312.229 326.853 313.038H332.082ZM335.703 309.083H337.206V310.708C337.329 310.392 337.631 310.008 338.111 309.557C338.592 309.1 339.146 308.872 339.772 308.872C339.802 308.872 339.852 308.875 339.922 308.88C339.992 308.886 340.112 308.898 340.282 308.916V310.585C340.188 310.568 340.101 310.556 340.019 310.55C339.942 310.544 339.857 310.542 339.764 310.542C338.967 310.542 338.354 310.799 337.927 311.315C337.499 311.825 337.285 312.414 337.285 313.082V318.496H335.703V309.083ZM341.653 309.126H343.262V318.496H341.653V309.126ZM341.653 305.584H343.262V307.377H341.653V305.584ZM349.291 308.81C350.352 308.81 351.213 309.068 351.875 309.583C352.543 310.099 352.944 310.987 353.079 312.247H351.541C351.447 311.667 351.233 311.186 350.899 310.805C350.565 310.418 350.029 310.225 349.291 310.225C348.283 310.225 347.562 310.717 347.129 311.702C346.848 312.34 346.707 313.128 346.707 314.066C346.707 315.009 346.906 315.803 347.305 316.448C347.703 317.092 348.33 317.415 349.186 317.415C349.842 317.415 350.36 317.215 350.741 316.817C351.128 316.413 351.395 315.862 351.541 315.165H353.079C352.903 316.413 352.464 317.327 351.761 317.907C351.058 318.481 350.158 318.768 349.062 318.768C347.832 318.768 346.851 318.32 346.118 317.423C345.386 316.521 345.02 315.396 345.02 314.048C345.02 312.396 345.421 311.11 346.224 310.19C347.026 309.27 348.049 308.81 349.291 308.81ZM355.874 315.991C355.874 316.448 356.041 316.808 356.375 317.072C356.709 317.335 357.104 317.467 357.562 317.467C358.118 317.467 358.657 317.338 359.179 317.081C360.058 316.653 360.497 315.953 360.497 314.98V313.706C360.304 313.829 360.055 313.931 359.75 314.013C359.445 314.095 359.146 314.154 358.854 314.189L357.896 314.312C357.321 314.388 356.891 314.508 356.604 314.672C356.117 314.948 355.874 315.387 355.874 315.991ZM359.706 312.792C360.069 312.745 360.312 312.592 360.436 312.334C360.506 312.194 360.541 311.992 360.541 311.728C360.541 311.189 360.348 310.799 359.961 310.559C359.58 310.313 359.032 310.19 358.317 310.19C357.491 310.19 356.905 310.413 356.56 310.858C356.366 311.104 356.24 311.47 356.182 311.957H354.705C354.734 310.796 355.109 309.991 355.83 309.54C356.557 309.083 357.397 308.854 358.353 308.854C359.46 308.854 360.359 309.065 361.051 309.487C361.736 309.909 362.079 310.565 362.079 311.456V316.878C362.079 317.042 362.111 317.174 362.176 317.274C362.246 317.374 362.39 317.423 362.606 317.423C362.677 317.423 362.756 317.42 362.844 317.415C362.932 317.403 363.025 317.388 363.125 317.371V318.54C362.879 318.61 362.691 318.654 362.562 318.671C362.434 318.689 362.258 318.698 362.035 318.698C361.49 318.698 361.095 318.504 360.849 318.118C360.72 317.913 360.629 317.623 360.576 317.248C360.254 317.669 359.791 318.036 359.188 318.346C358.584 318.657 357.919 318.812 357.192 318.812C356.319 318.812 355.604 318.548 355.048 318.021C354.497 317.488 354.222 316.823 354.222 316.026C354.222 315.153 354.494 314.476 355.039 313.996C355.584 313.515 356.299 313.219 357.184 313.108L359.706 312.792Z" fill="#1363BF"/>
<path opacity="0.16" d="M974.456 306.198L972.496 300.494L970.413 306.198H974.456ZM971.582 298.578H973.56L978.244 311.489H976.328L975.019 307.622H969.912L968.515 311.489H966.722L971.582 298.578ZM981.206 302.076V308.325C981.206 308.806 981.282 309.198 981.435 309.503C981.716 310.065 982.24 310.347 983.008 310.347C984.109 310.347 984.859 309.854 985.258 308.87C985.475 308.343 985.583 307.619 985.583 306.699V302.076H987.165V311.489H985.671L985.688 310.101C985.483 310.458 985.229 310.76 984.924 311.006C984.32 311.498 983.588 311.744 982.727 311.744C981.385 311.744 980.471 311.296 979.984 310.399C979.721 309.919 979.589 309.277 979.589 308.475V302.076H981.206ZM990.584 308.536C990.631 309.063 990.763 309.468 990.979 309.749C991.378 310.259 992.069 310.514 993.054 310.514C993.64 310.514 994.155 310.388 994.601 310.136C995.046 309.878 995.269 309.482 995.269 308.949C995.269 308.545 995.09 308.237 994.732 308.026C994.504 307.897 994.053 307.748 993.379 307.578L992.122 307.262C991.319 307.062 990.728 306.84 990.347 306.594C989.667 306.166 989.327 305.574 989.327 304.818C989.327 303.928 989.646 303.207 990.285 302.656C990.93 302.105 991.794 301.83 992.878 301.83C994.296 301.83 995.318 302.246 995.945 303.078C996.338 303.605 996.528 304.174 996.517 304.783H995.022C994.993 304.426 994.867 304.101 994.645 303.808C994.281 303.392 993.651 303.184 992.755 303.184C992.157 303.184 991.703 303.298 991.393 303.526C991.088 303.755 990.936 304.057 990.936 304.432C990.936 304.842 991.138 305.17 991.542 305.416C991.776 305.562 992.122 305.691 992.579 305.803L993.625 306.058C994.762 306.333 995.523 306.6 995.91 306.857C996.525 307.262 996.833 307.897 996.833 308.765C996.833 309.603 996.514 310.326 995.875 310.936C995.242 311.545 994.275 311.85 992.975 311.85C991.574 311.85 990.581 311.533 989.995 310.9C989.415 310.262 989.104 309.474 989.063 308.536H990.584ZM998.96 299.448H1000.56V302.076H1002.06V303.368H1000.56V309.512C1000.56 309.84 1000.67 310.06 1000.89 310.171C1001.02 310.235 1001.22 310.268 1001.51 310.268C1001.58 310.268 1001.67 310.268 1001.75 310.268C1001.84 310.262 1001.95 310.253 1002.06 310.241V311.489C1001.88 311.542 1001.69 311.58 1001.49 311.604C1001.3 311.627 1001.09 311.639 1000.86 311.639C1000.12 311.639 999.619 311.451 999.355 311.076C999.092 310.695 998.96 310.203 998.96 309.6V303.368H997.686V302.076H998.96V299.448ZM1003.7 302.076H1005.2V303.702C1005.32 303.386 1005.62 303.002 1006.11 302.551C1006.59 302.094 1007.14 301.865 1007.77 301.865C1007.8 301.865 1007.85 301.868 1007.92 301.874C1007.99 301.88 1008.11 301.892 1008.28 301.909V303.579C1008.18 303.562 1008.09 303.55 1008.01 303.544C1007.94 303.538 1007.85 303.535 1007.76 303.535C1006.96 303.535 1006.35 303.793 1005.92 304.309C1005.49 304.818 1005.28 305.407 1005.28 306.075V311.489H1003.7V302.076ZM1010.86 308.984C1010.86 309.441 1011.03 309.802 1011.36 310.065C1011.7 310.329 1012.09 310.461 1012.55 310.461C1013.1 310.461 1013.64 310.332 1014.17 310.074C1015.04 309.646 1015.48 308.946 1015.48 307.974V306.699C1015.29 306.822 1015.04 306.925 1014.74 307.007C1014.43 307.089 1014.13 307.147 1013.84 307.183L1012.88 307.306C1012.31 307.382 1011.88 307.502 1011.59 307.666C1011.1 307.941 1010.86 308.381 1010.86 308.984ZM1014.69 305.785C1015.06 305.738 1015.3 305.586 1015.42 305.328C1015.49 305.188 1015.53 304.985 1015.53 304.722C1015.53 304.183 1015.33 303.793 1014.95 303.553C1014.57 303.307 1014.02 303.184 1013.3 303.184C1012.48 303.184 1011.89 303.406 1011.55 303.852C1011.35 304.098 1011.23 304.464 1011.17 304.95H1009.69C1009.72 303.79 1010.1 302.984 1010.82 302.533C1011.54 302.076 1012.38 301.848 1013.34 301.848C1014.45 301.848 1015.35 302.059 1016.04 302.48C1016.72 302.902 1017.07 303.559 1017.07 304.449V309.872C1017.07 310.036 1017.1 310.168 1017.16 310.268C1017.23 310.367 1017.38 310.417 1017.59 310.417C1017.66 310.417 1017.74 310.414 1017.83 310.408C1017.92 310.396 1018.01 310.382 1018.11 310.364V311.533C1017.87 311.604 1017.68 311.647 1017.55 311.665C1017.42 311.683 1017.24 311.691 1017.02 311.691C1016.48 311.691 1016.08 311.498 1015.83 311.111C1015.71 310.906 1015.62 310.616 1015.56 310.241C1015.24 310.663 1014.78 311.029 1014.17 311.34C1013.57 311.65 1012.91 311.806 1012.18 311.806C1011.31 311.806 1010.59 311.542 1010.03 311.015C1009.48 310.481 1009.21 309.816 1009.21 309.02C1009.21 308.146 1009.48 307.47 1010.03 306.989C1010.57 306.509 1011.29 306.213 1012.17 306.102L1014.69 305.785ZM1019.71 298.578H1021.29V311.489H1019.71V298.578ZM1023.67 302.12H1025.28V311.489H1023.67V302.12ZM1023.67 298.578H1025.28V300.371H1023.67V298.578ZM1028.9 308.984C1028.9 309.441 1029.06 309.802 1029.4 310.065C1029.73 310.329 1030.13 310.461 1030.58 310.461C1031.14 310.461 1031.68 310.332 1032.2 310.074C1033.08 309.646 1033.52 308.946 1033.52 307.974V306.699C1033.33 306.822 1033.08 306.925 1032.77 307.007C1032.47 307.089 1032.17 307.147 1031.88 307.183L1030.92 307.306C1030.34 307.382 1029.91 307.502 1029.62 307.666C1029.14 307.941 1028.9 308.381 1028.9 308.984ZM1032.73 305.785C1033.09 305.738 1033.33 305.586 1033.46 305.328C1033.53 305.188 1033.56 304.985 1033.56 304.722C1033.56 304.183 1033.37 303.793 1032.98 303.553C1032.6 303.307 1032.05 303.184 1031.34 303.184C1030.51 303.184 1029.93 303.406 1029.58 303.852C1029.39 304.098 1029.26 304.464 1029.2 304.95H1027.73C1027.76 303.79 1028.13 302.984 1028.85 302.533C1029.58 302.076 1030.42 301.848 1031.37 301.848C1032.48 301.848 1033.38 302.059 1034.07 302.48C1034.76 302.902 1035.1 303.559 1035.1 304.449V309.872C1035.1 310.036 1035.13 310.168 1035.2 310.268C1035.27 310.367 1035.41 310.417 1035.63 310.417C1035.7 310.417 1035.78 310.414 1035.87 310.408C1035.95 310.396 1036.05 310.382 1036.15 310.364V311.533C1035.9 311.604 1035.71 311.647 1035.58 311.665C1035.46 311.683 1035.28 311.691 1035.06 311.691C1034.51 311.691 1034.12 311.498 1033.87 311.111C1033.74 310.906 1033.65 310.616 1033.6 310.241C1033.28 310.663 1032.81 311.029 1032.21 311.34C1031.61 311.65 1030.94 311.806 1030.21 311.806C1029.34 311.806 1028.63 311.542 1028.07 311.015C1027.52 310.481 1027.24 309.816 1027.24 309.02C1027.24 308.146 1027.52 307.47 1028.06 306.989C1028.61 306.509 1029.32 306.213 1030.21 306.102L1032.73 305.785Z" fill="#1363BF"/>
<path opacity="0.16" d="M826.481 122.297L824.521 116.593L822.438 122.297H826.481ZM823.607 114.677H825.585L830.27 127.588H828.354L827.044 123.72H821.938L820.54 127.588H818.747L823.607 114.677ZM832.59 124.635C832.637 125.162 832.769 125.566 832.985 125.847C833.384 126.357 834.075 126.612 835.06 126.612C835.646 126.612 836.161 126.486 836.606 126.234C837.052 125.976 837.274 125.581 837.274 125.048C837.274 124.643 837.096 124.336 836.738 124.125C836.51 123.996 836.059 123.846 835.385 123.677L834.128 123.36C833.325 123.161 832.733 122.938 832.353 122.692C831.673 122.264 831.333 121.673 831.333 120.917C831.333 120.026 831.652 119.305 832.291 118.755C832.936 118.204 833.8 117.928 834.884 117.928C836.302 117.928 837.324 118.344 837.951 119.177C838.344 119.704 838.534 120.272 838.522 120.882H837.028C836.999 120.524 836.873 120.199 836.65 119.906C836.287 119.49 835.657 119.282 834.761 119.282C834.163 119.282 833.709 119.396 833.398 119.625C833.094 119.853 832.941 120.155 832.941 120.53C832.941 120.94 833.144 121.268 833.548 121.514C833.782 121.661 834.128 121.79 834.585 121.901L835.631 122.156C836.768 122.431 837.529 122.698 837.916 122.956C838.531 123.36 838.839 123.996 838.839 124.863C838.839 125.701 838.52 126.425 837.881 127.034C837.248 127.643 836.281 127.948 834.98 127.948C833.58 127.948 832.587 127.632 832.001 126.999C831.421 126.36 831.11 125.572 831.069 124.635H832.59ZM840.649 118.219H842.258V127.588H840.649V118.219ZM840.649 114.677H842.258V116.469H840.649V114.677ZM845.87 125.083C845.87 125.54 846.037 125.9 846.371 126.164C846.705 126.427 847.101 126.559 847.558 126.559C848.114 126.559 848.653 126.43 849.175 126.173C850.054 125.745 850.493 125.045 850.493 124.072V122.798C850.3 122.921 850.051 123.023 849.746 123.105C849.441 123.187 849.143 123.246 848.85 123.281L847.892 123.404C847.317 123.48 846.887 123.6 846.6 123.764C846.113 124.04 845.87 124.479 845.87 125.083ZM849.702 121.884C850.065 121.837 850.309 121.684 850.432 121.427C850.502 121.286 850.537 121.084 850.537 120.82C850.537 120.281 850.344 119.891 849.957 119.651C849.576 119.405 849.028 119.282 848.313 119.282C847.487 119.282 846.901 119.505 846.556 119.95C846.362 120.196 846.236 120.562 846.178 121.049H844.701C844.73 119.888 845.105 119.083 845.826 118.632C846.553 118.175 847.394 117.946 848.349 117.946C849.456 117.946 850.355 118.157 851.047 118.579C851.732 119.001 852.075 119.657 852.075 120.548V125.97C852.075 126.135 852.107 126.266 852.172 126.366C852.242 126.466 852.386 126.515 852.603 126.515C852.673 126.515 852.752 126.512 852.84 126.507C852.928 126.495 853.021 126.48 853.121 126.463V127.632C852.875 127.702 852.688 127.746 852.559 127.763C852.43 127.781 852.254 127.79 852.031 127.79C851.486 127.79 851.091 127.596 850.845 127.21C850.716 127.005 850.625 126.715 850.572 126.34C850.25 126.761 849.787 127.128 849.184 127.438C848.58 127.749 847.915 127.904 847.188 127.904C846.315 127.904 845.601 127.64 845.044 127.113C844.493 126.58 844.218 125.915 844.218 125.118C844.218 124.245 844.49 123.568 845.035 123.088C845.58 122.607 846.295 122.311 847.18 122.2L849.702 121.884Z" fill="#1363BF"/>
<path opacity="0.16" d="M636.999 93.688H646.412V95.27H638.704V99.1899H645.832V100.684H638.704V105.061H646.544V106.599H636.999V93.688ZM650.209 97.186V103.435C650.209 103.916 650.285 104.308 650.438 104.613C650.719 105.175 651.243 105.457 652.011 105.457C653.112 105.457 653.862 104.964 654.261 103.98C654.478 103.453 654.586 102.729 654.586 101.809V97.186H656.168V106.599H654.674L654.691 105.21C654.486 105.568 654.231 105.87 653.927 106.116C653.323 106.608 652.591 106.854 651.729 106.854C650.388 106.854 649.474 106.406 648.987 105.509C648.724 105.029 648.592 104.387 648.592 103.584V97.186H650.209ZM658.69 97.186H660.193V98.812C660.316 98.4956 660.618 98.1118 661.099 97.6606C661.579 97.2036 662.133 96.9751 662.76 96.9751C662.789 96.9751 662.839 96.978 662.909 96.9839C662.979 96.9897 663.1 97.0015 663.27 97.019V98.689C663.176 98.6714 663.088 98.6597 663.006 98.6538C662.93 98.6479 662.845 98.645 662.751 98.645C661.954 98.645 661.342 98.9028 660.914 99.4185C660.486 99.9282 660.272 100.517 660.272 101.185V106.599H658.69V97.186ZM668.376 105.58C669.425 105.58 670.143 105.184 670.529 104.393C670.922 103.596 671.118 102.711 671.118 101.739C671.118 100.86 670.978 100.145 670.696 99.5942C670.251 98.7271 669.483 98.2935 668.394 98.2935C667.427 98.2935 666.724 98.6626 666.284 99.4009C665.845 100.139 665.625 101.03 665.625 102.073C665.625 103.075 665.845 103.91 666.284 104.578C666.724 105.246 667.421 105.58 668.376 105.58ZM668.438 96.9136C669.65 96.9136 670.676 97.3179 671.514 98.1265C672.352 98.9351 672.771 100.125 672.771 101.695C672.771 103.212 672.401 104.466 671.663 105.457C670.925 106.447 669.779 106.942 668.227 106.942C666.932 106.942 665.903 106.505 665.142 105.632C664.38 104.753 663.999 103.576 663.999 102.099C663.999 100.517 664.4 99.2573 665.203 98.3198C666.006 97.3823 667.084 96.9136 668.438 96.9136ZM678.633 105.536C679.371 105.536 679.983 105.228 680.47 104.613C680.962 103.992 681.208 103.066 681.208 101.835C681.208 101.085 681.1 100.441 680.883 99.9019C680.473 98.8647 679.723 98.3462 678.633 98.3462C677.537 98.3462 676.787 98.894 676.383 99.9897C676.166 100.576 676.058 101.32 676.058 102.222C676.058 102.949 676.166 103.567 676.383 104.077C676.793 105.049 677.543 105.536 678.633 105.536ZM674.537 97.23H676.075V98.478C676.392 98.0503 676.737 97.7192 677.112 97.4849C677.646 97.1333 678.272 96.9575 678.993 96.9575C680.06 96.9575 680.965 97.3677 681.709 98.188C682.453 99.0024 682.825 100.168 682.825 101.686C682.825 103.737 682.289 105.202 681.217 106.081C680.537 106.637 679.746 106.916 678.844 106.916C678.135 106.916 677.54 106.76 677.06 106.45C676.778 106.274 676.465 105.972 676.119 105.544V110.352H674.537V97.23ZM688.6 96.9751C689.268 96.9751 689.915 97.1333 690.542 97.4497C691.169 97.7603 691.646 98.1646 691.975 98.6626C692.291 99.1372 692.502 99.6909 692.607 100.324C692.701 100.757 692.748 101.449 692.748 102.398H685.849C685.878 103.353 686.104 104.121 686.525 104.701C686.947 105.275 687.601 105.562 688.485 105.562C689.312 105.562 689.971 105.29 690.463 104.745C690.744 104.428 690.943 104.062 691.061 103.646H692.616C692.575 103.992 692.438 104.378 692.203 104.806C691.975 105.228 691.717 105.574 691.43 105.843C690.949 106.312 690.354 106.628 689.646 106.792C689.265 106.886 688.834 106.933 688.354 106.933C687.182 106.933 686.188 106.508 685.374 105.659C684.56 104.803 684.152 103.608 684.152 102.073C684.152 100.561 684.562 99.3335 685.383 98.3901C686.203 97.4468 687.275 96.9751 688.6 96.9751ZM691.122 101.141C691.058 100.456 690.908 99.9077 690.674 99.4976C690.24 98.7358 689.517 98.355 688.503 98.355C687.776 98.355 687.167 98.6187 686.675 99.146C686.183 99.6675 685.922 100.333 685.893 101.141H691.122Z" fill="#1363BF"/>
<defs>
<linearGradient id="paint0_linear_509_9329" x1="829.469" y1="-57.3072" x2="489.507" y2="553.458" gradientUnits="userSpaceOnUse">
<stop offset="0.12" stop-color="#187EF2"/>
<stop offset="0.63" stop-color="#1363BF"/>
<stop offset="1" stop-color="#1466C5"/>
</linearGradient>
</defs>
</svg>
